<?xml version="1.0" encoding="UTF-8" standalone="no"?>
<!-- Created with Inkscape (http://www.inkscape.org/) -->

<svg
   width="210mm"
   height="297mm"
   viewBox="0 0 210 297"
   version="1.1"
   id="svg1"
   xml:space="preserve"
   inkscape:version="1.4 (86a8ad7, 2024-10-11)"
   sodipodi:docname="choleric.svg"
   xmlns:inkscape="http://www.inkscape.org/namespaces/inkscape"
   xmlns:sodipodi="http://sodipodi.sourceforge.net/DTD/sodipodi-0.dtd"
   xmlns="http://www.w3.org/2000/svg"
   xmlns:svg="http://www.w3.org/2000/svg"><sodipodi:namedview
     id="namedview1"
     pagecolor="#505050"
     bordercolor="#eeeeee"
     borderopacity="1"
     inkscape:showpageshadow="0"
     inkscape:pageopacity="0"
     inkscape:pagecheckerboard="0"
     inkscape:deskcolor="#505050"
     inkscape:document-units="px"
     inkscape:zoom="0.34609638"
     inkscape:cx="330.8327"
     inkscape:cy="322.16459"
     inkscape:window-width="1920"
     inkscape:window-height="991"
     inkscape:window-x="-9"
     inkscape:window-y="-9"
     inkscape:window-maximized="1"
     inkscape:current-layer="g180" /><defs
     id="defs1"><filter
       id="mask-powermask-path-effect16_inverse"
       inkscape:label="filtermask-powermask-path-effect16"
       style="color-interpolation-filters:sRGB"
       height="100"
       width="100"
       x="-50"
       y="-50"><feColorMatrix
         id="mask-powermask-path-effect16_primitive1"
         values="1"
         type="saturate"
         result="fbSourceGraphic" /><feColorMatrix
         id="mask-powermask-path-effect16_primitive2"
         values="-1 0 0 0 1 0 -1 0 0 1 0 0 -1 0 1 0 0 0 1 0 "
         in="fbSourceGraphic" /></filter><pattern
       patternUnits="userSpaceOnUse"
       width="229.96177"
       height="235.18179"
       patternTransform="translate(1865.9072,1529.9658)"
       preserveAspectRatio="xMidYMid"
       id="pattern16"><path
         style="fill:#f06338;fill-opacity:1;stroke:none;stroke-width:0.495347;stroke-linecap:round;stroke-linejoin:round;paint-order:stroke fill markers"
         id="path9216"
         sodipodi:type="arc"
         sodipodi:cx="114.98088"
         sodipodi:cy="117.59088"
         sodipodi:rx="114.98088"
         sodipodi:ry="117.59088"
         sodipodi:start="0"
         sodipodi:end="6.272498"
         sodipodi:open="true"
         sodipodi:arc-type="arc"
         d="M 229.96176,117.59088 A 114.98088,117.59088 0 0 1 115.28809,235.18134 114.98088,117.59088 0 0 1 0.00164161,118.21924 114.98088,117.59088 0 0 1 114.05926,0.00377746 114.98088,117.59088 0 0 1 229.9552,116.33418"
         mask="none" /><path
         id="path9215"
         style="fill:#222b00;fill-opacity:1;stroke:none;stroke-width:1.87218;stroke-linecap:round;stroke-linejoin:round;paint-order:stroke fill markers"
         d="m 160.96536,89.201313 c -7.30961,-0.197291 -15.70542,1.604788 -24.29296,5.794923 -9.73175,4.748409 -11.69351,5.297194 -23.00587,6.431664 -23.308835,2.33752 -34.287115,9.70204 -34.287115,22.99804 0,2.59888 -0.212031,2.8495 -3.976554,4.69138 -18.629821,9.11471 -22.044019,32.04057 -8.693367,58.38675 1.637065,3.23085 1.909039,4.74602 1.992189,11.07223 0.163276,12.44973 9.89246,25.22487 19.212888,25.23243 1.801285,0.001 3.158211,2.33912 3.158211,5.44335 0,1.62373 0.189354,2.56048 0.667956,3.26956 a 114.98089,117.59088 0 0 0 23.240242,2.66015 114.98089,117.59088 0 0 0 77.14843,-30.91601 c 0.74574,-19.99366 -3.68307,-43.6995 -11.35154,-58.96876 -1.59323,-3.17234 -1.64194,-3.07978 3.00192,-5.65039 8.55561,-4.73598 8.86349,-15.38366 0.57816,-19.97851 -1.1873,-0.65843 -1.23039,-1.07784 -0.43556,-4.23439 3.94878,-15.682055 -6.87594,-25.798036 -22.95703,-26.232417 z m -0.88283,0.150425 c 6.48631,-0.17537 11.62866,1.888366 16.36135,6.16407 5.76971,5.212722 8.78083,16.360402 5.8828,21.775412 -0.70186,1.31142 -0.56206,1.74485 0.91408,2.84375 4.92729,3.66803 5.68675,4.47145 6.12888,6.48435 1.71855,7.82456 -8.25215,16.99755 -12.69336,11.67775 l -1.99022,-2.38476 -4.76368,1.19531 c -6.00257,1.50724 -12.59388,1.51495 -23.70312,0.0265 -8.96402,-1.20027 -28.37064,-1.05634 -33.90625,0.25209 l -2.51172,0.59376 0.16781,11.30665 c 0.19804,13.22158 -0.52868,16.81946 -5.30468,26.26564 -2.70822,5.35646 -3.21986,7.11076 -3.64063,12.44727 -0.35641,4.51793 -0.82334,6.45758 -1.707027,7.12301 -2.005795,1.50754 -3.012812,1.06726 -5.031231,-2.19334 -6.864907,-11.08989 -15.959509,-13.3951 -22.443364,-5.68947 -2.589128,3.07699 -2.92388,2.90014 -5.533228,-2.93552 -11.703232,-26.17384 -7.244977,-48.26045 11.062526,-54.81445 1.507313,-0.53961 2.756485,-1.1621 2.775382,-1.38282 0.0189,-0.22072 0.191244,-2.20562 0.382829,-4.41018 1.116888,-12.85432 11.232567,-19.25953 33.484343,-21.20115 11.14848,-0.97281 10.87616,-0.89862 21.63871,-5.876972 10.1122,-4.677543 17.94334,-7.091981 24.42965,-7.267578 z M 183.0181,166.3166 c 0.26344,0.13153 0.47717,0.38453 0.7578,0.72265 1.37594,1.65792 -0.89881,3.77265 -7.6543,7.11915 -10.56922,5.23574 -18.08893,4.60929 -13.87306,-1.15627 0.86109,-1.17762 1.19543,-1.24203 2.18362,-0.42187 1.75049,1.45274 5.21178,0.50498 11.7461,-3.21876 4.81262,-2.74257 6.04905,-3.43907 6.83984,-3.0449 z m -53.24417,2.17383 c 2.34543,0.12473 6.12628,0.91624 11.86133,2.40235 11.53667,2.98949 13.08896,3.77627 11.19141,5.67382 -2.15301,2.15301 -26.30857,-3.79343 -26.30857,-6.47656 0,-1.18136 0.91045,-1.72425 3.25583,-1.59961 z m 45.31839,11.53905 c 0.86427,0.0586 1.87208,0.6127 2.95703,1.76757 2.28933,2.43686 2.96126,9.65341 1.15623,12.40823 -2.13645,3.26064 -4.66722,1.6148 -6.30663,-4.10158 -1.70876,-5.95827 -0.39946,-10.24974 2.19337,-10.07422 z m -32.49025,2.1758 c 0.48589,-0.008 0.9993,0.15383 1.52931,0.50778 2.47937,1.65551 3.42916,10.30953 1.54295,14.05667 -1.52969,3.03889 -4.68994,2.88442 -6.01757,-0.29291 -2.53947,-6.07783 -0.45581,-14.22603 2.94531,-14.27146 z m 19.34377,0.31257 c 8.1594,0 14.51354,32.70024 6.96677,35.8535 -3.26518,1.36434 -5.10702,1.33047 -6.55858,-0.12094 -1.57894,-1.57894 -0.22942,-3.21094 2.65429,-3.21094 7.05422,0 7.22158,-5.47608 0.56836,-18.55857 -5.10104,-10.03042 -6.12404,-13.9629 -3.63084,-13.9629 z m -80.109392,11.0488 c 0.869292,0.10659 2.057877,0.51096 3.531251,1.28909 3.664781,1.93546 7.245241,7.13764 7.417965,10.77929 0.187465,3.95542 -1.869052,3.51745 -3.906255,-0.83203 -1.194217,-2.54971 -2.840769,-4.50467 -5.253884,-6.2383 -4.124674,-2.96337 -4.396951,-5.31821 -1.789077,-4.99805 z m 11.429707,32.43557 c 0.401991,0 0.73047,0.98559 0.73047,2.19141 0,1.20586 -0.328441,2.19333 -0.73047,2.19333 -0.40199,0 -0.730469,-0.98747 -0.730469,-2.19333 0,-1.20582 0.328441,-2.19141 0.730469,-2.19141 z"
         mask="none" /></pattern><filter
       id="mask-powermask-path-effect12_inverse"
       inkscape:label="filtermask-powermask-path-effect12"
       style="color-interpolation-filters:sRGB"
       height="100"
       width="100"
       x="-50"
       y="-50"><feColorMatrix
         id="mask-powermask-path-effect12_primitive1"
         values="1"
         type="saturate"
         result="fbSourceGraphic" /><feColorMatrix
         id="mask-powermask-path-effect12_primitive2"
         values="-1 0 0 0 1 0 -1 0 0 1 0 0 -1 0 1 0 0 0 1 0 "
         in="fbSourceGraphic" /></filter><filter
       id="mask-powermask-path-effect16_inverse-8"
       inkscape:label="filtermask-powermask-path-effect16"
       style="color-interpolation-filters:sRGB"
       height="100"
       width="100"
       x="-50"
       y="-50"><feColorMatrix
         id="mask-powermask-path-effect16_primitive1-8"
         values="1"
         type="saturate"
         result="fbSourceGraphic" /><feColorMatrix
         id="mask-powermask-path-effect16_primitive2-2"
         values="-1 0 0 0 1 0 -1 0 0 1 0 0 -1 0 1 0 0 0 1 0 "
         in="fbSourceGraphic" /></filter><pattern
       patternUnits="userSpaceOnUse"
       width="229.96177"
       height="235.18179"
       patternTransform="translate(1865.9072,1529.9658)"
       preserveAspectRatio="xMidYMid"
       id="pattern16-4"><path
         style="fill:#f06338;fill-opacity:1;stroke:none;stroke-width:0.495347;stroke-linecap:round;stroke-linejoin:round;paint-order:stroke fill markers"
         id="path9216-5"
         sodipodi:type="arc"
         sodipodi:cx="114.98088"
         sodipodi:cy="117.59088"
         sodipodi:rx="114.98088"
         sodipodi:ry="117.59088"
         sodipodi:start="0"
         sodipodi:end="6.272498"
         sodipodi:open="true"
         sodipodi:arc-type="arc"
         d="M 229.96176,117.59088 A 114.98088,117.59088 0 0 1 115.28809,235.18134 114.98088,117.59088 0 0 1 0.00164161,118.21924 114.98088,117.59088 0 0 1 114.05926,0.00377746 114.98088,117.59088 0 0 1 229.9552,116.33418"
         mask="none" /><path
         id="path9215-5"
         style="fill:#222b00;fill-opacity:1;stroke:none;stroke-width:1.87218;stroke-linecap:round;stroke-linejoin:round;paint-order:stroke fill markers"
         d="m 160.96536,89.201313 c -7.30961,-0.197291 -15.70542,1.604788 -24.29296,5.794923 -9.73175,4.748409 -11.69351,5.297194 -23.00587,6.431664 -23.308835,2.33752 -34.287115,9.70204 -34.287115,22.99804 0,2.59888 -0.212031,2.8495 -3.976554,4.69138 -18.629821,9.11471 -22.044019,32.04057 -8.693367,58.38675 1.637065,3.23085 1.909039,4.74602 1.992189,11.07223 0.163276,12.44973 9.89246,25.22487 19.212888,25.23243 1.801285,0.001 3.158211,2.33912 3.158211,5.44335 0,1.62373 0.189354,2.56048 0.667956,3.26956 a 114.98089,117.59088 0 0 0 23.240242,2.66015 114.98089,117.59088 0 0 0 77.14843,-30.91601 c 0.74574,-19.99366 -3.68307,-43.6995 -11.35154,-58.96876 -1.59323,-3.17234 -1.64194,-3.07978 3.00192,-5.65039 8.55561,-4.73598 8.86349,-15.38366 0.57816,-19.97851 -1.1873,-0.65843 -1.23039,-1.07784 -0.43556,-4.23439 3.94878,-15.682055 -6.87594,-25.798036 -22.95703,-26.232417 z m -0.88283,0.150425 c 6.48631,-0.17537 11.62866,1.888366 16.36135,6.16407 5.76971,5.212722 8.78083,16.360402 5.8828,21.775412 -0.70186,1.31142 -0.56206,1.74485 0.91408,2.84375 4.92729,3.66803 5.68675,4.47145 6.12888,6.48435 1.71855,7.82456 -8.25215,16.99755 -12.69336,11.67775 l -1.99022,-2.38476 -4.76368,1.19531 c -6.00257,1.50724 -12.59388,1.51495 -23.70312,0.0265 -8.96402,-1.20027 -28.37064,-1.05634 -33.90625,0.25209 l -2.51172,0.59376 0.16781,11.30665 c 0.19804,13.22158 -0.52868,16.81946 -5.30468,26.26564 -2.70822,5.35646 -3.21986,7.11076 -3.64063,12.44727 -0.35641,4.51793 -0.82334,6.45758 -1.707027,7.12301 -2.005795,1.50754 -3.012812,1.06726 -5.031231,-2.19334 -6.864907,-11.08989 -15.959509,-13.3951 -22.443364,-5.68947 -2.589128,3.07699 -2.92388,2.90014 -5.533228,-2.93552 -11.703232,-26.17384 -7.244977,-48.26045 11.062526,-54.81445 1.507313,-0.53961 2.756485,-1.1621 2.775382,-1.38282 0.0189,-0.22072 0.191244,-2.20562 0.382829,-4.41018 1.116888,-12.85432 11.232567,-19.25953 33.484343,-21.20115 11.14848,-0.97281 10.87616,-0.89862 21.63871,-5.876972 10.1122,-4.677543 17.94334,-7.091981 24.42965,-7.267578 z M 183.0181,166.3166 c 0.26344,0.13153 0.47717,0.38453 0.7578,0.72265 1.37594,1.65792 -0.89881,3.77265 -7.6543,7.11915 -10.56922,5.23574 -18.08893,4.60929 -13.87306,-1.15627 0.86109,-1.17762 1.19543,-1.24203 2.18362,-0.42187 1.75049,1.45274 5.21178,0.50498 11.7461,-3.21876 4.81262,-2.74257 6.04905,-3.43907 6.83984,-3.0449 z m -53.24417,2.17383 c 2.34543,0.12473 6.12628,0.91624 11.86133,2.40235 11.53667,2.98949 13.08896,3.77627 11.19141,5.67382 -2.15301,2.15301 -26.30857,-3.79343 -26.30857,-6.47656 0,-1.18136 0.91045,-1.72425 3.25583,-1.59961 z m 45.31839,11.53905 c 0.86427,0.0586 1.87208,0.6127 2.95703,1.76757 2.28933,2.43686 2.96126,9.65341 1.15623,12.40823 -2.13645,3.26064 -4.66722,1.6148 -6.30663,-4.10158 -1.70876,-5.95827 -0.39946,-10.24974 2.19337,-10.07422 z m -32.49025,2.1758 c 0.48589,-0.008 0.9993,0.15383 1.52931,0.50778 2.47937,1.65551 3.42916,10.30953 1.54295,14.05667 -1.52969,3.03889 -4.68994,2.88442 -6.01757,-0.29291 -2.53947,-6.07783 -0.45581,-14.22603 2.94531,-14.27146 z m 19.34377,0.31257 c 8.1594,0 14.51354,32.70024 6.96677,35.8535 -3.26518,1.36434 -5.10702,1.33047 -6.55858,-0.12094 -1.57894,-1.57894 -0.22942,-3.21094 2.65429,-3.21094 7.05422,0 7.22158,-5.47608 0.56836,-18.55857 -5.10104,-10.03042 -6.12404,-13.9629 -3.63084,-13.9629 z m -80.109392,11.0488 c 0.869292,0.10659 2.057877,0.51096 3.531251,1.28909 3.664781,1.93546 7.245241,7.13764 7.417965,10.77929 0.187465,3.95542 -1.869052,3.51745 -3.906255,-0.83203 -1.194217,-2.54971 -2.840769,-4.50467 -5.253884,-6.2383 -4.124674,-2.96337 -4.396951,-5.31821 -1.789077,-4.99805 z m 11.429707,32.43557 c 0.401991,0 0.73047,0.98559 0.73047,2.19141 0,1.20586 -0.328441,2.19333 -0.73047,2.19333 -0.40199,0 -0.730469,-0.98747 -0.730469,-2.19333 0,-1.20582 0.328441,-2.19141 0.730469,-2.19141 z"
         mask="none" /></pattern><filter
       id="mask-powermask-path-effect12_inverse-1"
       inkscape:label="filtermask-powermask-path-effect12"
       style="color-interpolation-filters:sRGB"
       height="100"
       width="100"
       x="-50"
       y="-50"><feColorMatrix
         id="mask-powermask-path-effect12_primitive1-7"
         values="1"
         type="saturate"
         result="fbSourceGraphic" /><feColorMatrix
         id="mask-powermask-path-effect12_primitive2-1"
         values="-1 0 0 0 1 0 -1 0 0 1 0 0 -1 0 1 0 0 0 1 0 "
         in="fbSourceGraphic" /></filter></defs><g
     id="g180"
     transform="matrix(2.1881625,0,0,2.1881625,-215.19144,-460.21416)"><path
       id="path179"
       style="display:inline;fill:#e14d2e;fill-opacity:1"
       d="m 156.71449,246.12733 -1.2609,0.31625 c -1.58818,0.39879 -3.33162,0.40204 -6.27094,0.007 -2.37173,-0.31757 -7.5064,-0.27969 -8.97103,0.0667 l -0.66507,0.1571 0.045,2.99155 c 0.0523,3.49821 -0.13988,4.45014 -1.40353,6.94944 -0.71655,1.41723 -0.85243,1.88139 -0.96376,3.29334 -0.0942,1.19537 -0.21733,1.70858 -0.45114,1.88464 -0.5307,0.39887 -0.79766,0.28238 -1.3317,-0.58032 -1.80536,-2.91647 -4.19218,-3.53099 -5.90558,-1.53634 -0.0293,0.0669 -0.0648,0.13579 -0.11007,0.2067 -0.0457,0.0716 -0.0912,0.14318 -0.14263,0.21084 -0.0634,0.0885 -0.12843,0.17662 -0.17983,0.27285 -0.0473,0.0853 -0.0858,0.17572 -0.12919,0.26304 -0.0399,0.0851 -0.0813,0.16932 -0.11576,0.25683 -0.0357,0.0748 -0.052,0.15889 -0.0801,0.23668 -0.025,0.0824 -0.0532,0.16392 -0.0739,0.24753 -0.0157,0.0664 -0.0341,0.13325 -0.0382,0.20153 -0.01,0.0831 -0.0221,0.16587 -0.0398,0.24753 0.0187,0.26589 0.0414,0.49607 0.0465,0.88677 0.0432,3.29399 2.61738,6.67408 5.08341,6.67608 2.0041,-0.53562 2.0196,2.11671 1.61127,3.45819 v 5.1e-4 l -0.34778,2.4598 c -0.94244,6.66799 -0.83795,6.49867 -4.81107,7.81451 -15.00449,4.96926 -17.06481,8.08839 -20.36775,30.83636 -0.32427,2.2333 -0.62962,4.17346 -0.67852,4.31137 -0.0874,0.24627 1.11055,1.60058 1.40095,1.58388 0.0815,-0.005 1.06203,0.20718 2.17868,0.47077 3.30144,0.77934 5.85496,1.08918 9.99009,1.21233 l 3.8995,0.11627 0.10904,-0.85007 c 0.0599,-0.46764 0.247,-3.06919 0.416,-5.78105 0.52375,-8.40434 0.82919,-10.82828 1.36477,-10.82828 0.34775,0 0.34748,0.7732 -0.009,4.7377 -0.15245,1.70156 -0.42172,5.39713 -0.59841,8.21242 -0.22831,3.63755 -0.39972,5.23027 -0.59221,5.50509 -0.14898,0.2127 -0.27198,0.82443 -0.27285,1.35909 -8.8e-4,0.53467 -0.17552,3.10369 -0.38861,5.70921 -0.72233,8.83234 -1.15245,14.59557 -1.15445,15.46882 l -0.002,0.87024 17.64389,-0.0966 17.6444,-0.0966 0.0548,-0.96687 c 0.1852,-3.26977 0.67402,-22.3538 0.83715,-32.67759 0.19714,-12.47605 0.27508,-13.53009 0.91209,-12.33982 0.28335,0.52945 -0.0269,23.93393 -0.32194,24.28948 -0.76887,0.92643 7.67222,8.12376 10.47946,8.93537 9.23688,2.6705 12.73905,-8.66575 9.64799,-31.23014 -0.539,-3.93465 -0.45311,-9.95571 0.21239,-14.88849 1.45629,-10.79426 0.70811,-12.45686 -5.48338,-12.18944 -4.47837,0.19343 -6.16234,1.29831 -6.51485,4.27467 -0.13507,1.14049 -0.11863,1.14444 1.0511,0.25012 1.75231,-1.33975 2.29454,-1.48378 5.91798,-1.57458 2.04708,-0.0513 3.32977,-0.009 3.4525,0.11368 0.37548,0.37547 -0.57036,0.61353 -2.87527,0.72347 -5.23863,0.24988 -7.41195,1.36834 -7.41195,3.81528 0,0.20443 -0.10542,0.33005 -0.23978,0.28525 -0.23433,-0.0781 -0.34759,-0.59016 -0.65113,-2.94969 -0.0855,-0.66438 -0.18192,-0.9641 -0.22582,-0.70177 -0.0483,0.28856 -0.28161,0.53527 -0.63097,0.66714 -1.39501,0.52656 -0.87881,4.4288 0.76016,5.74591 l 0.79427,0.63768 0.001,1.56322 c 0.002,2.23816 0.31158,3.84638 1.00304,5.20846 0.72,1.4183 0.73735,2.06302 0.15916,5.99757 -0.21468,1.46086 -0.39067,2.9186 -0.39067,3.2396 0,1.09955 -0.57623,0.55191 -1.24695,-1.18494 -2.9177,-7.55539 -6.43432,-11.79414 -11.95276,-14.40791 -1.75402,-0.83078 -5.62128,-2.22105 -6.17895,-2.22105 -0.35266,0 -0.93673,-0.62568 -1.00253,-1.07436 -0.035,-0.23808 -0.4234,-0.43251 -1.34307,-0.67179 -3.40731,-0.88648 -7.66619,-3.79595 -7.66619,-5.23741 0,-0.58469 0.25448,-0.54626 1.54874,0.2341 10.69493,6.44838 16.10178,2.98825 17.70434,-11.32954 0.62927,-5.62208 -0.57751,-13.02567 -2.86597,-17.58239 -0.16407,-0.32669 -0.25614,-0.52118 -0.24495,-0.67903 -0.0542,-0.0577 -0.102,-0.12102 -0.14728,-0.18604 -0.0536,-0.071 -0.0804,-0.15718 -0.12609,-0.23254 -0.0408,-0.0699 -0.0852,-0.13789 -0.12609,-0.20774 -0.0508,-0.0857 -0.0812,-0.17963 -0.10283,-0.27595 -0.12089,-0.0658 -0.23622,-0.1489 -0.33797,-0.27079 z m 2.0128,8.02431 c 0.08,-0.0139 0.13941,-0.006 0.19172,0.0202 0.0697,0.0348 0.12625,0.10173 0.2005,0.1912 0.36405,0.43866 -0.23781,0.99869 -2.0252,1.88412 -2.79644,1.38529 -4.78602,1.21903 -3.67057,-0.30644 0.22783,-0.31158 0.31628,-0.32862 0.57774,-0.11162 0.46315,0.38437 1.37895,0.13361 3.10782,-0.85163 0.955,-0.54424 1.37802,-0.78395 1.61799,-0.82579 z m -13.89579,0.59531 c 0.62055,0.033 1.62038,0.24242 3.13779,0.63562 3.05241,0.79097 3.46363,0.99966 2.96157,1.50172 -0.56965,0.56965 -6.96081,-1.0042 -6.96081,-1.71411 0,-0.31256 0.24089,-0.4562 0.86145,-0.42323 z M 156.82198,257.8 c 0.22867,0.0155 0.49532,0.1621 0.78238,0.46767 0.60572,0.64475 0.7835,2.55412 0.30592,3.283 -0.56527,0.86271 -1.23487,0.42726 -1.66863,-1.0852 -0.45211,-1.57646 -0.10569,-2.71191 0.58033,-2.66547 z m -8.59638,0.57567 c 0.12856,-0.002 0.26389,0.0407 0.40411,0.13436 0.656,0.43802 0.90782,2.72772 0.40876,3.71915 -0.40473,0.80404 -1.24139,0.76313 -1.59266,-0.0775 -0.67191,-1.60809 -0.12009,-3.76397 0.77979,-3.776 z m 5.11804,0.0827 c 2.15884,0 3.84005,8.65194 1.8433,9.48624 -0.86391,0.36098 -1.35124,0.35182 -1.7353,-0.032 -0.41776,-0.41776 -0.0607,-0.84956 0.70228,-0.84956 1.86643,0 1.91071,-1.44889 0.15038,-4.9103 -1.34965,-2.65388 -1.62032,-3.69434 -0.96066,-3.69434 z m -21.19561,2.92333 c 0.23,0.0282 0.54448,0.13519 0.93431,0.34107 0.96964,0.51209 1.91697,1.8885 1.96267,2.85202 0.0496,1.04654 -0.49452,0.93066 -1.03353,-0.22014 -0.31597,-0.67461 -0.75162,-1.19186 -1.39009,-1.65055 -1.09132,-0.78406 -1.16336,-1.40712 -0.47336,-1.3224 z m 45.88144,0.84749 c -1.28251,0 -2.47102,4.16281 -2.73265,9.56996 -0.0495,1.02317 -0.13874,1.93904 -0.19844,2.03554 -0.0615,0.0995 0.75277,0.19969 1.88051,0.23099 l 1.98902,0.0548 0.0512,-5.44205 c 0.0577,-6.12646 0.008,-6.44922 -0.9896,-6.44922 z m -25.0579,8.33386 c 1.80239,0.0238 3.2768,0.86844 3.2768,1.98541 0,0.66733 -0.61178,0.68897 -0.96222,0.0341 -0.9019,-1.68521 -3.84348,-1.32118 -6.19393,0.76636 -1.11888,0.99372 -1.03638,0.95816 -1.35082,0.57929 -0.66672,-0.80335 2.37365,-3.07846 4.44107,-3.32331 0.26753,-0.0317 0.53161,-0.0453 0.7891,-0.0419 z m 24.4507,10.35803 c 0.69869,-0.009 1.41031,0.10617 2.10995,0.37465 0.88757,0.3406 0.22144,0.6017 -1.83451,0.71934 -5.01041,0.28667 -7.56811,3.22918 -5.02089,5.77639 1.10457,1.10458 1.57856,0.7586 1.64176,-1.19889 l 0.0279,-0.87024 1.63401,-0.42736 c 1.85101,-0.48426 2.56972,-0.4919 2.65772,-0.0274 0.0483,0.25479 -0.21523,0.36857 -1.31052,0.56431 -1.77073,0.31645 -1.89549,0.42442 -2.33836,2.02158 -0.58486,2.10918 -0.5131,4.23202 0.18811,5.56504 0.40605,0.77189 0.50145,1.12273 0.34778,1.2764 -0.79922,0.79922 -1.87482,-1.46857 -1.87482,-3.95273 0,-1.36769 -0.0115,-1.40101 -0.57774,-1.63556 -4.80555,-1.99052 -0.54125,-8.12251 4.3496,-8.18554 z m -45.35744,3.02669 c 0.11333,0.03 0.30233,0.19982 0.55242,0.52348 3.93532,5.0929 12.43291,8.32753 16.48427,6.27455 1.26189,-0.63945 1.87883,-1.6729 2.39779,-4.01629 0.165,-0.74505 0.49506,-0.46575 0.49506,0.41909 0,2.22384 -1.49826,4.35635 -3.46749,4.93562 -5.03826,1.48206 -14.26571,-2.57838 -16.33389,-7.18768 -0.29626,-0.66026 -0.31704,-0.99877 -0.12816,-0.94877 z m 38.7227,19.85356 c 0.28686,0 0.0881,2.25238 -0.41341,4.68654 -0.87981,4.27039 -1.60713,9.88418 -1.65933,12.80594 -0.0519,2.9019 -0.20633,3.48579 -0.68574,2.59002 -0.16847,-0.31483 -0.20471,-1.3168 -0.12971,-3.58841 0.11893,-3.60047 0.13246,-3.57665 -1.07694,-1.89549 -0.90164,1.25336 -1.48621,1.59813 -1.48621,0.87643 0,-0.20924 0.70301,-1.31479 1.56269,-2.4567 l 1.56321,-2.07636 0.28371,-1.942 c 0.63097,-4.32048 1.69255,-8.99997 2.04173,-8.99997 z m -60.07643,16.89251 0.0119,11.80807 c 0.006,6.49447 0.0831,12.17703 0.17053,12.62765 l 0.15865,0.81907 6.69417,0.0507 v 5.1e-4 c 4.34576,0.033 6.70982,-0.0171 6.73912,-0.14262 0.0248,-0.10635 0.22045,-2.54276 0.4346,-5.41414 0.21415,-2.87139 0.60989,-7.95658 0.87953,-11.30061 0.59071,-7.32567 0.803,-6.58467 -1.88464,-6.58667 -4.06382,-0.003 -9.35613,-0.66431 -12.06334,-1.50689 z" /><path
       id="path180"
       style="display:inline;fill:#e6674c;fill-opacity:1"
       d="m 140.55727,210.32063 a 30.422026,31.112587 0 0 0 -30.17749,31.27768 30.422026,31.112587 0 0 0 24.53494,30.28187 l -0.0377,-0.0248 c -0.32986,-0.21901 -0.42633,-0.47161 -0.42633,-1.1157 0,-0.82132 -0.35903,-1.44041 -0.83561,-1.44073 -2.46603,-0.002 -5.03968,-3.38209 -5.08289,-6.67608 -0.022,-1.6738 -0.0944,-2.0742 -0.52762,-2.92902 -3.53236,-6.97077 -2.62902,-13.03706 2.30012,-15.44867 0.99607,-0.48733 1.05213,-0.55365 1.05213,-1.24127 0,-3.51789 2.90467,-5.46591 9.0718,-6.08438 2.99306,-0.30015 3.51263,-0.44536 6.08748,-1.70171 7.27082,-3.54766 14.02125,-0.6278 12.50157,5.40742 -0.2103,0.83517 -0.1989,0.94614 0.11524,1.12035 2.19216,1.21572 2.11019,4.0324 -0.15348,5.28546 -1.22869,0.68013 -1.21581,0.65617 -0.79427,1.49552 2.06203,4.10586 3.26338,10.7457 2.98328,15.9675 a 30.422026,31.112587 0 0 0 10.05158,-23.01978 c -0.002,-0.27691 -0.0257,-0.55121 -0.0346,-0.82734 a 30.422026,31.112587 0 0 0 -0.24546,-3.05201 c -0.0962,-0.74713 -0.21853,-1.48757 -0.36587,-2.22312 a 30.422026,31.112587 0 0 0 -0.36949,-1.65572 c -0.28491,-1.11736 -0.63196,-2.21389 -1.03043,-3.29023 a 30.422026,31.112587 0 0 0 -0.38498,-1.02371 c -0.26716,-0.65425 -0.55009,-1.30156 -0.85783,-1.9358 a 30.422026,31.112587 0 0 0 -1.40922,-2.57917 c -0.1886,-0.31387 -0.38772,-0.62057 -0.58653,-0.9276 a 30.422026,31.112587 0 0 0 -25.37832,-13.63896 z" /><path
       id="rect180"
       style="display:inline;fill:#591a0d;fill-opacity:1;stroke-width:0.526477;stroke-linecap:round;stroke-linejoin:round;stroke-opacity:0.984655;paint-order:stroke fill markers"
       d="m 159.32683,216.88375 v 2.3e-4 h 4.7e-4 z m 4.7e-4,2.3e-4 c 0.0795,0.0533 0.15879,0.10699 0.23782,0.16106 -0.025,-0.0524 -0.0506,-0.10467 -0.0756,-0.15704 -0.0541,-0.001 -0.10813,-0.003 -0.16224,-0.004 z m -6.38374,16.80092 c -1.93393,-0.0523 -4.15539,0.42456 -6.42743,1.53317 -2.57485,1.25635 -3.09429,1.40164 -6.08735,1.70179 -6.16713,0.61847 -9.07199,2.5664 -9.07199,6.08429 0,0.68762 -0.0561,0.75394 -1.05211,1.24127 -4.92914,2.41161 -5.83235,8.47787 -2.29999,15.44864 0.43322,0.85482 0.50558,1.25534 0.52758,2.92914 0.0331,2.52313 1.55204,5.09091 3.36888,6.1582 -1.75386,-1.11478 -3.19613,-3.61703 -3.22836,-6.0746 -0.005,-0.3907 -0.0278,-0.6209 -0.0465,-0.88679 0.0177,-0.0817 0.0299,-0.1644 0.0399,-0.2475 0.004,-0.0683 0.0226,-0.13505 0.0383,-0.20145 0.0207,-0.0836 0.0487,-0.1651 0.0737,-0.2475 0.0281,-0.0778 0.0446,-0.16207 0.0803,-0.23687 0.0345,-0.0875 0.0759,-0.17161 0.11572,-0.25671 0.0434,-0.0873 0.0819,-0.17779 0.12918,-0.26309 0.0514,-0.0962 0.11632,-0.18426 0.17972,-0.27276 0.0514,-0.0677 0.0969,-0.1393 0.14264,-0.2109 0.0453,-0.0709 0.0808,-0.13974 0.11005,-0.20664 1.7134,-1.99465 4.10039,-1.38023 5.90575,1.53624 0.53404,0.8627 0.80102,0.97913 1.33172,0.58026 0.23381,-0.17606 0.35688,-0.68922 0.45108,-1.88459 0.11133,-1.41195 0.24723,-1.87607 0.96378,-3.2933 1.26365,-2.4993 1.45582,-3.45114 1.40352,-6.94935 l -0.0451,-2.99172 0.66504,-0.15705 c 1.46463,-0.34639 6.59942,-0.38045 8.97115,-0.0666 2.93932,0.39504 4.68267,0.36983 6.27085,-0.007 l 1.26088,-0.31623 0.52664,0.63033 c 0.10175,0.12189 0.21706,0.20507 0.33795,0.27087 0.0216,0.0963 0.0521,0.19038 0.10297,0.27608 0.0409,0.0698 0.0851,0.13769 0.12587,0.20759 0.0457,0.0754 0.0725,0.16162 0.12611,0.23262 0.005,0.008 0.0122,0.0145 0.0177,0.0222 0.0697,-0.20413 0.36275,-0.36729 1.02778,-0.73541 2.26367,-1.25306 2.34567,-4.06963 0.15351,-5.28535 -0.31414,-0.17421 -0.32555,-0.28519 -0.11525,-1.12036 1.04476,-4.14913 -1.81925,-6.82581 -6.07389,-6.94084 z m -21.04241,35.0965 c 0.59693,0.37941 1.22887,0.601 1.85506,0.60151 0.0368,-0.01 0.0684,-0.0109 0.10392,-0.0186 -0.0774,-0.0385 -0.15824,-0.0648 -0.24491,-0.065 -0.5771,-4.7e-4 -1.15899,-0.19183 -1.71407,-0.51791 z m 1.95898,0.58286 c 0.3484,0.17312 0.59064,0.70369 0.59064,1.37565 0,0.40444 0.0466,0.64673 0.15658,0.83106 0.15674,0.0742 0.30488,0.16517 0.45414,0.25317 0.0623,0.0341 0.20592,0.12338 0.27702,0.12138 0.0593,0.0114 0.11842,0.025 0.17736,0.0383 0.16066,-1.33321 -0.11112,-2.95532 -1.65574,-2.61952 z m 24.09152,-21.59717 c -0.0588,0.17295 0.0403,0.37489 0.23356,0.75974 1.20522,2.39979 2.10333,5.66609 2.59473,9.00657 0.51005,7.56925 0.50693,7.61497 -0.24821,12.95051 -0.63483,2.18817 -1.59051,5.43164 -2.89867,7.38342 2.93822,-4.36266 4.41973,-9.0874 4.22497,-14.44613 -0.0944,-2.37643 -0.34165,-4.35976 -0.98197,-6.14663 -0.49798,-3.21938 -1.3721,-6.31949 -2.54986,-8.66461 -0.16407,-0.32669 -0.25609,-0.52112 -0.2449,-0.67897 -0.0477,-0.0508 -0.0892,-0.10705 -0.12965,-0.1639 z m -0.31859,30.10024 c -0.62896,0.89274 -1.51309,1.62478 -2.65212,2.19608 -1.03401,0.44241 -2.076,0.63167 -3.12609,0.56774 0.96295,0.39436 1.81029,0.20771 2.51089,0.0338 0.62799,-0.2119 1.50657,-0.17776 3.26732,-2.79759 z m -5.77821,2.76382 c -2.4e-4,-10e-5 -4.7e-4,-1.4e-4 -7.1e-4,-2.4e-4 v 2.4e-4 c 2.3e-4,1e-5 4.7e-4,-2e-5 7.1e-4,0 z m -7.1e-4,0 c -0.0409,-0.0381 -0.27477,-0.0153 -0.51437,-0.0354 -0.26658,-0.0295 -0.27301,-0.0303 -0.5819,-0.0737 -2.09873,-0.40034 -4.44496,-1.2973 -7.26935,-3.00022 -0.64713,-0.39018 -1.03454,-0.59484 -1.25994,-0.62891 l -4.7e-4,2.4e-4 c -0.2254,-0.0341 -0.28883,0.10229 -0.28883,0.39463 0,1.44146 4.2588,4.35092 7.66611,5.2374 0.21618,0.0562 0.2809,0.069 0.43241,0.12162 0.16473,0.0527 0.1482,0.0474 0.35425,0.12092 0.34338,0.12856 0.32829,0.1562 0.43478,0.23357 0.0839,0.0957 0.0975,0.3755 0.16366,0.3566 0.17861,0.38991 0.43066,0.88609 0.44658,1.0762 0.11108,1.32609 0.12679,2.37041 -0.29308,3.63975 -0.41988,1.26934 -1.41139,2.35247 -2.04234,2.6722 -4.05136,2.05298 -12.54917,-1.18171 -16.48445,-6.27464 -0.12504,-0.16183 -0.59186,-1.18601 -0.35978,-2.08092 -1.06719,-0.11215 -1.70514,0.33933 -2.32839,0.81864 0.85315,0.0419 1.74635,-0.58967 1.65456,0.0875 0.37342,0.92465 0.53539,1.43508 0.60946,1.60015 2.06818,4.6093 11.29552,8.66969 16.33378,7.18763 1.96923,-0.57927 2.99541,-2.17139 3.41563,-4.21504 0.0679,-0.29554 0.43485,-2.5844 0.52901,-3.01392 0.0942,-0.42953 2.43871,0.48336 2.07281,0.19837 -2.0436,-1.59172 -2.55061,-1.73552 -3.32519,-2.39115 -0.0189,-0.79289 -0.02,-0.80639 0.27608,-1.58726 z m 6.87307,-26.47937 c -0.23997,0.0418 -0.66296,0.28162 -1.61796,0.82586 -1.72887,0.98524 -2.64453,1.23598 -3.10768,0.85161 -0.26146,-0.217 -0.35006,-0.20011 -0.57789,0.11147 -1.11545,1.52547 0.87425,1.69183 3.67069,0.30654 1.78739,-0.88543 2.38916,-1.44546 2.02511,-1.88412 -0.0743,-0.0895 -0.13081,-0.15649 -0.20051,-0.19129 -0.0523,-0.0262 -0.11176,-0.034 -0.19176,-0.0201 z m -13.89563,0.59537 c -0.62056,-0.033 -0.86153,0.11064 -0.86153,0.4232 0,0.70991 6.39127,2.28373 6.96092,1.71408 0.50206,-0.50206 0.0907,-0.7108 -2.96172,-1.50177 -1.51741,-0.3932 -2.51712,-0.60251 -3.13767,-0.63551 z m 11.9905,3.05288 c -0.68602,-0.0464 -1.0326,1.08912 -0.58049,2.66558 0.43376,1.51246 1.10346,1.94788 1.66873,1.08517 0.47758,-0.72888 0.29989,-2.63816 -0.30583,-3.28291 -0.28706,-0.30557 -0.55374,-0.45234 -0.78241,-0.46784 z m -8.59636,0.57577 c -0.89988,0.012 -1.45172,2.16793 -0.77981,3.77602 0.35127,0.84063 1.18796,0.88332 1.59269,0.0775 0.49906,-0.99143 0.2472,-3.28108 -0.4088,-3.7191 -0.14022,-0.0937 -0.27552,-0.13638 -0.40408,-0.13438 z m 5.1179,0.0827 c -0.65966,0 -0.38893,1.04042 0.96072,3.6943 1.76033,3.46141 1.71599,4.91032 -0.15044,4.91032 -0.76298,0 -1.11988,0.43195 -0.70212,0.84971 0.38406,0.38382 0.87119,0.39658 1.7351,0.0319 1.99675,-0.8343 0.31558,-9.48622 -1.84326,-9.48622 z m -21.41838,2.92347 c -0.43353,0.0732 -0.25869,0.63623 0.69621,1.32228 0.63847,0.45869 1.07409,0.97593 1.39006,1.65054 0.53901,1.1508 1.08305,1.26665 1.03345,0.22011 -0.0457,-0.96352 -0.99288,-2.33982 -1.96252,-2.85191 -0.38983,-0.20588 -0.70426,-0.31282 -0.93426,-0.34102 -0.0862,-0.0106 -0.161,-0.0105 -0.22294,0 z m 21.04642,9.18133 c -0.25749,-0.003 -0.52172,0.0101 -0.78925,0.0418 -2.06742,0.24485 -5.10778,2.51994 -4.44106,3.32329 0.31444,0.37887 0.23197,0.41441 1.35085,-0.57931 2.35045,-2.08754 5.2922,-2.45156 6.1941,-0.76635 0.35044,0.65487 0.96213,0.63333 0.96213,-0.034 0,-1.11697 -1.47438,-1.96163 -3.27677,-1.98543 z m -37.98431,0.16484 c -0.0426,0.0316 -0.09,0.0499 -0.13343,0.0796 0.0503,0.13887 0.0958,0.27929 0.14382,0.41895 -0.005,-0.1662 -0.005,-0.33236 -0.0104,-0.49854 z m 60.11095,3.1065 v 2.3e-4 c -1.32059,0.18205 -2.43915,0.73343 -3.4213,1.38676 -1.13608,1.04763 -1.7987,2.30106 -1.98779,3.76043 0.0486,0.04 0.11156,0.28181 0.17122,0.74533 0.20881,1.62317 0.32785,2.33932 0.45792,2.67408 l -0.0125,2.4e-4 c 0.0109,0.88568 0.35652,1.68394 1.03699,2.39493 l 0.21585,-0.40148 c -1.01037,1.76409 -0.84283,3.73545 1.51405,4.7117 0.56624,0.23455 0.57765,0.26775 0.57765,1.63544 0,2.48416 1.07569,4.75212 1.87491,3.9529 0.15367,-0.15367 0.0582,-0.50457 -0.34787,-1.27646 -0.70121,-1.33302 -0.77285,-3.45578 -0.18799,-5.56496 0.44287,-1.59716 0.56753,-1.70535 2.33826,-2.0218 1.09529,-0.19574 1.35877,-0.3094 1.31047,-0.56419 -0.088,-0.4645 -0.80654,-0.45781 -2.65755,0.0274 l -1.63401,0.42746 -0.0279,0.87003 c -0.0632,1.95749 -0.53724,2.30358 -1.64181,1.199 -2.54722,-2.54721 0.0105,-5.48966 5.02084,-5.77633 2.05595,-0.11764 2.72209,-0.37875 1.83452,-0.71935 -0.69964,-0.26848 -1.4112,-0.38379 -2.10989,-0.37479 -2.43623,0.0314 -4.71559,1.56907 -5.79734,3.35021 l 0.0135,-0.0248 c -0.56506,-0.53092 -0.86081,-1.14923 -0.88727,-1.85483 0,-2.44694 2.17337,-3.56534 7.412,-3.81522 2.30491,-0.10994 3.25077,-0.34814 2.87529,-0.72361 -0.0614,-0.0613 -0.41266,-0.10236 -1.00417,-0.12186 l 2.4e-4,2.4e-4 v 4.7e-4 c -0.5919,-0.0195 -1.42454,-0.01 -2.44808,0.008 -3.62344,0.0908 -4.16547,0.23475 -5.91778,1.5745 -1.16973,0.89432 -1.18624,0.89087 -1.05117,-0.24962 0.0366,-0.30857 0.10622,-0.57746 0.18586,-0.83484 0.25212,-0.7539 0.55601,-1.45428 1.14351,-2.00669 0.88133,-0.67531 1.97965,-1.00945 3.1353,-1.23513 -4e-5,2.5e-4 -1.9e-4,4.6e-4 -2.3e-4,7.1e-4 -4e-4,0.002 -9.5e-4,0.004 -9.5e-4,0.007 0.61138,-0.0964 1.27111,-0.17206 2.0499,-0.2057 0.68118,-0.0295 1.6139,-0.0183 2.04973,0.002 -0.0194,-0.15772 -0.21276,-0.51319 -0.21276,-0.67178 l -0.0756,-10e-4 -1.91151,-0.0527 c -0.74224,-0.0206 -1.30334,-0.0732 -1.61228,-0.13367 -0.0777,-0.0188 -0.1345,-0.0411 -0.27018,-0.0985 z m -18.7384,5.98958 c -0.01,0.01 -0.0109,0.0127 -0.0144,0.0213 0.005,-0.006 0.009,-0.0139 0.0144,-0.0213 z m 14.19769,7.03507 c -0.004,0.0576 -0.009,0.11509 -0.0139,0.17264 0.005,0.014 0.009,0.028 0.0139,0.042 z m -8.26502,12.64113 c -0.36661,-0.0211 -0.44819,2.57518 -0.60836,12.71198 -0.052,3.29067 -0.16363,7.82728 -0.26143,12.1022 0.27641,-0.0893 0.56188,-0.14391 0.85255,-0.16507 0.29468,-0.41838 0.6039,-23.74819 0.32095,-24.27691 -0.11944,-0.22318 -0.21911,-0.36732 -0.30371,-0.3722 z m 8.49504,4.30101 c -0.34918,0 -1.4109,4.67948 -2.04187,8.99996 l -0.28363,1.94221 -1.56317,2.07635 c -0.85968,1.14191 -1.56269,2.24734 -1.56269,2.45658 0,0.7217 0.58453,0.37695 1.48617,-0.87641 1.2094,-1.68116 1.19584,-1.70502 1.07691,1.89545 -0.075,2.27161 -0.0389,3.27368 0.12965,3.58851 0.47941,0.89577 0.63392,0.31189 0.68582,-2.59001 0.0522,-2.92176 0.77948,-8.53558 1.65929,-12.80597 0.50151,-2.43416 0.70038,-4.68667 0.41352,-4.68667 z m -42.2662,0.38613 c -0.53558,0 -0.84104,2.424 -1.36479,10.82834 -0.169,2.71186 -0.35598,5.31341 -0.41588,5.78105 l -0.10911,0.84995 -3.89953,-0.11619 c -4.13513,-0.12315 -6.68876,-0.43313 -9.9902,-1.21247 -1.05571,-0.24921 -1.89214,-0.42772 -2.05981,-0.44493 0.0241,0.0831 0.0497,0.16564 0.0708,0.24963 0.0261,0.11014 0.0396,0.22269 0.0486,0.33535 0.001,0.0579 0.0161,0.11425 0.0274,0.17075 0.007,0.0358 0.0133,0.0717 0.0187,0.10792 l 1.00558,0.31316 c 2.70721,0.84258 7.99942,1.50396 12.06324,1.50696 2.68764,0.002 2.47482,-0.73907 1.88411,6.5866 -0.26964,3.34403 -0.66532,8.42927 -0.87947,11.30066 -0.17546,2.35258 -0.28907,3.70955 -0.3559,4.43586 h 0.17759 0.78407 c 0.028,-1.14278 0.4357,-6.61559 1.13524,-15.16926 0.21309,-2.60552 0.38784,-5.17435 0.38872,-5.70902 8.7e-4,-0.53466 0.12379,-1.14642 0.27277,-1.35912 0.19249,-0.27482 0.36399,-1.86766 0.5923,-5.50521 0.17669,-2.81529 0.44599,-6.51079 0.59844,-8.21235 0.35648,-3.9645 0.33989,-4.73768 0.009,-4.73768 z"
       transform="translate(-3.6477201e-5,-1.3120152e-4)"
       sodipodi:nodetypes="ccccscccsccscccccccccccccscsccscccccccccccccsssscccccccccccccccccccsccccccccccccccsccsccccccscsscsccccsccccsssscccssssscsssccccccssscccccscscsccsscsccccccccccccccssscsscccccssscccscccccsccccccccccccccccccccccccscsscssscccsssscccsccccccssscccsssscsscsssscsc" /></g></svg>
