<?xml version="1.0" encoding="UTF-8" standalone="no"?>
<!-- Created with Inkscape (http://www.inkscape.org/) -->

<svg
   width="793.70081"
   height="1122.5197"
   viewBox="0 0 210 296.99999"
   version="1.1"
   id="svg1"
   xml:space="preserve"
   sodipodi:docname="melancholic.svg"
   inkscape:version="1.4 (86a8ad7, 2024-10-11)"
   xmlns:inkscape="http://www.inkscape.org/namespaces/inkscape"
   xmlns:sodipodi="http://sodipodi.sourceforge.net/DTD/sodipodi-0.dtd"
   xmlns="http://www.w3.org/2000/svg"
   xmlns:svg="http://www.w3.org/2000/svg"><sodipodi:namedview
     id="namedview1"
     pagecolor="#505050"
     bordercolor="#eeeeee"
     borderopacity="1"
     inkscape:showpageshadow="0"
     inkscape:pageopacity="0"
     inkscape:pagecheckerboard="0"
     inkscape:deskcolor="#505050"
     inkscape:document-units="px"
     inkscape:zoom="0.12236355"
     inkscape:cx="-543.4625"
     inkscape:cy="232.9125"
     inkscape:window-width="1920"
     inkscape:window-height="991"
     inkscape:window-x="-9"
     inkscape:window-y="-9"
     inkscape:window-maximized="1"
     inkscape:current-layer="g138" /><defs
     id="defs1"><filter
       id="mask-powermask-path-effect16_inverse"
       inkscape:label="filtermask-powermask-path-effect16"
       style="color-interpolation-filters:sRGB"
       height="100"
       width="100"
       x="-50"
       y="-50"><feColorMatrix
         id="mask-powermask-path-effect16_primitive1"
         values="1"
         type="saturate"
         result="fbSourceGraphic" /><feColorMatrix
         id="mask-powermask-path-effect16_primitive2"
         values="-1 0 0 0 1 0 -1 0 0 1 0 0 -1 0 1 0 0 0 1 0 "
         in="fbSourceGraphic" /></filter><pattern
       patternUnits="userSpaceOnUse"
       width="229.96177"
       height="235.18179"
       patternTransform="translate(1865.9072,1529.9658)"
       preserveAspectRatio="xMidYMid"
       id="pattern16"><path
         style="fill:#f06338;fill-opacity:1;stroke:none;stroke-width:0.495347;stroke-linecap:round;stroke-linejoin:round;paint-order:stroke fill markers"
         id="path9216"
         sodipodi:type="arc"
         sodipodi:cx="114.98088"
         sodipodi:cy="117.59088"
         sodipodi:rx="114.98088"
         sodipodi:ry="117.59088"
         sodipodi:start="0"
         sodipodi:end="6.272498"
         sodipodi:open="true"
         sodipodi:arc-type="arc"
         d="M 229.96176,117.59088 A 114.98088,117.59088 0 0 1 115.28809,235.18134 114.98088,117.59088 0 0 1 0.00164161,118.21924 114.98088,117.59088 0 0 1 114.05926,0.00377746 114.98088,117.59088 0 0 1 229.9552,116.33418"
         mask="none" /><path
         id="path9215"
         style="fill:#222b00;fill-opacity:1;stroke:none;stroke-width:1.87218;stroke-linecap:round;stroke-linejoin:round;paint-order:stroke fill markers"
         d="m 160.96536,89.201313 c -7.30961,-0.197291 -15.70542,1.604788 -24.29296,5.794923 -9.73175,4.748409 -11.69351,5.297194 -23.00587,6.431664 -23.308835,2.33752 -34.287115,9.70204 -34.287115,22.99804 0,2.59888 -0.212031,2.8495 -3.976554,4.69138 -18.629821,9.11471 -22.044019,32.04057 -8.693367,58.38675 1.637065,3.23085 1.909039,4.74602 1.992189,11.07223 0.163276,12.44973 9.89246,25.22487 19.212888,25.23243 1.801285,0.001 3.158211,2.33912 3.158211,5.44335 0,1.62373 0.189354,2.56048 0.667956,3.26956 a 114.98089,117.59088 0 0 0 23.240242,2.66015 114.98089,117.59088 0 0 0 77.14843,-30.91601 c 0.74574,-19.99366 -3.68307,-43.6995 -11.35154,-58.96876 -1.59323,-3.17234 -1.64194,-3.07978 3.00192,-5.65039 8.55561,-4.73598 8.86349,-15.38366 0.57816,-19.97851 -1.1873,-0.65843 -1.23039,-1.07784 -0.43556,-4.23439 3.94878,-15.682055 -6.87594,-25.798036 -22.95703,-26.232417 z m -0.88283,0.150425 c 6.48631,-0.17537 11.62866,1.888366 16.36135,6.16407 5.76971,5.212722 8.78083,16.360402 5.8828,21.775412 -0.70186,1.31142 -0.56206,1.74485 0.91408,2.84375 4.92729,3.66803 5.68675,4.47145 6.12888,6.48435 1.71855,7.82456 -8.25215,16.99755 -12.69336,11.67775 l -1.99022,-2.38476 -4.76368,1.19531 c -6.00257,1.50724 -12.59388,1.51495 -23.70312,0.0265 -8.96402,-1.20027 -28.37064,-1.05634 -33.90625,0.25209 l -2.51172,0.59376 0.16781,11.30665 c 0.19804,13.22158 -0.52868,16.81946 -5.30468,26.26564 -2.70822,5.35646 -3.21986,7.11076 -3.64063,12.44727 -0.35641,4.51793 -0.82334,6.45758 -1.707027,7.12301 -2.005795,1.50754 -3.012812,1.06726 -5.031231,-2.19334 -6.864907,-11.08989 -15.959509,-13.3951 -22.443364,-5.68947 -2.589128,3.07699 -2.92388,2.90014 -5.533228,-2.93552 -11.703232,-26.17384 -7.244977,-48.26045 11.062526,-54.81445 1.507313,-0.53961 2.756485,-1.1621 2.775382,-1.38282 0.0189,-0.22072 0.191244,-2.20562 0.382829,-4.41018 1.116888,-12.85432 11.232567,-19.25953 33.484343,-21.20115 11.14848,-0.97281 10.87616,-0.89862 21.63871,-5.876972 10.1122,-4.677543 17.94334,-7.091981 24.42965,-7.267578 z M 183.0181,166.3166 c 0.26344,0.13153 0.47717,0.38453 0.7578,0.72265 1.37594,1.65792 -0.89881,3.77265 -7.6543,7.11915 -10.56922,5.23574 -18.08893,4.60929 -13.87306,-1.15627 0.86109,-1.17762 1.19543,-1.24203 2.18362,-0.42187 1.75049,1.45274 5.21178,0.50498 11.7461,-3.21876 4.81262,-2.74257 6.04905,-3.43907 6.83984,-3.0449 z m -53.24417,2.17383 c 2.34543,0.12473 6.12628,0.91624 11.86133,2.40235 11.53667,2.98949 13.08896,3.77627 11.19141,5.67382 -2.15301,2.15301 -26.30857,-3.79343 -26.30857,-6.47656 0,-1.18136 0.91045,-1.72425 3.25583,-1.59961 z m 45.31839,11.53905 c 0.86427,0.0586 1.87208,0.6127 2.95703,1.76757 2.28933,2.43686 2.96126,9.65341 1.15623,12.40823 -2.13645,3.26064 -4.66722,1.6148 -6.30663,-4.10158 -1.70876,-5.95827 -0.39946,-10.24974 2.19337,-10.07422 z m -32.49025,2.1758 c 0.48589,-0.008 0.9993,0.15383 1.52931,0.50778 2.47937,1.65551 3.42916,10.30953 1.54295,14.05667 -1.52969,3.03889 -4.68994,2.88442 -6.01757,-0.29291 -2.53947,-6.07783 -0.45581,-14.22603 2.94531,-14.27146 z m 19.34377,0.31257 c 8.1594,0 14.51354,32.70024 6.96677,35.8535 -3.26518,1.36434 -5.10702,1.33047 -6.55858,-0.12094 -1.57894,-1.57894 -0.22942,-3.21094 2.65429,-3.21094 7.05422,0 7.22158,-5.47608 0.56836,-18.55857 -5.10104,-10.03042 -6.12404,-13.9629 -3.63084,-13.9629 z m -80.109392,11.0488 c 0.869292,0.10659 2.057877,0.51096 3.531251,1.28909 3.664781,1.93546 7.245241,7.13764 7.417965,10.77929 0.187465,3.95542 -1.869052,3.51745 -3.906255,-0.83203 -1.194217,-2.54971 -2.840769,-4.50467 -5.253884,-6.2383 -4.124674,-2.96337 -4.396951,-5.31821 -1.789077,-4.99805 z m 11.429707,32.43557 c 0.401991,0 0.73047,0.98559 0.73047,2.19141 0,1.20586 -0.328441,2.19333 -0.73047,2.19333 -0.40199,0 -0.730469,-0.98747 -0.730469,-2.19333 0,-1.20582 0.328441,-2.19141 0.730469,-2.19141 z"
         mask="none" /></pattern><filter
       id="mask-powermask-path-effect12_inverse"
       inkscape:label="filtermask-powermask-path-effect12"
       style="color-interpolation-filters:sRGB"
       height="100"
       width="100"
       x="-50"
       y="-50"><feColorMatrix
         id="mask-powermask-path-effect12_primitive1"
         values="1"
         type="saturate"
         result="fbSourceGraphic" /><feColorMatrix
         id="mask-powermask-path-effect12_primitive2"
         values="-1 0 0 0 1 0 -1 0 0 1 0 0 -1 0 1 0 0 0 1 0 "
         in="fbSourceGraphic" /></filter></defs><g
     id="g138"
     transform="matrix(2.3027344,0,0,2.3027344,-476.27018,-988.39918)"><path
       id="path135"
       style="display:none;fill:#7ab890;fill-opacity:1;stroke:none;stroke-width:0.734458;stroke-linecap:round;stroke-linejoin:round;paint-order:stroke fill markers"
       d="m 253.33712,429.24325 c -18.42097,-0.61046 -32.75159,17.79803 -32.88534,36.78638 a 33.007187,38.120911 0 0 0 2.54352,13.66067 c 1.03071,2.54571 2.38468,5.01569 4.09691,7.3582 l 0.96428,1.31982 -0.43098,0.37155 a 33.007187,38.120911 0 0 0 0.1173,0.17932 c 0.45049,-0.42677 0.74504,-0.72855 1.25574,-1.20561 4.09095,-3.82152 5.43823,-5.8485 7.67912,-11.55537 4.42186,-11.26116 10.70568,-16.94846 19.16524,-17.34519 12.9788,-0.60868 22.42076,11.94316 18.44693,24.52253 l -0.48162,1.52549 0.5674,0.82527 c 1.19148,1.73175 1.61604,3.27406 1.77354,7.01663 a 33.007187,38.120911 0 0 0 0.38292,-0.43667 v -0.17208 l 0.86868,-0.84181 a 33.007187,38.120911 0 0 0 9.01547,-26.1767 l -5.1e-4,-0.10232 c -1.28619,-15.73943 -11.80959,-31.46171 -27.88926,-35.06194 -1.75923,-0.39389 -3.49136,-0.6119 -5.18934,-0.66817 z" /><path
       id="path136"
       style="display:none;fill:#4a8a61;stroke-width:0.990106"
       d="m 262.67134,488.85181 c 6.5e-4,0.0199 0.001,0.0395 0.002,0.0594 0.004,-0.0152 0.009,-0.0293 0.0124,-0.0449 -0.005,-0.005 -0.009,-0.01 -0.014,-0.0145 z m -26.35601,12.74857 c -0.86531,0.39341 -1.79635,0.76983 -2.88355,1.1157 -5.64156,1.79467 -10.55275,5.86204 -11.7352,9.71723 -0.0593,0.19337 -0.13144,0.30292 -0.20825,0.38137 -0.01,0.0151 -0.0239,0.0278 -0.0351,0.0419 -0.01,0.0126 -0.0168,0.0284 -0.0248,0.0419 -0.0304,0.0474 -0.0575,0.0968 -0.0796,0.14624 -0.007,0.0174 -0.0124,0.0351 -0.0186,0.0527 -0.001,0.0142 -0.003,0.0287 -0.005,0.0429 -0.0156,0.0699 -0.0259,0.13802 -0.0403,0.20722 -0.0163,0.0626 -0.0301,0.12412 -0.0481,0.18552 -0.0152,0.0464 -0.0329,0.0918 -0.0429,0.13746 -0.007,0.0433 -0.0212,0.0849 -0.0346,0.12454 -0.003,0.009 -0.007,0.0172 -0.0103,0.0253 l -5.2e-4,0.002 -0.37,1.26865 c -1.65305,5.66651 -1.40792,19.06728 0.56896,31.12833 1.37869,8.41154 3.89699,10.86021 12.18065,11.84218 4.06624,0.48199 20.74721,-0.32851 25.08374,-1.20458 -0.0568,-0.0492 -0.073,-0.11524 -0.0481,-0.17467 -0.003,-0.18228 0.087,-0.5464 0.29559,-1.1281 0.7151,-1.99446 0.40362,-6.47052 -0.55811,-8.02069 -0.35139,-0.56651 -0.3622,-0.5686 -4.19922,-1.09348 -2.1159,-0.28928 -6.96528,-0.99493 -10.77609,-1.56734 l -6.92878,-1.04077 -1.56734,0.38913 c -3.5074,0.86945 -3.19648,-0.0667 0.34313,-1.03198 1.27735,-0.34873 1.53885,-0.48497 1.50275,-0.78083 -0.4958,-4.05473 -2.1832,-24.29725 -2.0531,-24.62951 0.0712,-0.18186 0.21498,-0.26992 0.35915,-0.26613 0.14417,0.004 0.28901,0.0999 0.36173,0.28577 0.0635,0.1621 0.37819,3.38203 0.6997,7.15564 0.32152,3.77327 0.80108,9.14105 1.06557,11.92847 0.2645,2.78725 0.48169,5.21814 0.48369,5.40225 0.006,0.72119 0.33835,0.81255 6.00325,1.66347 13.80603,2.0737 14.841,2.27408 15.39234,2.97087 0.0751,0.0964 0.13334,0.25525 0.19792,0.39119 0.01,0.004 0.0197,0.008 0.0295,0.0124 0.0921,0.0434 0.17933,0.0962 0.27543,0.12867 0.0748,0.0265 0.15395,0.0376 0.23255,0.0455 0.098,0.004 0.19505,0.0139 0.29145,0.032 0.0221,0.005 0.0446,0.0101 0.0667,0.0145 0.38988,-0.0647 1.13594,0.0278 2.53524,0.17725 1.35268,0.14464 2.27408,0.23431 2.63188,0.26304 0.0173,-0.004 0.0359,-0.006 0.0558,-0.007 0.0373,-0.002 0.079,0.003 0.12506,0.0139 0.0667,0.016 0.13676,0.0183 0.20516,0.0233 0.0932,0.006 0.18668,0.008 0.28008,0.0103 0.0145,1.1e-4 0.0289,4.1e-4 0.0434,5.2e-4 -1.94483,-4.57354 -3.48166,-12.16192 -6.03064,-27.86497 -0.36384,-2.24162 -0.83595,-4.90252 -1.04903,-5.91385 -0.54139,-2.5693 -0.61167,-4.5117 -0.10542,-6.2084 0.0337,-0.21927 0.0985,-0.40667 0.18655,-0.56069 0.0722,-0.18596 0.14997,-0.3704 0.23668,-0.55191 -0.0293,-2e-5 -0.06,2e-5 -0.0894,0 -0.30089,-9.4e-4 -0.60239,0.001 -0.9033,-0.002 -0.41566,0.12329 -0.90414,0.14802 -1.43609,0.10542 -0.003,0.007 -0.006,0.0139 -0.009,0.0212 -0.0874,0.2006 -0.16494,0.40413 -0.25994,0.60151 -0.0973,0.19933 -0.19988,0.39766 -0.31316,0.5886 -0.0963,0.16261 -0.19469,0.32219 -0.29249,0.48369 -0.0934,0.14875 -0.19881,0.29259 -0.32142,0.41961 -0.13358,0.14784 -0.25596,0.30398 -0.43874,0.39894 -0.0592,0.0304 -0.11999,0.0585 -0.1819,0.0832 -0.85445,0.85247 -2.46787,1.76403 -4.49223,2.27893 -4.27996,1.08926 -9.89311,-2.13689 -13.21211,-7.59488 -0.93418,-1.53634 -1.16965,-1.99146 -0.71365,-2.3828 -0.0716,-0.10671 -0.14317,-0.21224 -0.21394,-0.31936 z m 32.90497,6.19291 c -0.20457,0.33768 -0.41996,0.68758 -0.5302,0.91053 l -0.76016,1.53479 0.59066,1.45573 c 0.89738,2.21441 1.27859,1.8638 -4.48293,4.12068 -1.05722,0.41402 -1.77804,0.70244 -2.30425,0.84904 -0.10467,0.0548 -0.21407,0.0994 -0.32763,0.13436 -0.14852,0.0494 -0.29829,0.0904 -0.45217,0.11782 -0.1613,0.0338 -0.32325,0.0526 -0.48834,0.0496 -0.0624,0.003 -0.12482,0.006 -0.18707,0.0124 0.0135,0.0609 0.0309,0.13616 0.0372,0.14625 0.0599,0.0966 0.41662,2.07418 0.7922,4.39766 4.00592,24.78277 6.22844,31.02512 12.00547,33.71578 0.68491,0.31877 1.1969,0.61033 1.31465,0.72967 h 5.2e-4 c 0.005,0.002 0.0111,0.004 0.017,0.009 0.01,0.007 0.0189,0.0153 0.0279,0.0233 0.003,0.005 0.0421,0.0259 0.0424,0.03 1.7e-4,0.002 -0.002,0.003 -0.002,0.005 0.007,0.006 0.014,0.0128 0.0207,0.0186 0.007,0.006 0.0142,0.0122 0.0202,0.0181 0.009,0.009 0.0173,0.0187 0.0243,0.0289 0.008,0.0112 0.0147,0.0229 0.0217,0.0346 0.009,0.014 0.0163,0.0287 0.0243,0.0434 0.005,0.009 0.01,0.0172 0.0145,0.0258 0.002,0.002 0.004,0.004 0.006,0.007 0.0102,0.0134 0.0213,0.0263 0.0326,0.0387 0.0112,0.0129 0.0242,0.024 0.0362,0.0362 0.0142,0.0141 0.0264,0.0298 0.0372,0.0465 0.0102,0.0171 0.0211,0.0339 0.0325,0.0501 0.0107,0.0155 0.0229,0.0296 0.0357,0.0434 0.0131,0.0143 0.0265,0.0288 0.0393,0.0434 0.008,0.008 0.0142,0.0173 0.0222,0.0253 0.006,0.006 0.0126,0.0106 0.0196,0.0145 0.012,0.007 0.0226,0.0147 0.0326,0.0248 0.008,0.01 0.0174,0.0189 0.0274,0.0279 0.0109,0.01 0.0223,0.0189 0.0336,0.0279 0.009,0.007 0.0179,0.0152 0.0269,0.0212 0.009,0.007 0.0195,0.0121 0.0294,0.0181 0.0118,0.007 0.0236,0.0127 0.0357,0.0186 0.008,0.004 0.0165,0.009 0.0248,0.0124 5.03489,0.65278 9.87517,-3.32232 9.60303,-10.99984 -0.1484,-4.1866 -0.57133,-5.69767 -4.87567,-17.43046 -1.09589,-2.98722 -1.64612,-4.6891 -1.73219,-5.31286 -0.0234,-0.063 -0.047,-0.12427 -0.0708,-0.18603 -0.0324,-0.0924 -0.0564,-0.18391 -0.0837,-0.27647 -0.0341,-0.10933 -0.0798,-0.21388 -0.12971,-0.31729 -0.051,-0.1088 -0.105,-0.21617 -0.1602,-0.32298 -0.0303,-0.0621 -0.0595,-0.12397 -0.0796,-0.18914 -0.19805,-0.28681 -0.44253,-0.80477 -0.8046,-1.70119 -2.28806,-5.66451 -4.83041,-10.12431 -6.47971,-11.36674 -0.33204,-0.25035 -0.53465,-0.41225 -0.61857,-0.59842 -0.007,-0.005 -0.0142,-0.009 -0.0212,-0.0124 -0.0211,-0.0136 -0.0417,-0.0282 -0.0651,-0.0372 -0.0223,-0.01 -0.0443,-0.0188 -0.0682,-0.0248 -0.0307,-0.0105 -0.06,-0.0236 -0.0894,-0.0372 -0.0331,-0.0136 -0.0674,-0.023 -0.10232,-0.031 -0.0369,-0.007 -0.074,-0.0125 -0.11162,-0.0129 z m 8.34419,3.30212 c 5.8e-4,0.003 0.001,0.006 0.002,0.009 0.003,6.1e-4 0.006,0.001 0.008,0.002 -0.003,-0.004 -0.007,-0.007 -0.0103,-0.0109 z m -18.27899,0.87281 c 2.4e-4,6.5e-4 10e-4,9.7e-4 10e-4,0.002 -8e-5,-5.7e-4 -4.4e-4,-9.7e-4 -5.2e-4,-0.002 z m 10e-4,0.002 c 0.004,0.0285 0.0127,0.0701 0.017,0.0987 -4.1e-4,-0.0207 -5.5e-4,-0.0412 -0.002,-0.062 -0.004,-0.0126 -0.0106,-0.0242 -0.015,-0.0367 z m 10.30789,1.63556 v 5.2e-4 c 0.324,0.0699 0.87377,1.07061 2.5151,4.46174 1.03437,2.13742 2.35772,4.86721 2.94039,6.0663 3.63764,7.48487 7.64925,17.26696 7.30498,17.81286 -0.38254,0.6069 -0.68778,0.12789 -1.74615,-2.7435 -1.62811,-4.41721 -4.76456,-11.41332 -8.81807,-19.66908 -2.37517,-4.83764 -2.70445,-5.67415 -2.32337,-5.90507 0.0396,-0.0244 0.0808,-0.0338 0.12712,-0.0238 z m 8.53798,7.80883 c -10e-4,0.004 -0.003,0.008 -0.004,0.0114 0.005,0.0103 0.01,0.0207 0.0145,0.031 -0.003,-0.0141 -0.007,-0.0278 -0.0103,-0.0419 z M 267.45861,551.204 v 5.2e-4 c 0.004,0.005 0.008,0.0107 0.0114,0.016 -10e-4,-0.002 -0.003,-0.003 -0.003,-0.006 -8e-5,-0.003 0.006,5.7e-4 0.008,10e-4 -1.1e-4,-2.7e-4 1.1e-4,-9.8e-4 0,-10e-4 -0.002,-0.002 -0.009,-0.005 -0.0165,-0.0103 z m -7.50807,3.02204 c -0.003,0.0134 -0.005,0.0274 -0.008,0.0408 -0.005,0.0206 -0.008,0.0413 -0.0124,0.062 0.004,-8.3e-4 0.009,-10e-4 0.0129,-0.002 7.3e-4,-0.0168 4.1e-4,-0.0334 10e-4,-0.0501 0.002,-0.0168 0.005,-0.0339 0.007,-0.0506 z m 13.01264,1.58337 c 6.9e-4,9.6e-4 0.002,0.003 0.003,0.004 0.012,0.005 0.0238,0.0107 0.0362,0.015 -0.0127,-0.006 -0.0259,-0.0124 -0.0388,-0.0191 z" /><path
       id="path137"
       style="display:none;fill:#4a8a61;fill-opacity:1"
       d="m 264.7065,469.95649 -0.72295,1.11466 c -2.72414,4.20074 -8.7097,8.30857 -15.53755,10.66291 -1.24312,0.42865 -2.45043,0.8809 -2.68253,1.00511 -0.37846,0.20255 -0.50359,0.1339 -1.21181,-0.66456 -2.22574,-2.50934 -4.64347,-0.81037 -4.63847,3.25923 0.003,2.50334 0.91631,4.0718 2.98431,5.12682 0.90982,0.46415 0.9144,0.51125 0.28009,2.8789 -1.03739,3.87225 -4.50239,8.14007 -6.6089,8.14007 -0.47257,0 -0.24974,0.70443 0.75757,2.39417 2.34328,3.93081 6.16806,6.94285 9.72292,7.65638 2.87612,0.5773 6.42922,-0.72452 8.03776,-2.94504 0.77069,-1.06392 0.7424,-1.11156 -0.65991,-1.11156 -3.21544,0 -6.52501,-2.19837 -8.1163,-5.39141 -1.08548,-2.1781 -0.76859,-3.7366 0.4346,-2.13682 3.72631,4.95454 10.90754,8.28658 12.35015,5.7304 1.00457,-1.78 2.3661,-3.07757 5.67717,-5.41052 2.7019,-1.90373 4.28671,-5.20449 5.97018,-12.4349 0.22066,-0.94769 0.44401,-1.87024 0.49661,-2.05052 0.08,-0.27402 -0.009,-0.31128 -0.54209,-0.22738 -1.34829,0.21209 -5.45018,-3.15061 -5.01313,-4.10982 0.31853,-0.6991 0.77348,-0.56523 2.44998,0.72088 0.84587,0.6489 1.90809,1.39676 2.36007,1.66192 0.45198,0.26516 0.82433,0.58255 0.82733,0.70538 0.003,0.12283 0.1005,0.0603 0.21601,-0.13849 0.56863,-0.97872 -0.2279,-3.04034 -2.80034,-7.24917 -0.88652,-1.45046 -2.15579,-3.66073 -2.82102,-4.91185 z m -5.4901,9.85779 c 1.93493,-0.0549 2.25485,1.15499 -0.0455,1.7508 -2.58085,0.66848 -5.83737,0.41425 -5.83737,-0.45579 0,-0.73092 0.36605,-0.89917 1.95543,-0.89917 0.82016,0 2.17077,-0.13036 3.00189,-0.28938 0.33941,-0.0649 0.6491,-0.0986 0.92552,-0.10646 z m -16.74885,2.9807 c 1.09417,0.19628 2.53544,3.432 1.67742,4.38009 -0.48151,0.53205 -1.25254,0.11666 -1.25315,-0.67541 -9e-5,-0.10927 -0.26085,-0.7505 -0.57981,-1.42472 -0.65406,-1.38255 -0.71017,-1.80915 -0.28422,-2.16265 0.13443,-0.11157 0.28345,-0.14535 0.43976,-0.11731 z m 10.18956,2.19521 c 0.31898,-0.0122 0.71897,0.21983 1.079,0.77618 0.74556,1.15213 1.36728,1.35032 2.61535,0.83303 2.04111,-0.846 2.63785,0.63365 0.65629,1.62729 -1.7092,0.85708 -3.92429,0.14747 -4.71031,-1.50895 -0.47822,-1.00778 -0.17197,-1.70716 0.35967,-1.72755 z m 9.98595,0.80254 c 0.46625,0.0326 0.51441,1.04838 0.0429,2.67374 -0.34648,1.19439 -0.3461,1.20381 0.11575,2.70681 0.86066,2.80082 0.72999,4.14631 -0.47439,4.89066 -1.27846,0.79013 -3.861,0.15922 -3.73775,-0.91312 0.0615,-0.53508 0.0619,-0.53537 1.60817,-0.53537 h 1.54667 l 0.062,-0.53847 c 0.034,-0.2962 -0.12053,-1.08708 -0.34364,-1.75752 -0.80986,-2.43363 -0.55329,-5.19368 0.57825,-6.21771 0.24456,-0.22131 0.44662,-0.3199 0.60203,-0.30902 z m 9.42992,0.80667 c -0.16346,0.0606 -0.019,0.47367 0.47697,1.55598 1.6578,3.61717 1.38373,9.54039 -0.55914,12.08763 -0.97103,1.27301 -1.73273,0.62573 -0.9896,-0.84077 1.03539,-2.0433 1.53388,-5.71493 1.09296,-8.05171 -0.32443,-1.71944 -0.37511,-1.66663 -1.22887,1.28364 -1.42792,4.93429 -2.66632,6.91624 -5.62033,8.99532 -4.86839,3.42645 -6.30547,6.00909 -5.641,10.1384 0.33776,2.09897 0.84557,4.57501 0.98444,4.79971 0.0958,0.15508 2.20484,-0.61506 5.71748,-2.08773 1.00083,-0.4196 1.97241,-0.81589 2.15852,-0.88109 0.43983,-0.15413 0.42671,-0.47562 -0.0703,-1.71875 -0.77695,-1.94348 -0.77729,-1.94709 -0.0434,-3.47886 0.37183,-0.77609 1.45589,-2.5178 2.40864,-3.87057 1.28469,-1.82408 2.22595,-4.02574 2.87682,-6.25284 v -10.46965 c -0.34187,-0.54541 -0.76582,-0.9593 -1.29863,-1.16375 -0.12118,-0.0465 -0.21009,-0.0651 -0.26458,-0.045 z m -7.87962,0.8046 c 0.0899,-0.01 0.19025,0.004 0.2992,0.046 0.1545,0.0593 0.31477,0.10749 0.35657,0.10749 0.0417,0 0.20702,0.25412 0.36742,0.56431 0.46331,0.89593 1.43727,1.12109 2.53938,0.58756 1.42217,-0.68845 1.77428,0.34535 0.46612,1.36839 -1.34428,1.0513 -2.94352,0.82054 -4.13618,-0.59686 -0.66341,-0.78841 -0.52217,-2.00834 0.10749,-2.07688 z m -8.06101,10.82931 c 2.52924,-0.003 5.25675,1.36036 4.85655,2.95486 -0.17225,0.68631 -1.10394,0.67728 -1.55753,-0.015 -0.72226,-1.10232 -3.30268,-1.60562 -4.87102,-0.95033 -1.82672,0.76326 -2.52397,-0.58909 -0.76791,-1.48932 0.67588,-0.34648 1.49683,-0.49927 2.33991,-0.50023 z m 3.62562,49.71118 c -0.0794,0.0728 -2.4e-4,0.48598 0.2713,1.62109 0.46932,1.96182 0.43401,5.08666 -0.0734,6.48384 l -0.40153,1.1064 0.46044,0.0114 h 13.62139 v -0.17053 c -0.0492,-0.006 -0.0601,-0.0196 -0.15038,-0.0202 -2.09086,-0.014 -5.98698,-3.82595 -7.40368,-7.244 -0.24463,-0.5902 -0.53776,-1.07387 -0.65112,-1.07487 -0.63225,-0.006 -5.39488,-0.59598 -5.54178,-0.68678 -0.0605,-0.0374 -0.10479,-0.0506 -0.13126,-0.0264 z" /><path
       id="path138"
       style="display:inline;fill:#23432f;fill-opacity:1"
       d="m -181.95211,403.33115 c -8.77906,0.0452 -15.25396,5.75172 -19.82308,17.47128 -2.38218,6.11015 -3.85064,8.12726 -9.61905,13.2085 -5.69263,5.01448 -7.86839,8.9459 -7.94319,14.35313 -0.0534,3.86101 1.86419,8.78737 2.54248,6.53138 1.18245,-3.9328 6.09519,-8.08176 11.73675,-9.91257 4.56067,-1.48004 7.08608,-3.30798 8.40156,-6.08025 0.5085,-1.07162 1.67422,-4.91536 1.52342,-5.02295 -0.0351,-0.0251 -0.45522,-0.27039 -0.93379,-0.5457 -1.83457,-1.05539 -2.71956,-2.59951 -2.85564,-4.98264 -0.24132,-4.22613 2.73799,-6.62667 5.13043,-4.1336 l 0.82528,0.8599 2.5585,-0.90124 c 7.79226,-2.74422 14.3583,-7.45635 16.23673,-11.65252 0.45592,-1.01846 0.39074,-1.08278 1.93528,1.90583 0.68701,1.32934 2.01413,3.67831 2.94918,5.22035 3.07124,5.06498 3.31921,5.85312 2.68976,8.55607 -0.0923,0.39637 -0.0511,0.53175 0.16226,0.53175 1.54518,0 2.95909,3.82884 2.92799,7.9282 -0.0342,4.49849 -0.76741,6.58546 -3.83749,10.92439 -1.91797,2.71065 -1.87685,2.54863 -0.85008,3.33778 1.6493,1.2676 4.19165,5.81684 6.47971,11.59516 1.0673,2.69538 1.22552,2.73184 1.62419,0.37414 0.29639,-1.75284 0.12515,-4.82379 -0.40618,-7.28224 -1.95136,-9.0289 -2.11873,-10.29679 -2.11873,-16.02125 0,-5.33276 -0.43984,-7.64716 -1.8216,-9.59063 l -0.6444,-0.90692 0.37,-0.97307 c 4.49289,-11.82432 -4.57054,-24.85748 -17.24029,-24.79228 z m -14.04566,22.69009 c -0.015,-6.6e-4 -0.0263,0.0129 -0.0408,0.0139 5.7e-4,0.0107 0.001,0.0214 0.001,0.032 0.0156,-0.0134 0.0221,-0.0341 0.0393,-0.046 z m 32.04714,5.42861 c 0.0146,-7.7e-4 0.0684,0.0809 0.17364,0.24494 0.12155,0.19011 0.1789,0.45088 0.1266,0.57981 -0.0687,0.16866 -0.0996,0.15332 -0.11058,0.008 -0.008,-0.12424 -0.0654,-0.38552 -0.12661,-0.58032 -0.0527,-0.16743 -0.0771,-0.2505 -0.063,-0.25218 z m 0.65164,1.82573 c 0.0116,0.004 0.0243,0.0221 0.0377,0.0553 0.0536,0.13293 0.0536,0.35075 0,0.48369 -0.0536,0.13293 -0.0977,0.024 -0.0977,-0.24185 0,-0.13295 0.0108,-0.22646 0.0284,-0.27026 h 5.2e-4 c 0.009,-0.0219 0.0194,-0.0312 0.031,-0.0269 z m 0.20671,1.11517 c 0.01,0.008 0.021,0.0404 0.0326,0.10025 0.0461,0.23929 0.0461,0.63096 0,0.87024 -0.0461,0.23928 -0.0837,0.0434 -0.0837,-0.43512 0,-0.35892 0.0211,-0.5588 0.0512,-0.53537 z m -26.15396,13.32839 c 0.034,0.0279 0.072,0.0516 0.10645,0.0791 0.004,-0.0104 0.009,-0.0207 0.014,-0.031 -0.0405,-0.0152 -0.0799,-0.033 -0.12041,-0.0481 z m 5.24206,1.28157 v 5.2e-4 c -4.5e-4,0.006 -0.006,0.0106 -0.006,0.0165 0.0233,0.0178 0.0489,0.0325 0.0723,0.0501 0.002,-0.0122 0.005,-0.0238 0.008,-0.0357 -0.0252,-0.0112 -0.0502,-0.0221 -0.0739,-0.0315 z m 23.37583,14.80892 c 0.0203,-0.0203 0.0472,0.007 0.078,0.0837 0.0558,0.13958 0.0493,0.30622 -0.015,0.37052 -0.0643,0.0642 -0.1098,-0.0499 -0.1018,-0.25373 0.005,-0.11235 0.0184,-0.17999 0.0388,-0.2005 z"
       transform="translate(438.45286,57.207868)" /><path
       id="rect134"
       style="display:inline;fill:#23432f;fill-opacity:1;stroke-width:0.512472;stroke-linecap:round;stroke-linejoin:round;stroke-opacity:0.984655;paint-order:stroke fill markers"
       d="m 264.68669,469.09866 c -0.13678,0.003 -0.23469,0.25059 -0.40566,0.63252 -1.87843,4.19617 -8.44448,8.9083 -16.23674,11.65252 l -2.5585,0.90123 -0.82527,-0.85989 c -2.39244,-2.49307 -5.37176,-0.0925 -5.13044,4.13359 0.13608,2.38313 1.02107,3.92726 2.85564,4.98265 0.47857,0.27531 0.8987,0.5206 0.9338,0.5457 0.1508,0.10759 -1.01493,3.95133 -1.52343,5.02295 -1.31548,2.77227 -3.84088,4.60021 -8.40155,6.08025 -3.34938,1.08695 -6.4204,2.99854 -8.6279,5.18934 -0.0396,0.18583 -0.0676,0.37372 -0.11472,0.55811 -6.7e-4,0.003 -10e-4,0.006 -0.002,0.009 2.21567,-2.20862 5.35717,-4.14072 8.7819,-5.23018 1.0872,-0.34587 2.01823,-0.72228 2.88354,-1.11569 l 0.004,0.006 c 0.008,0.0128 0.0169,0.0255 0.0253,0.0382 0.0243,-0.10872 0.0964,-0.16536 0.22427,-0.16536 2.10651,0 5.57151,-4.26782 6.6089,-8.14007 0.63431,-2.36765 0.62974,-2.41475 -0.28008,-2.8789 -2.068,-1.05502 -2.98132,-2.62348 -2.98432,-5.12682 -0.005,-4.0696 2.41274,-5.76857 4.63848,-3.25923 0.70822,0.79846 0.83335,0.86711 1.21181,0.66456 0.2321,-0.12421 1.4394,-0.57646 2.68252,-1.00511 6.82785,-2.35434 12.81342,-6.46217 15.53756,-10.66291 l 0.72295,-1.11466 1.20975,2.27479 c 0.66523,1.25112 1.93449,3.46139 2.82101,4.91185 2.57244,4.20883 3.36898,6.27045 2.80035,7.24917 -0.11551,0.19879 -0.21301,0.26132 -0.21601,0.13849 -0.003,-0.12283 -0.37536,-0.44022 -0.82734,-0.70538 -0.45198,-0.26516 -1.51419,-1.01302 -2.36006,-1.66192 -1.6765,-1.28611 -2.13145,-1.41998 -2.44998,-0.72088 -0.43705,0.95921 3.66484,4.32191 5.01313,4.10982 0.53309,-0.0839 0.62209,-0.0466 0.54209,0.22738 -0.0526,0.18028 -0.27596,1.10283 -0.49662,2.05052 -1.68347,7.23041 -3.26827,10.53117 -5.97017,12.4349 -3.31107,2.33295 -4.67261,3.63052 -5.67718,5.41052 -1.44261,2.55618 -8.62384,-0.77586 -12.35015,-5.7304 -1.20319,-1.59978 -1.52008,-0.0413 -0.4346,2.13682 1.59129,3.19304 4.90086,5.39141 8.1163,5.39141 1.40231,0 1.4306,0.0476 0.65991,1.11156 -1.60854,2.22052 -5.16201,3.52234 -8.03813,2.94504 -3.55486,-0.71353 -7.37926,-3.72557 -9.72254,-7.65638 -0.4951,-0.83054 -0.79629,-1.41777 -0.92294,-1.80558 -0.2597,0.37103 -0.61293,1.61778 0.21196,2.97438 3.319,5.45799 9.91517,8.50808 14.19513,7.41882 2.02436,-0.5149 3.33803,-1.62097 4.19248,-2.47344 0.0619,-0.0247 0.50906,-0.81476 0.56826,-0.84516 0.18278,-0.095 -0.13307,0.14774 5.1e-4,-10e-5 0.12261,-0.12702 0.22803,-0.27086 0.32143,-0.41961 0.0978,-0.1615 0.19618,-0.32108 0.29248,-0.48369 0.11328,-0.19094 0.21586,-0.38926 0.31316,-0.58859 0.095,-0.19738 0.17254,-0.40092 0.25994,-0.60152 0.003,-0.007 0.006,-0.0142 0.009,-0.0212 0.53195,0.0426 1.02043,0.0179 1.43609,-0.10542 0.30091,0.003 0.60241,10e-4 0.9033,0.002 0.0294,2e-5 0.0601,-2e-5 0.0894,0 -0.0867,0.18151 -0.16448,0.36595 -0.23668,0.55191 -0.0881,0.15402 -0.15285,0.34142 -0.18655,0.56069 -0.50625,1.6967 -0.43597,3.6391 0.10542,6.2084 0.21308,1.01133 0.68519,3.67223 1.04903,5.91385 2.54898,15.70305 4.08581,23.29143 6.03064,27.86497 -0.0145,-1.1e-4 -0.0289,-4.1e-4 -0.0434,-5.2e-4 -0.0934,-0.002 -0.18689,-0.004 -0.28009,-0.0103 -0.0684,-0.005 -0.13846,-0.007 -0.20516,-0.0233 -0.0461,-0.0109 -0.0878,-0.016 -0.12505,-0.014 -0.0199,10e-4 -0.0385,0.003 -0.0558,0.007 -0.3578,-0.0287 -1.14715,-0.47052 -2.49983,-0.61516 -1.3993,-0.14945 -2.23707,0.007 -2.62695,0.0722 -0.0221,-0.004 -0.30316,-0.009 -0.32526,-0.0141 -0.19017,-0.0172 -0.18166,-0.0481 -0.31729,-0.0815 -0.33448,-0.12349 -0.19006,-0.0599 -0.33448,-0.12349 -0.0646,-0.13594 -0.0823,-0.206 -0.15737,-0.3024 -0.55134,-0.69679 -1.58631,-0.89717 -15.39234,-2.97087 -5.6649,-0.85092 -5.99725,-0.94228 -6.00325,-1.66347 -0.002,-0.18411 -0.21919,-2.615 -0.48369,-5.40225 -0.26449,-2.78742 -0.74405,-8.1552 -1.06557,-11.92847 -0.32151,-3.77361 -0.6362,-6.99354 -0.6997,-7.15564 -0.0727,-0.18587 -0.21757,-0.28177 -0.36174,-0.28577 -0.14417,-0.004 -0.28795,0.0843 -0.35915,0.26613 -0.1301,0.33226 1.55731,20.57478 2.05311,24.62951 0.0361,0.29586 -0.2254,0.4321 -1.50275,0.78083 -3.53961,0.96528 -3.85054,1.90143 -0.34314,1.03198 l 1.56735,-0.38913 6.92878,1.04077 c 3.81081,0.57241 8.66018,1.27806 10.77608,1.56734 3.83702,0.52488 3.84784,0.52697 4.19923,1.09348 0.96173,1.55017 1.27321,6.02624 0.55811,8.0207 -0.20847,0.58134 -0.29848,0.94519 -0.29559,1.12758 h 0.31471 0.69453 0.15348 l 0.22944,-0.63201 c 0.50741,-1.39718 0.54198,-4.52202 0.0734,-6.48384 -0.27154,-1.13511 -0.3507,-1.54829 -0.2713,-1.62109 0.0265,-0.0242 0.0708,-0.011 0.13126,0.0264 0.1469,0.0908 4.90953,0.68078 5.54178,0.68678 0.11336,10e-4 0.40649,0.48467 0.65112,1.07487 1.32142,3.18817 4.79906,6.71633 6.95772,7.18819 h 0.27853 c 0.1797,-10e-6 0.3598,0 0.5395,0 h 0.54106 0.11007 c 3.4e-4,-0.0167 10e-4,-0.0334 10e-4,-0.0501 9e-5,-0.0345 10e-4,-0.0688 10e-4,-0.10335 0.003,-0.24148 0.0306,-0.45747 0.0786,-0.64906 -0.004,-0.006 -0.007,-0.0113 -0.0109,-0.0171 -0.007,-0.0102 -0.0153,-0.0199 -0.0243,-0.0289 -0.006,-0.006 -0.0131,-0.0121 -0.0202,-0.0181 -0.007,-0.006 -0.0137,-0.0126 -0.0207,-0.0186 0,-0.002 0.002,-0.003 0.002,-0.005 -3e-4,-0.004 -0.0394,-0.025 -0.0424,-0.03 -0.009,-0.008 -0.0179,-0.0169 -0.0279,-0.0238 -0.006,-0.005 -0.0121,-0.007 -0.0171,-0.009 h -5.2e-4 c -0.11775,-0.11934 -0.62973,-0.4109 -1.31464,-0.72967 -5.77703,-2.69066 -7.99955,-8.933 -12.00547,-33.71577 -0.37558,-2.32348 -0.7323,-4.30106 -0.7922,-4.39766 -0.006,-0.0101 -0.0237,-0.0854 -0.0372,-0.14625 0.0623,-0.006 0.12467,-0.009 0.18707,-0.0124 0.16509,0.003 0.32704,-0.0158 0.48834,-0.0496 0.15388,-0.0274 0.30365,-0.0684 0.45217,-0.11782 0.11356,-0.035 0.22296,-0.0796 0.32763,-0.13436 0.52621,-0.1466 1.24703,-0.43502 2.30425,-0.84904 5.76152,-2.25688 5.72267,-1.98927 4.82529,-4.20368 l -0.65291,-1.45573 0.48005,-1.45179 c 0.11024,-0.22295 0.32563,-0.57286 0.5302,-0.91054 l 10e-4,0.0103 c 0.0376,4e-4 0.0747,0.006 0.11162,0.0129 0.0349,0.008 0.0692,0.0174 0.10232,0.031 0.0294,0.0136 0.0587,0.0267 0.0894,0.0372 0.0239,0.006 0.0459,0.0148 0.0682,0.0248 0.0234,0.009 0.044,0.0236 0.0651,0.0372 0.007,0.003 0.0142,0.007 0.0212,0.0124 0.0839,0.18617 0.28652,0.34807 0.61856,0.59842 1.6493,1.24243 4.19165,5.70224 6.47971,11.36675 0.1155,0.28596 0.2023,0.47555 0.29611,0.68884 -4.9e-4,-0.0253 -0.002,-0.0507 -0.003,-0.076 -0.10454,-0.24726 -0.20443,-0.47959 -0.33435,-0.8077 -2.28806,-5.77832 -4.83041,-10.32756 -6.47971,-11.59516 -1.02677,-0.78915 -1.06789,-0.62713 0.85008,-3.33778 3.07008,-4.33893 3.80329,-6.42591 3.83749,-10.9244 0.0311,-4.09936 -1.3828,-7.9282 -2.92798,-7.9282 -0.21336,0 -0.25457,-0.13538 -0.16227,-0.53175 0.62945,-2.70295 0.38148,-3.49109 -2.68976,-8.55607 -0.93505,-1.54204 -2.26216,-3.89101 -2.94917,-5.22035 -0.96347,-1.86425 -1.30013,-2.5395 -1.52807,-2.53731 z m -5.47047,10.71562 c -0.27642,0.008 -0.58612,0.0416 -0.92553,0.10646 -0.83112,0.15902 -2.18172,0.28938 -3.00188,0.28938 -1.58938,0 -1.95544,0.16825 -1.95544,0.89917 0,0.87004 3.25652,1.12427 5.83737,0.45579 2.30035,-0.59581 1.97969,-1.8057 0.0455,-1.7508 z m -16.74885,2.9807 c -0.15631,-0.028 -0.30534,0.006 -0.43977,0.1173 -0.42595,0.3535 -0.36983,0.78011 0.28423,2.16266 0.31896,0.67422 0.57971,1.31545 0.5798,1.42472 6.1e-4,0.79207 0.77165,1.20746 1.25316,0.67541 0.85802,-0.94809 -0.58325,-4.18381 -1.67742,-4.38009 z m -0.0129,0.43408 c -0.0172,0.0119 -0.0237,0.0326 -0.0393,0.046 0,-0.0106 -10e-4,-0.0213 -10e-4,-0.032 0.0143,-9.8e-4 0.0256,-0.0143 0.0403,-0.014 z m 10.20248,1.76113 c -0.53164,0.0204 -0.83789,0.71977 -0.35967,1.72755 0.78602,1.65642 3.00111,2.36603 4.71031,1.50895 1.98156,-0.99364 1.38482,-2.47329 -0.65629,-1.62729 -1.24807,0.51729 -1.86979,0.3191 -2.61535,-0.83303 -0.36003,-0.55635 -0.76002,-0.78838 -1.079,-0.77618 z m 9.98595,0.80254 c -0.15541,-0.0109 -0.35747,0.0877 -0.60203,0.30902 -1.13154,1.02403 -1.38812,3.78408 -0.57826,6.21771 0.22311,0.67044 0.37765,1.46132 0.34365,1.75752 l -0.062,0.53847 h -1.54667 c -1.54627,0 -1.54668,2.8e-4 -1.60818,0.53536 -0.12325,1.07234 2.4593,1.70326 3.73776,0.91313 1.20438,-0.74435 1.33505,-2.08984 0.47439,-4.89066 -0.46185,-1.503 -0.46223,-1.51242 -0.11575,-2.70681 0.47151,-1.62536 0.42335,-2.64114 -0.0429,-2.67374 z m 9.42992,0.80667 c 0.0545,-0.0201 0.1434,-0.002 0.26458,0.045 0.53281,0.20445 0.95676,0.61834 1.29863,1.16375 v 10.46964 c -0.65087,2.2271 -1.59214,4.42877 -2.87683,6.25285 -0.95275,1.35277 -2.0368,3.09448 -2.40863,3.87057 -0.73389,1.53177 -0.73355,1.53538 0.0434,3.47886 0.49701,1.24313 0.42136,1.21249 -0.0177,1.36662 -0.18611,0.0652 -1.24572,0.54953 -2.24655,0.96913 -3.51264,1.47267 -5.54068,2.22857 -5.63648,2.07349 -0.13887,-0.2247 -0.55162,-2.42241 -0.88938,-4.52138 -0.66447,-4.12931 0.77261,-6.71195 5.641,-10.1384 2.95401,-2.07908 4.19241,-4.06103 5.62033,-8.99532 0.85376,-2.95027 0.90444,-3.00308 1.22887,-1.28364 0.44092,2.33678 -0.0576,6.0084 -1.09296,8.0517 -0.74313,1.4665 0.0186,2.11379 0.9896,0.84078 1.94287,-2.54724 2.21694,-8.47046 0.55914,-12.08763 -0.49597,-1.08231 -0.64043,-1.49538 -0.47697,-1.55598 z m -7.87962,0.8046 c -0.62966,0.0685 -0.7709,1.28847 -0.10749,2.07688 1.19266,1.4174 2.7919,1.64816 4.13618,0.59686 1.30816,-1.02304 0.95605,-2.05684 -0.46612,-1.36839 -1.10211,0.53353 -2.07607,0.30837 -2.53938,-0.58756 -0.1604,-0.31019 -0.32572,-0.56431 -0.36742,-0.56431 -0.0418,0 -0.20207,-0.0482 -0.35657,-0.10749 -0.10895,-0.042 -0.2093,-0.056 -0.2992,-0.046 z m -1.52187,1.44797 c 6.5e-4,0.0199 10e-4,0.0395 0.002,0.0594 0.004,-0.0152 0.009,-0.0294 0.0124,-0.045 -0.005,-0.005 -0.009,-0.01 -0.014,-0.0145 z m -44.23555,1.0325 v 0.20567 c 0.0226,-0.0326 0.0448,-0.0655 0.0672,-0.0982 -0.0223,-0.0362 -0.0452,-0.0708 -0.0672,-0.10749 z m 37.69641,8.34884 c -0.84308,9.6e-4 -1.66403,0.15375 -2.33991,0.50023 -1.75606,0.90023 -1.05881,2.25258 0.76791,1.48932 1.56834,-0.65529 4.14876,-0.15199 4.87102,0.95033 0.45359,0.69228 1.38528,0.70057 1.55753,0.015 0.4002,-1.5945 -2.32731,-2.95786 -4.85655,-2.95486 z m -19.78753,3.41165 c -0.006,-0.0978 -0.45491,-0.0689 -0.39401,0.11875 0.0344,-0.0492 0.16577,0.4613 0.21908,0.41549 -0.0631,-0.094 0.1998,-0.12747 0.19291,-0.24017 z m 12.86185,3.282 c 0.0405,0.0151 0.0799,0.0329 0.12041,0.0481 -0.005,0.0103 -0.0101,0.0206 -0.0139,0.031 -0.0344,-0.0275 -0.0725,-0.0512 -0.10646,-0.0791 z m 5.24206,1.28158 h 5.2e-4 c 0.0237,0.009 0.0487,0.0203 0.0739,0.0315 -0.003,0.0119 -0.006,0.0235 -0.008,0.0357 -0.0234,-0.0176 -0.049,-0.0323 -0.0723,-0.0501 0,-0.006 0.005,-0.0105 0.006,-0.0165 z m 4.83692,5.75985 h 5.1e-4 c 8e-5,10e-4 4.4e-4,0.002 5.2e-4,0.002 0.004,0.0125 0.011,0.0241 0.015,0.0367 0.001,0.0208 0.002,0.0413 0.002,0.062 -0.004,-0.0286 -0.013,-0.0702 -0.017,-0.0987 0,-0.001 -10e-4,-0.001 -10e-4,-0.002 z m 10.30893,1.63711 c -0.0463,-0.01 -0.0875,-4.7e-4 -0.12713,0.0243 -0.38108,0.23092 -0.0518,1.06743 2.32338,5.90507 4.05351,8.25576 7.18995,15.25187 8.81806,19.66908 1.05837,2.87139 1.36361,3.3504 1.74615,2.7435 0.34427,-0.5459 -3.66734,-10.328 -7.30498,-17.81287 -0.58267,-1.19909 -1.90602,-3.92887 -2.94039,-6.06629 -1.64133,-3.39113 -2.19109,-4.39184 -2.51509,-4.46174 v -5.2e-4 z m -2.13579,37.59874 c 0.007,0.005 0.0145,0.008 0.0165,0.0103 1.1e-4,2e-5 -1.1e-4,10e-4 0,10e-4 -0.002,-4.3e-4 -0.008,-0.004 -0.008,-10e-4 0,0.003 0.002,0.004 0.003,0.006 -0.003,-0.005 -0.007,-0.011 -0.0114,-0.016 z m -7.50807,3.02411 c -0.002,0.016 -0.005,0.0325 -0.007,0.0486 -5.9e-4,0.0167 7e-4,0.0333 0,0.0501 -0.004,10e-4 -0.008,10e-4 -0.0124,0.002 0.004,-0.0207 0.007,-0.0414 0.0124,-0.062 0.003,-0.0129 0.004,-0.0258 0.007,-0.0388 z m 26.46454,0.14314 c -0.0313,0.0448 -0.0628,0.0894 -0.0966,0.13281 -0.006,0.008 -0.0133,0.0144 -0.0196,0.0217 0.0224,0.0134 0.0437,0.0231 0.0661,0.0367 0.0167,0.0101 0.0334,0.0198 0.0501,0.0295 z m -13.4519,1.43764 h 5.2e-4 c 0.0129,0.007 0.0261,0.0131 0.0388,0.0191 -0.0124,-0.004 -0.0242,-0.01 -0.0362,-0.015 -10e-4,-10e-4 -0.002,-0.003 -0.003,-0.004 z"
       transform="translate(1.3004415e-4,3.4609867e-5)"
       sodipodi:nodetypes="cccccsscsscccscccssccssccccsssssscccssssscsscccccccccccccccccccccccccccccccccccssccccsccccccccccccccssccccccsccccccccscccccccccccccccccccscccsscscssccscsscssccscsccccccsssscsssccsssssssccccssccscsssscccccsssssscsscccccccccccssscccsccsscccccccccccccccccccccccscccccccccscccscccccsccccccccccsc" /></g><g
     inkscape:label="Camada 1"
     inkscape:groupmode="layer"
     id="layer1" /></svg>
