<?xml version="1.0" encoding="UTF-8" standalone="no"?>
<!-- Created with Inkscape (http://www.inkscape.org/) -->

<svg
   width="793.70081"
   height="1122.5197"
   viewBox="0 0 210 296.99999"
   version="1.1"
   id="svg1"
   xml:space="preserve"
   sodipodi:docname="melancholic.svg"
   inkscape:version="1.4 (86a8ad7, 2024-10-11)"
   xmlns:inkscape="http://www.inkscape.org/namespaces/inkscape"
   xmlns:sodipodi="http://sodipodi.sourceforge.net/DTD/sodipodi-0.dtd"
   xmlns="http://www.w3.org/2000/svg"
   xmlns:svg="http://www.w3.org/2000/svg"><sodipodi:namedview
     id="namedview1"
     pagecolor="#505050"
     bordercolor="#eeeeee"
     borderopacity="1"
     inkscape:showpageshadow="0"
     inkscape:pageopacity="0"
     inkscape:pagecheckerboard="0"
     inkscape:deskcolor="#505050"
     inkscape:document-units="px"
     inkscape:zoom="0.4894542"
     inkscape:cx="429.04934"
     inkscape:cy="548.57022"
     inkscape:window-width="1920"
     inkscape:window-height="991"
     inkscape:window-x="-9"
     inkscape:window-y="-9"
     inkscape:window-maximized="1"
     inkscape:current-layer="g138" /><defs
     id="defs1"><filter
       id="mask-powermask-path-effect16_inverse"
       inkscape:label="filtermask-powermask-path-effect16"
       style="color-interpolation-filters:sRGB"
       height="100"
       width="100"
       x="-50"
       y="-50"><feColorMatrix
         id="mask-powermask-path-effect16_primitive1"
         values="1"
         type="saturate"
         result="fbSourceGraphic" /><feColorMatrix
         id="mask-powermask-path-effect16_primitive2"
         values="-1 0 0 0 1 0 -1 0 0 1 0 0 -1 0 1 0 0 0 1 0 "
         in="fbSourceGraphic" /></filter><pattern
       patternUnits="userSpaceOnUse"
       width="229.96177"
       height="235.18179"
       patternTransform="translate(1865.9072,1529.9658)"
       preserveAspectRatio="xMidYMid"
       id="pattern16"><path
         style="fill:#f06338;fill-opacity:1;stroke:none;stroke-width:0.495347;stroke-linecap:round;stroke-linejoin:round;paint-order:stroke fill markers"
         id="path9216"
         sodipodi:type="arc"
         sodipodi:cx="114.98088"
         sodipodi:cy="117.59088"
         sodipodi:rx="114.98088"
         sodipodi:ry="117.59088"
         sodipodi:start="0"
         sodipodi:end="6.272498"
         sodipodi:open="true"
         sodipodi:arc-type="arc"
         d="M 229.96176,117.59088 A 114.98088,117.59088 0 0 1 115.28809,235.18134 114.98088,117.59088 0 0 1 0.00164161,118.21924 114.98088,117.59088 0 0 1 114.05926,0.00377746 114.98088,117.59088 0 0 1 229.9552,116.33418"
         mask="none" /><path
         id="path9215"
         style="fill:#222b00;fill-opacity:1;stroke:none;stroke-width:1.87218;stroke-linecap:round;stroke-linejoin:round;paint-order:stroke fill markers"
         d="m 160.96536,89.201313 c -7.30961,-0.197291 -15.70542,1.604788 -24.29296,5.794923 -9.73175,4.748409 -11.69351,5.297194 -23.00587,6.431664 -23.308835,2.33752 -34.287115,9.70204 -34.287115,22.99804 0,2.59888 -0.212031,2.8495 -3.976554,4.69138 -18.629821,9.11471 -22.044019,32.04057 -8.693367,58.38675 1.637065,3.23085 1.909039,4.74602 1.992189,11.07223 0.163276,12.44973 9.89246,25.22487 19.212888,25.23243 1.801285,0.001 3.158211,2.33912 3.158211,5.44335 0,1.62373 0.189354,2.56048 0.667956,3.26956 a 114.98089,117.59088 0 0 0 23.240242,2.66015 114.98089,117.59088 0 0 0 77.14843,-30.91601 c 0.74574,-19.99366 -3.68307,-43.6995 -11.35154,-58.96876 -1.59323,-3.17234 -1.64194,-3.07978 3.00192,-5.65039 8.55561,-4.73598 8.86349,-15.38366 0.57816,-19.97851 -1.1873,-0.65843 -1.23039,-1.07784 -0.43556,-4.23439 3.94878,-15.682055 -6.87594,-25.798036 -22.95703,-26.232417 z m -0.88283,0.150425 c 6.48631,-0.17537 11.62866,1.888366 16.36135,6.16407 5.76971,5.212722 8.78083,16.360402 5.8828,21.775412 -0.70186,1.31142 -0.56206,1.74485 0.91408,2.84375 4.92729,3.66803 5.68675,4.47145 6.12888,6.48435 1.71855,7.82456 -8.25215,16.99755 -12.69336,11.67775 l -1.99022,-2.38476 -4.76368,1.19531 c -6.00257,1.50724 -12.59388,1.51495 -23.70312,0.0265 -8.96402,-1.20027 -28.37064,-1.05634 -33.90625,0.25209 l -2.51172,0.59376 0.16781,11.30665 c 0.19804,13.22158 -0.52868,16.81946 -5.30468,26.26564 -2.70822,5.35646 -3.21986,7.11076 -3.64063,12.44727 -0.35641,4.51793 -0.82334,6.45758 -1.707027,7.12301 -2.005795,1.50754 -3.012812,1.06726 -5.031231,-2.19334 -6.864907,-11.08989 -15.959509,-13.3951 -22.443364,-5.68947 -2.589128,3.07699 -2.92388,2.90014 -5.533228,-2.93552 -11.703232,-26.17384 -7.244977,-48.26045 11.062526,-54.81445 1.507313,-0.53961 2.756485,-1.1621 2.775382,-1.38282 0.0189,-0.22072 0.191244,-2.20562 0.382829,-4.41018 1.116888,-12.85432 11.232567,-19.25953 33.484343,-21.20115 11.14848,-0.97281 10.87616,-0.89862 21.63871,-5.876972 10.1122,-4.677543 17.94334,-7.091981 24.42965,-7.267578 z M 183.0181,166.3166 c 0.26344,0.13153 0.47717,0.38453 0.7578,0.72265 1.37594,1.65792 -0.89881,3.77265 -7.6543,7.11915 -10.56922,5.23574 -18.08893,4.60929 -13.87306,-1.15627 0.86109,-1.17762 1.19543,-1.24203 2.18362,-0.42187 1.75049,1.45274 5.21178,0.50498 11.7461,-3.21876 4.81262,-2.74257 6.04905,-3.43907 6.83984,-3.0449 z m -53.24417,2.17383 c 2.34543,0.12473 6.12628,0.91624 11.86133,2.40235 11.53667,2.98949 13.08896,3.77627 11.19141,5.67382 -2.15301,2.15301 -26.30857,-3.79343 -26.30857,-6.47656 0,-1.18136 0.91045,-1.72425 3.25583,-1.59961 z m 45.31839,11.53905 c 0.86427,0.0586 1.87208,0.6127 2.95703,1.76757 2.28933,2.43686 2.96126,9.65341 1.15623,12.40823 -2.13645,3.26064 -4.66722,1.6148 -6.30663,-4.10158 -1.70876,-5.95827 -0.39946,-10.24974 2.19337,-10.07422 z m -32.49025,2.1758 c 0.48589,-0.008 0.9993,0.15383 1.52931,0.50778 2.47937,1.65551 3.42916,10.30953 1.54295,14.05667 -1.52969,3.03889 -4.68994,2.88442 -6.01757,-0.29291 -2.53947,-6.07783 -0.45581,-14.22603 2.94531,-14.27146 z m 19.34377,0.31257 c 8.1594,0 14.51354,32.70024 6.96677,35.8535 -3.26518,1.36434 -5.10702,1.33047 -6.55858,-0.12094 -1.57894,-1.57894 -0.22942,-3.21094 2.65429,-3.21094 7.05422,0 7.22158,-5.47608 0.56836,-18.55857 -5.10104,-10.03042 -6.12404,-13.9629 -3.63084,-13.9629 z m -80.109392,11.0488 c 0.869292,0.10659 2.057877,0.51096 3.531251,1.28909 3.664781,1.93546 7.245241,7.13764 7.417965,10.77929 0.187465,3.95542 -1.869052,3.51745 -3.906255,-0.83203 -1.194217,-2.54971 -2.840769,-4.50467 -5.253884,-6.2383 -4.124674,-2.96337 -4.396951,-5.31821 -1.789077,-4.99805 z m 11.429707,32.43557 c 0.401991,0 0.73047,0.98559 0.73047,2.19141 0,1.20586 -0.328441,2.19333 -0.73047,2.19333 -0.40199,0 -0.730469,-0.98747 -0.730469,-2.19333 0,-1.20582 0.328441,-2.19141 0.730469,-2.19141 z"
         mask="none" /></pattern><filter
       id="mask-powermask-path-effect12_inverse"
       inkscape:label="filtermask-powermask-path-effect12"
       style="color-interpolation-filters:sRGB"
       height="100"
       width="100"
       x="-50"
       y="-50"><feColorMatrix
         id="mask-powermask-path-effect12_primitive1"
         values="1"
         type="saturate"
         result="fbSourceGraphic" /><feColorMatrix
         id="mask-powermask-path-effect12_primitive2"
         values="-1 0 0 0 1 0 -1 0 0 1 0 0 -1 0 1 0 0 0 1 0 "
         in="fbSourceGraphic" /></filter></defs><g
     id="g138"
     transform="matrix(2.3027344,0,0,2.3027344,-476.27018,-988.39918)"><path
       id="path136"
       style="display:inline;fill:#4a8a61;stroke-width:0.990106"
       d="M 264.70654 469.95658 L 263.98348 471.07124 C 261.25934 475.27198 255.27385 479.37968 248.446 481.73402 C 247.20288 482.16267 245.99547 482.61495 245.76337 482.73916 C 245.38491 482.94171 245.25998 482.87314 244.55176 482.07468 C 242.32602 479.56534 239.90813 481.26423 239.91313 485.33383 C 239.91613 487.83717 240.82961 489.40553 242.89761 490.46055 C 243.80743 490.9247 243.81198 490.9719 243.17767 493.33955 C 242.14028 497.2118 238.67521 501.4797 236.5687 501.4797 C 236.44089 501.4797 236.3686 501.53625 236.34429 501.64487 C 236.33587 501.63219 236.32733 501.61966 236.31893 501.60694 L 236.31534 501.60043 C 235.45003 501.99384 234.51905 502.37012 233.43185 502.71599 C 227.79029 504.51066 222.87906 508.57812 221.69661 512.43331 C 221.63731 512.62668 221.56516 512.73614 221.48835 512.81459 C 221.47835 512.82969 221.46454 512.84246 221.45334 512.85656 C 221.44334 512.86916 221.43643 512.88502 221.42843 512.89852 C 221.39803 512.94592 221.37086 512.99518 221.34876 513.04462 C 221.34176 513.06202 221.33634 513.07975 221.33014 513.09735 C 221.32914 513.11155 221.3272 513.12602 221.3252 513.14022 C 221.3096 513.21012 221.29943 513.27837 221.28503 513.34757 C 221.26873 513.41017 221.25478 513.47176 221.23678 513.53316 C 221.22158 513.57956 221.20392 513.62484 221.19392 513.6705 C 221.18692 513.7138 221.17276 513.75541 221.15936 513.79505 C 221.15636 513.80405 221.15234 513.81231 221.14904 513.82041 L 221.14859 513.82243 L 220.77853 515.09104 C 219.12548 520.75755 219.37054 534.15836 221.34742 546.21941 C 222.72611 554.63095 225.24447 557.07951 233.52813 558.06148 C 237.59437 558.54347 254.2754 557.7329 258.61193 556.85683 C 258.55513 556.80763 258.53878 556.74167 258.56368 556.68224 C 258.56068 556.49996 258.65086 556.13581 258.85945 555.55411 C 259.57455 553.55965 259.26307 549.08375 258.30134 547.53358 C 257.94995 546.96707 257.93914 546.96489 254.10212 546.44001 C 251.98622 546.15073 247.13682 545.44512 243.32601 544.87271 L 236.39725 543.83188 L 234.82972 544.22101 C 231.32232 545.09046 231.63324 544.15422 235.17285 543.18894 C 236.4502 542.84021 236.71185 542.70406 236.67575 542.4082 C 236.17995 538.35347 234.49249 518.11087 234.62259 517.77861 C 234.69379 517.59675 234.83748 517.50867 234.98165 517.51246 C 235.12582 517.51646 235.27069 517.61249 235.34341 517.79836 C 235.40691 517.96046 235.72162 521.1804 236.04313 524.95401 C 236.36465 528.72728 236.84415 534.09505 237.10864 536.88247 C 237.37314 539.66972 237.59048 542.10067 237.59248 542.28478 C 237.59848 543.00597 237.93086 543.09721 243.59576 543.94813 C 257.40179 546.02183 258.4367 546.22235 258.98804 546.91914 C 259.06314 547.01554 259.1214 547.17435 259.18598 547.31029 C 259.19598 547.31429 259.20557 547.31823 259.21537 547.32263 C 259.30747 547.36603 259.39485 547.41875 259.49095 547.45122 C 259.56575 547.47772 259.64485 547.48888 259.72345 547.49678 C 259.82145 547.50078 259.91856 547.51077 260.01496 547.52887 C 260.03706 547.53387 260.05951 547.53883 260.08161 547.54323 C 260.47149 547.47853 261.21751 547.57107 262.61681 547.72052 C 263.96949 547.86516 264.89093 547.9548 265.24873 547.98353 C 265.26603 547.97953 265.28448 547.97757 265.30438 547.97657 C 265.34168 547.97457 265.38354 547.97958 265.4296 547.99048 C 265.4963 548.00648 265.56632 548.00882 265.63472 548.01382 C 265.72792 548.01982 265.82139 548.02185 265.91479 548.02415 C 265.92929 548.02426 265.9436 548.02449 265.9581 548.0246 C 264.01327 543.45106 262.47664 535.86269 259.92766 520.15964 C 259.56382 517.91802 259.09161 515.25723 258.87853 514.2459 C 258.33714 511.6766 258.26681 509.73398 258.77306 508.03728 C 258.80676 507.81801 258.87149 507.63072 258.95954 507.4767 C 259.03174 507.29074 259.10959 507.10637 259.1963 506.92486 C 259.167 506.92484 259.13638 506.92488 259.10698 506.92486 C 258.80609 506.92392 258.50463 506.92584 258.20372 506.92284 C 257.78806 507.04613 257.29942 507.07092 256.76747 507.02832 C 256.76447 507.03532 256.7615 507.04211 256.7585 507.04941 C 256.6711 507.25001 256.59363 507.45346 256.49863 507.65084 C 256.40133 507.85017 256.29863 508.04854 256.18535 508.23948 C 256.08905 508.40209 255.99073 508.56181 255.89293 508.72331 C 255.79953 508.87206 255.69418 509.01572 255.57157 509.14274 C 255.43799 509.29058 255.31563 509.44679 255.13285 509.54175 C 255.07365 509.57215 255.01276 509.6003 254.95085 509.625 C 254.0964 510.47747 252.48313 511.38902 250.45877 511.90392 C 246.17881 512.99318 240.56565 509.76709 237.24665 504.3091 C 236.42157 502.95219 236.14352 502.43916 236.40353 502.06811 C 236.53016 502.45592 236.83118 503.04315 237.32632 503.87374 C 239.6696 507.80455 243.49439 510.81674 247.04925 511.53027 C 249.92537 512.10757 253.4783 510.80559 255.08684 508.58507 C 255.85753 507.52115 255.82938 507.47355 254.42707 507.47355 C 251.21163 507.47355 247.902 505.27529 246.31071 502.08225 C 245.22523 499.90415 245.54221 498.3456 246.7454 499.94538 C 250.47171 504.89992 257.65293 508.23196 259.09554 505.67578 C 260.10011 503.89578 261.46168 502.59812 264.77275 500.26517 C 267.47465 498.36144 269.05934 495.06084 270.74281 487.83043 C 270.96347 486.88274 271.18684 485.96002 271.23944 485.77974 C 271.31944 485.50572 271.23035 485.46851 270.69726 485.55241 C 269.34897 485.7645 265.24726 482.40171 265.68431 481.4425 C 266.00284 480.7434 266.45773 480.87743 268.13423 482.16354 C 268.9801 482.81244 270.04218 483.56017 270.49416 483.82533 C 270.94614 484.09049 271.31858 484.40805 271.32158 484.53088 C 271.32458 484.65371 271.42218 484.59098 271.53769 484.39219 C 272.10632 483.41347 271.30967 481.35202 268.73723 477.14319 C 267.85071 475.69273 266.58159 473.48235 265.91636 472.23123 L 264.70654 469.95658 z M 259.21627 479.81439 L 259.2165 479.81439 C 261.15143 479.75949 261.47129 480.96922 259.17094 481.56503 C 256.59009 482.23351 253.3335 481.97929 253.3335 481.10925 C 253.3335 480.37833 253.69966 480.21003 255.28904 480.21003 C 256.1092 480.21003 257.45967 480.07978 258.29079 479.92076 C 258.6302 479.85586 258.93985 479.82225 259.21627 479.81439 z M 242.46763 482.79504 C 243.5618 482.99132 245.00292 486.22705 244.1449 487.17514 C 243.66339 487.70719 242.89238 487.29173 242.89177 486.49966 C 242.89168 486.39039 242.63107 485.74908 242.31211 485.07486 C 241.65805 483.69231 241.60183 483.26569 242.02778 482.91219 C 242.16221 482.80062 242.31132 482.767 242.46763 482.79504 z M 252.65712 484.99025 C 252.9761 484.97805 253.37607 485.20993 253.7361 485.76628 C 254.48166 486.91841 255.10334 487.11659 256.35141 486.5993 C 258.39252 485.7533 258.98938 487.2331 257.00782 488.22674 C 255.29862 489.08382 253.0834 488.37421 252.29738 486.71779 C 251.81916 485.71001 252.12548 485.01064 252.65712 484.99025 z M 262.64306 485.79276 C 263.10931 485.82536 263.15744 486.84106 262.68593 488.46642 C 262.33945 489.66081 262.33987 489.67029 262.80172 491.17329 C 263.66238 493.97411 263.53169 495.31958 262.32731 496.06393 C 261.04885 496.85406 258.46624 496.22313 258.58949 495.15079 C 258.65099 494.61571 258.65136 494.61534 260.19763 494.61534 L 261.74451 494.61534 L 261.80645 494.07698 C 261.84045 493.78078 261.68598 492.98981 261.46287 492.31937 C 260.65301 489.88574 260.90942 487.1258 262.04096 486.10177 C 262.28552 485.88046 262.48765 485.78188 262.64306 485.79276 z M 272.07291 486.5993 C 271.90945 486.6599 272.05404 487.07307 272.55001 488.15538 C 274.20781 491.77255 273.93365 497.69572 271.99078 500.24296 C 271.01975 501.51597 270.25798 500.8688 271.00111 499.4023 C 272.0365 497.359 272.53515 493.68736 272.09423 491.35058 C 271.7698 489.63114 271.7191 489.68395 270.86534 492.63422 C 269.43742 497.56851 268.19892 499.5503 265.24491 501.62938 C 260.37652 505.05583 258.93959 507.63862 259.60406 511.76793 C 259.94182 513.8669 260.44946 516.34298 260.58833 516.56768 C 260.68413 516.72276 262.7933 515.95263 266.30594 514.47996 C 267.30677 514.06036 268.27824 513.66389 268.46435 513.59869 C 268.90418 513.44456 268.89111 513.12326 268.3941 511.88013 C 267.61715 509.93665 267.6169 509.93305 268.35079 508.40128 C 268.72262 507.62519 269.80667 505.88337 270.75942 504.5306 C 272.04411 502.70652 272.98531 500.50487 273.63618 498.27777 L 273.63618 487.80821 C 273.29431 487.2628 272.87031 486.84886 272.3375 486.64441 C 272.21632 486.59791 272.1274 486.5792 272.07291 486.5993 z M 264.19331 487.40404 C 264.28321 487.39404 264.3835 487.40805 264.49245 487.45005 C 264.64695 487.50935 264.80725 487.55754 264.84905 487.55754 C 264.89075 487.55754 265.05624 487.81153 265.21664 488.12172 C 265.67995 489.01765 266.65376 489.24299 267.75587 488.70946 C 269.17804 488.02101 269.53014 489.05467 268.22198 490.07771 C 266.8777 491.12901 265.27848 490.89839 264.08582 489.48099 C 263.42241 488.69258 263.56365 487.47258 264.19331 487.40404 z M 256.13238 498.23333 C 258.66162 498.23033 261.38911 499.59369 260.98891 501.18819 C 260.81666 501.8745 259.88485 501.86543 259.43126 501.17315 C 258.709 500.07083 256.12871 499.56747 254.56037 500.22276 C 252.73365 500.98602 252.03637 499.63378 253.79243 498.73355 C 254.46831 498.38707 255.2893 498.23429 256.13238 498.23333 z M 269.22039 507.79334 C 269.01582 508.13102 268.80035 508.48084 268.69011 508.70379 L 267.93002 510.23855 L 268.52067 511.69432 C 269.41805 513.90873 269.79909 513.55812 264.03757 515.815 C 262.98035 516.22902 262.25973 516.51735 261.73352 516.66395 C 261.62885 516.71875 261.51943 516.76342 261.40587 516.79838 C 261.25735 516.84778 261.10756 516.88877 260.95368 516.91619 C 260.79238 516.94999 260.63045 516.96879 260.46536 516.96579 C 260.40296 516.96879 260.34045 516.97173 260.2782 516.97813 C 260.2917 517.03903 260.30915 517.11436 260.31545 517.12445 C 260.37535 517.22105 260.73205 519.19857 261.10763 521.52205 C 265.11355 546.30482 267.33604 552.54725 273.11307 555.23791 C 273.79798 555.55668 274.30993 555.84837 274.42768 555.96771 L 274.42835 555.96771 C 274.43335 555.96971 274.43929 555.97168 274.44519 555.97668 C 274.45519 555.98368 274.46424 555.9918 274.47324 555.9998 C 274.47624 556.0048 274.51535 556.02577 274.51565 556.02987 C 274.51582 556.03187 274.51363 556.03281 274.51363 556.03481 C 274.52063 556.04081 274.52758 556.04763 274.53428 556.05343 C 274.54128 556.05943 274.54847 556.06571 274.55447 556.07161 C 274.56347 556.08061 274.57171 556.09036 274.57871 556.10056 C 274.58671 556.11176 274.59348 556.12342 274.60048 556.13512 C 274.60948 556.14912 274.61672 556.16373 274.62472 556.17843 C 274.62972 556.18743 274.6348 556.19564 274.6393 556.20424 C 274.6413 556.20624 274.64336 556.20819 274.64536 556.21119 C 274.65556 556.22459 274.6666 556.23762 274.6779 556.25002 C 274.6891 556.26292 274.70203 556.27395 274.71403 556.28615 C 274.72823 556.30025 274.74048 556.3159 274.75128 556.3326 C 274.76148 556.3497 274.77242 556.36667 274.78382 556.38287 C 274.79452 556.39837 274.80671 556.41238 274.81951 556.42618 C 274.83261 556.44048 274.84598 556.45489 274.85878 556.46949 C 274.86678 556.47749 274.873 556.48685 274.881 556.49485 C 274.887 556.50085 274.89352 556.50554 274.90052 556.50944 C 274.91252 556.51644 274.92306 556.52403 274.93306 556.53413 C 274.94106 556.54413 274.95044 556.55318 274.96044 556.56218 C 274.97134 556.57218 274.9828 556.581 274.9941 556.59 C 275.0031 556.597 275.01203 556.6051 275.02103 556.6111 C 275.03003 556.6181 275.04053 556.62328 275.05043 556.62928 C 275.06223 556.63628 275.07401 556.642 275.08611 556.6479 C 275.09411 556.6519 275.10272 556.65685 275.11102 556.66025 C 280.14591 557.31303 284.98603 553.33792 284.71389 545.6604 C 284.56549 541.4738 284.14263 539.96278 279.83829 528.22999 C 278.7424 525.24277 278.19211 523.54099 278.10604 522.91723 C 278.08264 522.85423 278.05915 522.79295 278.03535 522.73119 C 278.00295 522.63879 277.97894 522.54728 277.95164 522.45472 C 277.91754 522.34539 277.87184 522.2408 277.82193 522.13739 C 277.77093 522.02859 277.7169 521.92127 277.6617 521.81446 C 277.6314 521.75236 277.60213 521.69045 277.58203 521.62528 C 277.38398 521.33847 277.13958 520.82043 276.77751 519.92401 C 274.48945 514.2595 271.9471 509.79968 270.2978 508.55725 C 269.96576 508.3069 269.76324 508.14513 269.67932 507.95896 C 269.67232 507.95396 269.665 507.94979 269.658 507.94639 C 269.6369 507.93279 269.61632 507.91836 269.59292 507.90936 C 269.57062 507.89936 269.5486 507.89045 269.5247 507.88445 C 269.494 507.87395 269.46478 507.8608 269.43538 507.8472 C 269.40228 507.8336 269.36797 507.82423 269.33305 507.81623 C 269.29615 507.80923 269.25891 507.80384 269.22129 507.80344 L 269.22039 507.79334 z M 277.56453 511.09536 L 277.56408 511.09559 C 277.56429 511.09583 277.56454 511.09602 277.56476 511.09626 C 277.5647 511.09596 277.56459 511.09566 277.56453 511.09536 z M 277.56476 511.09626 C 277.56525 511.09896 277.56565 511.10164 277.56655 511.10434 C 277.56955 511.10495 277.5724 511.10536 277.5744 511.10636 C 277.5716 511.10261 277.56792 511.09981 277.56476 511.09626 z M 259.28539 511.96833 C 259.28563 511.96898 259.28651 511.96909 259.28651 511.97012 C 259.28643 511.96955 259.28614 511.96936 259.28606 511.96833 L 259.28539 511.96833 z M 259.28651 511.97012 C 259.29051 511.99862 259.29927 512.04027 259.30357 512.06887 C 259.30316 512.04817 259.303 512.02773 259.30155 512.00693 C 259.29755 511.99433 259.29091 511.98262 259.28651 511.97012 z M 269.59449 513.60565 L 269.59449 513.60587 L 269.59449 513.60632 C 269.91849 513.67622 270.46816 514.67698 272.10949 518.06811 C 273.14386 520.20553 274.46731 522.93536 275.04998 524.13445 C 278.68762 531.61932 282.69913 541.40136 282.35486 541.94726 C 281.97232 542.55416 281.66707 542.07519 280.6087 539.2038 C 278.98059 534.78659 275.84411 527.79041 271.7906 519.53465 C 269.41543 514.69701 269.08617 513.86058 269.46725 513.62966 C 269.50685 513.60526 269.54817 513.59565 269.59449 513.60565 z M 278.1323 521.41456 C 278.1313 521.41856 278.12948 521.4226 278.12848 521.426 C 278.13348 521.4363 278.13834 521.44667 278.14284 521.45697 C 278.13984 521.44287 278.13582 521.42911 278.13252 521.41501 L 278.1323 521.41456 z M 259.75801 547.94448 C 259.67861 548.01728 259.75778 548.43053 260.02932 549.56564 C 260.49864 551.52746 260.46335 554.65221 259.95594 556.04939 L 259.55424 557.15575 L 260.01473 557.1672 L 273.63618 557.1672 L 273.63618 556.99664 C 273.58698 556.99064 273.5761 556.97704 273.48582 556.97644 C 271.39496 556.96244 267.4989 553.15043 266.0822 549.73238 C 265.83757 549.14218 265.54431 548.65867 265.43095 548.65767 C 264.7987 548.65167 260.03619 548.06154 259.88929 547.97074 C 259.82879 547.93334 259.78448 547.92028 259.75801 547.94448 z M 267.45852 551.20431 L 267.45852 551.20453 C 267.46252 551.20953 267.46657 551.21517 267.46997 551.22047 C 267.46897 551.21847 267.46705 551.21763 267.46705 551.21463 C 267.46697 551.21163 267.47291 551.2151 267.47491 551.21553 C 267.4748 551.21526 267.47502 551.21465 267.47491 551.21463 C 267.47291 551.21263 267.46602 551.20961 267.45852 551.20431 z M 259.95055 554.22603 C 259.94755 554.23943 259.94547 554.25348 259.94247 554.26688 C 259.93747 554.28748 259.93453 554.30812 259.93013 554.32882 C 259.93413 554.32799 259.93925 554.3278 259.94315 554.3268 C 259.94388 554.31 259.94345 554.29345 259.94404 554.27675 C 259.94604 554.25995 259.949 554.24273 259.951 554.22603 L 259.95055 554.22603 z M 272.96361 555.80927 L 272.96316 555.80949 C 272.96385 555.81045 272.96508 555.81231 272.96608 555.81331 C 272.97808 555.81831 272.99003 555.82405 273.00243 555.82835 C 272.98973 555.82235 272.97651 555.81597 272.96361 555.80927 z " /><path
       id="path135"
       style="display:inline;fill:#7ab890;fill-opacity:1;stroke:none;stroke-width:0.734458;stroke-linecap:round;stroke-linejoin:round;paint-order:stroke fill markers"
       d="m 253.33712,429.24325 c -18.42097,-0.61046 -32.75159,17.79803 -32.88534,36.78638 a 33.007187,38.120911 0 0 0 2.54352,13.66067 c 1.03071,2.54571 2.38468,5.01569 4.09691,7.3582 l 0.96428,1.31982 -0.43098,0.37155 a 33.007187,38.120911 0 0 0 0.1173,0.17932 c 0.45049,-0.42677 0.74504,-0.72855 1.25574,-1.20561 4.09095,-3.82152 5.43823,-5.8485 7.67912,-11.55537 4.42186,-11.26116 10.70568,-16.94846 19.16524,-17.34519 12.9788,-0.60868 22.42076,11.94316 18.44693,24.52253 l -0.48162,1.52549 0.5674,0.82527 c 1.19148,1.73175 1.61604,3.27406 1.77354,7.01663 a 33.007187,38.120911 0 0 0 0.38292,-0.43667 v -0.17208 l 0.86868,-0.84181 a 33.007187,38.120911 0 0 0 9.01547,-26.1767 l -5.1e-4,-0.10232 c -1.28619,-15.73943 -11.80959,-31.46171 -27.88926,-35.06194 -1.75923,-0.39389 -3.49136,-0.6119 -5.18934,-0.66817 z"
       inkscape:label="path135" /><path
       id="path138"
       style="display:inline;fill:#23432f;fill-opacity:1"
       d="m -181.95211,403.33115 c -8.77906,0.0452 -15.25396,5.75172 -19.82308,17.47128 -2.38218,6.11015 -3.85064,8.12726 -9.61905,13.2085 -5.69263,5.01448 -7.86839,8.9459 -7.94319,14.35313 -0.0534,3.86101 1.86419,8.78737 2.54248,6.53138 1.18245,-3.9328 6.09519,-8.08176 11.73675,-9.91257 4.56067,-1.48004 7.08608,-3.30798 8.40156,-6.08025 0.5085,-1.07162 1.67422,-4.91536 1.52342,-5.02295 -0.0351,-0.0251 -0.45522,-0.27039 -0.93379,-0.5457 -1.83457,-1.05539 -2.71956,-2.59951 -2.85564,-4.98264 -0.24132,-4.22613 2.73799,-6.62667 5.13043,-4.1336 l 0.82528,0.8599 2.5585,-0.90124 c 7.79226,-2.74422 14.3583,-7.45635 16.23673,-11.65252 0.45592,-1.01846 0.39074,-1.08278 1.93528,1.90583 0.68701,1.32934 2.01413,3.67831 2.94918,5.22035 3.07124,5.06498 3.31921,5.85312 2.68976,8.55607 -0.0923,0.39637 -0.0511,0.53175 0.16226,0.53175 1.54518,0 2.95909,3.82884 2.92799,7.9282 -0.0342,4.49849 -0.76741,6.58546 -3.83749,10.92439 -1.91797,2.71065 -1.87685,2.54863 -0.85008,3.33778 1.6493,1.2676 4.19165,5.81684 6.47971,11.59516 1.0673,2.69538 1.22552,2.73184 1.62419,0.37414 0.29639,-1.75284 0.12515,-4.82379 -0.40618,-7.28224 -1.95136,-9.0289 -2.11873,-10.29679 -2.11873,-16.02125 0,-5.33276 -0.43984,-7.64716 -1.8216,-9.59063 l -0.6444,-0.90692 0.37,-0.97307 c 4.49289,-11.82432 -4.57054,-24.85748 -17.24029,-24.79228 z m -14.04566,22.69009 c -0.015,-6.6e-4 -0.0263,0.0129 -0.0408,0.0139 5.7e-4,0.0107 0.001,0.0214 0.001,0.032 0.0156,-0.0134 0.0221,-0.0341 0.0393,-0.046 z m 32.04714,5.42861 c 0.0146,-7.7e-4 0.0684,0.0809 0.17364,0.24494 0.12155,0.19011 0.1789,0.45088 0.1266,0.57981 -0.0687,0.16866 -0.0996,0.15332 -0.11058,0.008 -0.008,-0.12424 -0.0654,-0.38552 -0.12661,-0.58032 -0.0527,-0.16743 -0.0771,-0.2505 -0.063,-0.25218 z m 0.65164,1.82573 c 0.0116,0.004 0.0243,0.0221 0.0377,0.0553 0.0536,0.13293 0.0536,0.35075 0,0.48369 -0.0536,0.13293 -0.0977,0.024 -0.0977,-0.24185 0,-0.13295 0.0108,-0.22646 0.0284,-0.27026 h 5.2e-4 c 0.009,-0.0219 0.0194,-0.0312 0.031,-0.0269 z m 0.20671,1.11517 c 0.01,0.008 0.021,0.0404 0.0326,0.10025 0.0461,0.23929 0.0461,0.63096 0,0.87024 -0.0461,0.23928 -0.0837,0.0434 -0.0837,-0.43512 0,-0.35892 0.0211,-0.5588 0.0512,-0.53537 z m -26.15396,13.32839 c 0.034,0.0279 0.072,0.0516 0.10645,0.0791 0.004,-0.0104 0.009,-0.0207 0.014,-0.031 -0.0405,-0.0152 -0.0799,-0.033 -0.12041,-0.0481 z m 5.24206,1.28157 v 5.2e-4 c -4.5e-4,0.006 -0.006,0.0106 -0.006,0.0165 0.0233,0.0178 0.0489,0.0325 0.0723,0.0501 0.002,-0.0122 0.005,-0.0238 0.008,-0.0357 -0.0252,-0.0112 -0.0502,-0.0221 -0.0739,-0.0315 z m 23.37583,14.80892 c 0.0203,-0.0203 0.0472,0.007 0.078,0.0837 0.0558,0.13958 0.0493,0.30622 -0.015,0.37052 -0.0643,0.0642 -0.1098,-0.0499 -0.1018,-0.25373 0.005,-0.11235 0.0184,-0.17999 0.0388,-0.2005 z"
       transform="translate(438.45286,57.207868)" /><path
       id="rect134"
       style="display:inline;fill:#23432f;fill-opacity:1;stroke-width:0.512472;stroke-linecap:round;stroke-linejoin:round;stroke-opacity:0.984655;paint-order:stroke fill markers"
       d="m 264.68669,469.09866 c -0.13678,0.003 -0.23469,0.25059 -0.40566,0.63252 -1.87843,4.19617 -8.44448,8.9083 -16.23674,11.65252 l -2.5585,0.90123 -0.82527,-0.85989 c -2.39244,-2.49307 -5.37176,-0.0925 -5.13044,4.13359 0.13608,2.38313 1.02107,3.92726 2.85564,4.98265 0.47857,0.27531 0.8987,0.5206 0.9338,0.5457 0.1508,0.10759 -1.01493,3.95133 -1.52343,5.02295 -1.31548,2.77227 -3.84088,4.60021 -8.40155,6.08025 -3.34938,1.08695 -6.4204,2.99854 -8.6279,5.18934 -0.0396,0.18583 -0.0676,0.37372 -0.11472,0.55811 -6.7e-4,0.003 -10e-4,0.006 -0.002,0.009 2.21567,-2.20862 5.35717,-4.14072 8.7819,-5.23018 1.0872,-0.34587 2.01823,-0.72228 2.88354,-1.11569 l 0.004,0.006 c 0.008,0.0128 0.0169,0.0255 0.0253,0.0382 0.0243,-0.10872 0.0964,-0.16536 0.22427,-0.16536 2.10651,0 5.57151,-4.26782 6.6089,-8.14007 0.63431,-2.36765 0.62974,-2.41475 -0.28008,-2.8789 -2.068,-1.05502 -2.98132,-2.62348 -2.98432,-5.12682 -0.005,-4.0696 2.41274,-5.76857 4.63848,-3.25923 0.70822,0.79846 0.83335,0.86711 1.21181,0.66456 0.2321,-0.12421 1.4394,-0.57646 2.68252,-1.00511 6.82785,-2.35434 12.81342,-6.46217 15.53756,-10.66291 l 0.72295,-1.11466 1.20975,2.27479 c 0.66523,1.25112 1.93449,3.46139 2.82101,4.91185 2.57244,4.20883 3.36898,6.27045 2.80035,7.24917 -0.11551,0.19879 -0.21301,0.26132 -0.21601,0.13849 -0.003,-0.12283 -0.37536,-0.44022 -0.82734,-0.70538 -0.45198,-0.26516 -1.51419,-1.01302 -2.36006,-1.66192 -1.6765,-1.28611 -2.13145,-1.41998 -2.44998,-0.72088 -0.43705,0.95921 3.66484,4.32191 5.01313,4.10982 0.53309,-0.0839 0.62209,-0.0466 0.54209,0.22738 -0.0526,0.18028 -0.27596,1.10283 -0.49662,2.05052 -1.68347,7.23041 -3.26827,10.53117 -5.97017,12.4349 -3.31107,2.33295 -4.67261,3.63052 -5.67718,5.41052 -1.44261,2.55618 -8.62384,-0.77586 -12.35015,-5.7304 -1.20319,-1.59978 -1.52008,-0.0413 -0.4346,2.13682 1.59129,3.19304 4.90086,5.39141 8.1163,5.39141 1.40231,0 1.4306,0.0476 0.65991,1.11156 -1.60854,2.22052 -5.16201,3.52234 -8.03813,2.94504 -3.55486,-0.71353 -7.37926,-3.72557 -9.72254,-7.65638 -0.4951,-0.83054 -0.79629,-1.41777 -0.92294,-1.80558 -0.2597,0.37103 -0.61293,1.61778 0.21196,2.97438 3.319,5.45799 9.91517,8.50808 14.19513,7.41882 2.02436,-0.5149 3.33803,-1.62097 4.19248,-2.47344 0.0619,-0.0247 0.50906,-0.81476 0.56826,-0.84516 0.18278,-0.095 -0.13307,0.14774 5.1e-4,-10e-5 0.12261,-0.12702 0.22803,-0.27086 0.32143,-0.41961 0.0978,-0.1615 0.19618,-0.32108 0.29248,-0.48369 0.11328,-0.19094 0.21586,-0.38926 0.31316,-0.58859 0.095,-0.19738 0.17254,-0.40092 0.25994,-0.60152 0.003,-0.007 0.006,-0.0142 0.009,-0.0212 0.53195,0.0426 1.02043,0.0179 1.43609,-0.10542 0.30091,0.003 0.60241,10e-4 0.9033,0.002 0.0294,2e-5 0.0601,-2e-5 0.0894,0 -0.0867,0.18151 -0.16448,0.36595 -0.23668,0.55191 -0.0881,0.15402 -0.15285,0.34142 -0.18655,0.56069 -0.50625,1.6967 -0.43597,3.6391 0.10542,6.2084 0.21308,1.01133 0.68519,3.67223 1.04903,5.91385 2.54898,15.70305 4.08581,23.29143 6.03064,27.86497 -0.0145,-1.1e-4 -0.0289,-4.1e-4 -0.0434,-5.2e-4 -0.0934,-0.002 -0.18689,-0.004 -0.28009,-0.0103 -0.0684,-0.005 -0.13846,-0.007 -0.20516,-0.0233 -0.0461,-0.0109 -0.0878,-0.016 -0.12505,-0.014 -0.0199,10e-4 -0.0385,0.003 -0.0558,0.007 -0.3578,-0.0287 -1.14715,-0.47052 -2.49983,-0.61516 -1.3993,-0.14945 -2.23707,0.007 -2.62695,0.0722 -0.0221,-0.004 -0.30316,-0.009 -0.32526,-0.0141 -0.19017,-0.0172 -0.18166,-0.0481 -0.31729,-0.0815 -0.33448,-0.12349 -0.19006,-0.0599 -0.33448,-0.12349 -0.0646,-0.13594 -0.0823,-0.206 -0.15737,-0.3024 -0.55134,-0.69679 -1.58631,-0.89717 -15.39234,-2.97087 -5.6649,-0.85092 -5.99725,-0.94228 -6.00325,-1.66347 -0.002,-0.18411 -0.21919,-2.615 -0.48369,-5.40225 -0.26449,-2.78742 -0.74405,-8.1552 -1.06557,-11.92847 -0.32151,-3.77361 -0.6362,-6.99354 -0.6997,-7.15564 -0.0727,-0.18587 -0.21757,-0.28177 -0.36174,-0.28577 -0.14417,-0.004 -0.28795,0.0843 -0.35915,0.26613 -0.1301,0.33226 1.55731,20.57478 2.05311,24.62951 0.0361,0.29586 -0.2254,0.4321 -1.50275,0.78083 -3.53961,0.96528 -3.85054,1.90143 -0.34314,1.03198 l 1.56735,-0.38913 6.92878,1.04077 c 3.81081,0.57241 8.66018,1.27806 10.77608,1.56734 3.83702,0.52488 3.84784,0.52697 4.19923,1.09348 0.96173,1.55017 1.27321,6.02624 0.55811,8.0207 -0.20847,0.58134 -0.29848,0.94519 -0.29559,1.12758 h 0.31471 0.69453 0.15348 l 0.22944,-0.63201 c 0.50741,-1.39718 0.54198,-4.52202 0.0734,-6.48384 -0.27154,-1.13511 -0.3507,-1.54829 -0.2713,-1.62109 0.0265,-0.0242 0.0708,-0.011 0.13126,0.0264 0.1469,0.0908 4.90953,0.68078 5.54178,0.68678 0.11336,10e-4 0.40649,0.48467 0.65112,1.07487 1.32142,3.18817 4.79906,6.71633 6.95772,7.18819 h 0.27853 c 0.1797,-10e-6 0.3598,0 0.5395,0 h 0.54106 0.11007 c 3.4e-4,-0.0167 10e-4,-0.0334 10e-4,-0.0501 9e-5,-0.0345 10e-4,-0.0688 10e-4,-0.10335 0.003,-0.24148 0.0306,-0.45747 0.0786,-0.64906 -0.004,-0.006 -0.007,-0.0113 -0.0109,-0.0171 -0.007,-0.0102 -0.0153,-0.0199 -0.0243,-0.0289 -0.006,-0.006 -0.0131,-0.0121 -0.0202,-0.0181 -0.007,-0.006 -0.0137,-0.0126 -0.0207,-0.0186 0,-0.002 0.002,-0.003 0.002,-0.005 -3e-4,-0.004 -0.0394,-0.025 -0.0424,-0.03 -0.009,-0.008 -0.0179,-0.0169 -0.0279,-0.0238 -0.006,-0.005 -0.0121,-0.007 -0.0171,-0.009 h -5.2e-4 c -0.11775,-0.11934 -0.62973,-0.4109 -1.31464,-0.72967 -5.77703,-2.69066 -7.99955,-8.933 -12.00547,-33.71577 -0.37558,-2.32348 -0.7323,-4.30106 -0.7922,-4.39766 -0.006,-0.0101 -0.0237,-0.0854 -0.0372,-0.14625 0.0623,-0.006 0.12467,-0.009 0.18707,-0.0124 0.16509,0.003 0.32704,-0.0158 0.48834,-0.0496 0.15388,-0.0274 0.30365,-0.0684 0.45217,-0.11782 0.11356,-0.035 0.22296,-0.0796 0.32763,-0.13436 0.52621,-0.1466 1.24703,-0.43502 2.30425,-0.84904 5.76152,-2.25688 5.72267,-1.98927 4.82529,-4.20368 l -0.65291,-1.45573 0.48005,-1.45179 c 0.11024,-0.22295 0.32563,-0.57286 0.5302,-0.91054 l 10e-4,0.0103 c 0.0376,4e-4 0.0747,0.006 0.11162,0.0129 0.0349,0.008 0.0692,0.0174 0.10232,0.031 0.0294,0.0136 0.0587,0.0267 0.0894,0.0372 0.0239,0.006 0.0459,0.0148 0.0682,0.0248 0.0234,0.009 0.044,0.0236 0.0651,0.0372 0.007,0.003 0.0142,0.007 0.0212,0.0124 0.0839,0.18617 0.28652,0.34807 0.61856,0.59842 1.6493,1.24243 4.19165,5.70224 6.47971,11.36675 0.1155,0.28596 0.2023,0.47555 0.29611,0.68884 -4.9e-4,-0.0253 -0.002,-0.0507 -0.003,-0.076 -0.10454,-0.24726 -0.20443,-0.47959 -0.33435,-0.8077 -2.28806,-5.77832 -4.83041,-10.32756 -6.47971,-11.59516 -1.02677,-0.78915 -1.06789,-0.62713 0.85008,-3.33778 3.07008,-4.33893 3.80329,-6.42591 3.83749,-10.9244 0.0311,-4.09936 -1.3828,-7.9282 -2.92798,-7.9282 -0.21336,0 -0.25457,-0.13538 -0.16227,-0.53175 0.62945,-2.70295 0.38148,-3.49109 -2.68976,-8.55607 -0.93505,-1.54204 -2.26216,-3.89101 -2.94917,-5.22035 -0.96347,-1.86425 -1.30013,-2.5395 -1.52807,-2.53731 z m -5.47047,10.71562 c -0.27642,0.008 -0.58612,0.0416 -0.92553,0.10646 -0.83112,0.15902 -2.18172,0.28938 -3.00188,0.28938 -1.58938,0 -1.95544,0.16825 -1.95544,0.89917 0,0.87004 3.25652,1.12427 5.83737,0.45579 2.30035,-0.59581 1.97969,-1.8057 0.0455,-1.7508 z m -16.74885,2.9807 c -0.15631,-0.028 -0.30534,0.006 -0.43977,0.1173 -0.42595,0.3535 -0.36983,0.78011 0.28423,2.16266 0.31896,0.67422 0.57971,1.31545 0.5798,1.42472 6.1e-4,0.79207 0.77165,1.20746 1.25316,0.67541 0.85802,-0.94809 -0.58325,-4.18381 -1.67742,-4.38009 z m -0.0129,0.43408 c -0.0172,0.0119 -0.0237,0.0326 -0.0393,0.046 0,-0.0106 -10e-4,-0.0213 -10e-4,-0.032 0.0143,-9.8e-4 0.0256,-0.0143 0.0403,-0.014 z m 10.20248,1.76113 c -0.53164,0.0204 -0.83789,0.71977 -0.35967,1.72755 0.78602,1.65642 3.00111,2.36603 4.71031,1.50895 1.98156,-0.99364 1.38482,-2.47329 -0.65629,-1.62729 -1.24807,0.51729 -1.86979,0.3191 -2.61535,-0.83303 -0.36003,-0.55635 -0.76002,-0.78838 -1.079,-0.77618 z m 9.98595,0.80254 c -0.15541,-0.0109 -0.35747,0.0877 -0.60203,0.30902 -1.13154,1.02403 -1.38812,3.78408 -0.57826,6.21771 0.22311,0.67044 0.37765,1.46132 0.34365,1.75752 l -0.062,0.53847 h -1.54667 c -1.54627,0 -1.54668,2.8e-4 -1.60818,0.53536 -0.12325,1.07234 2.4593,1.70326 3.73776,0.91313 1.20438,-0.74435 1.33505,-2.08984 0.47439,-4.89066 -0.46185,-1.503 -0.46223,-1.51242 -0.11575,-2.70681 0.47151,-1.62536 0.42335,-2.64114 -0.0429,-2.67374 z m 9.42992,0.80667 c 0.0545,-0.0201 0.1434,-0.002 0.26458,0.045 0.53281,0.20445 0.95676,0.61834 1.29863,1.16375 v 10.46964 c -0.65087,2.2271 -1.59214,4.42877 -2.87683,6.25285 -0.95275,1.35277 -2.0368,3.09448 -2.40863,3.87057 -0.73389,1.53177 -0.73355,1.53538 0.0434,3.47886 0.49701,1.24313 0.42136,1.21249 -0.0177,1.36662 -0.18611,0.0652 -1.24572,0.54953 -2.24655,0.96913 -3.51264,1.47267 -5.54068,2.22857 -5.63648,2.07349 -0.13887,-0.2247 -0.55162,-2.42241 -0.88938,-4.52138 -0.66447,-4.12931 0.77261,-6.71195 5.641,-10.1384 2.95401,-2.07908 4.19241,-4.06103 5.62033,-8.99532 0.85376,-2.95027 0.90444,-3.00308 1.22887,-1.28364 0.44092,2.33678 -0.0576,6.0084 -1.09296,8.0517 -0.74313,1.4665 0.0186,2.11379 0.9896,0.84078 1.94287,-2.54724 2.21694,-8.47046 0.55914,-12.08763 -0.49597,-1.08231 -0.64043,-1.49538 -0.47697,-1.55598 z m -7.87962,0.8046 c -0.62966,0.0685 -0.7709,1.28847 -0.10749,2.07688 1.19266,1.4174 2.7919,1.64816 4.13618,0.59686 1.30816,-1.02304 0.95605,-2.05684 -0.46612,-1.36839 -1.10211,0.53353 -2.07607,0.30837 -2.53938,-0.58756 -0.1604,-0.31019 -0.32572,-0.56431 -0.36742,-0.56431 -0.0418,0 -0.20207,-0.0482 -0.35657,-0.10749 -0.10895,-0.042 -0.2093,-0.056 -0.2992,-0.046 z m -1.52187,1.44797 c 6.5e-4,0.0199 10e-4,0.0395 0.002,0.0594 0.004,-0.0152 0.009,-0.0294 0.0124,-0.045 -0.005,-0.005 -0.009,-0.01 -0.014,-0.0145 z m -44.23555,1.0325 v 0.20567 c 0.0226,-0.0326 0.0448,-0.0655 0.0672,-0.0982 -0.0223,-0.0362 -0.0452,-0.0708 -0.0672,-0.10749 z m 37.69641,8.34884 c -0.84308,9.6e-4 -1.66403,0.15375 -2.33991,0.50023 -1.75606,0.90023 -1.05881,2.25258 0.76791,1.48932 1.56834,-0.65529 4.14876,-0.15199 4.87102,0.95033 0.45359,0.69228 1.38528,0.70057 1.55753,0.015 0.4002,-1.5945 -2.32731,-2.95786 -4.85655,-2.95486 z m -19.78753,3.41165 c -0.006,-0.0978 -0.45491,-0.0689 -0.39401,0.11875 0.0344,-0.0492 0.16577,0.4613 0.21908,0.41549 -0.0631,-0.094 0.1998,-0.12747 0.19291,-0.24017 z m 12.86185,3.282 c 0.0405,0.0151 0.0799,0.0329 0.12041,0.0481 -0.005,0.0103 -0.0101,0.0206 -0.0139,0.031 -0.0344,-0.0275 -0.0725,-0.0512 -0.10646,-0.0791 z m 5.24206,1.28158 h 5.2e-4 c 0.0237,0.009 0.0487,0.0203 0.0739,0.0315 -0.003,0.0119 -0.006,0.0235 -0.008,0.0357 -0.0234,-0.0176 -0.049,-0.0323 -0.0723,-0.0501 0,-0.006 0.005,-0.0105 0.006,-0.0165 z m 4.83692,5.75985 h 5.1e-4 c 8e-5,10e-4 4.4e-4,0.002 5.2e-4,0.002 0.004,0.0125 0.011,0.0241 0.015,0.0367 0.001,0.0208 0.002,0.0413 0.002,0.062 -0.004,-0.0286 -0.013,-0.0702 -0.017,-0.0987 0,-0.001 -10e-4,-0.001 -10e-4,-0.002 z m 10.30893,1.63711 c -0.0463,-0.01 -0.0875,-4.7e-4 -0.12713,0.0243 -0.38108,0.23092 -0.0518,1.06743 2.32338,5.90507 4.05351,8.25576 7.18995,15.25187 8.81806,19.66908 1.05837,2.87139 1.36361,3.3504 1.74615,2.7435 0.34427,-0.5459 -3.66734,-10.328 -7.30498,-17.81287 -0.58267,-1.19909 -1.90602,-3.92887 -2.94039,-6.06629 -1.64133,-3.39113 -2.19109,-4.39184 -2.51509,-4.46174 v -5.2e-4 z m -2.13579,37.59874 c 0.007,0.005 0.0145,0.008 0.0165,0.0103 1.1e-4,2e-5 -1.1e-4,10e-4 0,10e-4 -0.002,-4.3e-4 -0.008,-0.004 -0.008,-10e-4 0,0.003 0.002,0.004 0.003,0.006 -0.003,-0.005 -0.007,-0.011 -0.0114,-0.016 z m -7.50807,3.02411 c -0.002,0.016 -0.005,0.0325 -0.007,0.0486 -5.9e-4,0.0167 7e-4,0.0333 0,0.0501 -0.004,10e-4 -0.008,10e-4 -0.0124,0.002 0.004,-0.0207 0.007,-0.0414 0.0124,-0.062 0.003,-0.0129 0.004,-0.0258 0.007,-0.0388 z m 26.46454,0.14314 c -0.0313,0.0448 -0.0628,0.0894 -0.0966,0.13281 -0.006,0.008 -0.0133,0.0144 -0.0196,0.0217 0.0224,0.0134 0.0437,0.0231 0.0661,0.0367 0.0167,0.0101 0.0334,0.0198 0.0501,0.0295 z m -13.4519,1.43764 h 5.2e-4 c 0.0129,0.007 0.0261,0.0131 0.0388,0.0191 -0.0124,-0.004 -0.0242,-0.01 -0.0362,-0.015 -10e-4,-10e-4 -0.002,-0.003 -0.003,-0.004 z"
       transform="translate(1.3004415e-4,3.4609867e-5)"
       sodipodi:nodetypes="cccccsscsscccscccssccssccccsssssscccssssscsscccccccccccccccccccccccccccccccccccssccccsccccccccccccccssccccccsccccccccscccccccccccccccccccscccsscscssccscsscssccscsccccccsssscsssccsssssssccccssccscsssscccccsssssscsscccccccccccssscccsccsscccccccccccccccccccccccscccccccccscccscccccsccccccccccsc" /></g></svg>
