<?xml version="1.0" encoding="UTF-8" standalone="no"?>
<!-- Created with Inkscape (http://www.inkscape.org/) -->

<svg
   width="793.70081"
   height="1122.5197"
   viewBox="0 0 210 296.99999"
   version="1.1"
   id="svg1"
   xml:space="preserve"
   sodipodi:docname="phlegmatic.svg"
   inkscape:version="1.4 (86a8ad7, 2024-10-11)"
   xmlns:inkscape="http://www.inkscape.org/namespaces/inkscape"
   xmlns:sodipodi="http://sodipodi.sourceforge.net/DTD/sodipodi-0.dtd"
   xmlns="http://www.w3.org/2000/svg"
   xmlns:svg="http://www.w3.org/2000/svg"><sodipodi:namedview
     id="namedview1"
     pagecolor="#505050"
     bordercolor="#eeeeee"
     borderopacity="1"
     inkscape:showpageshadow="0"
     inkscape:pageopacity="0"
     inkscape:pagecheckerboard="0"
     inkscape:deskcolor="#505050"
     inkscape:document-units="px"
     inkscape:zoom="0.34609638"
     inkscape:cx="261.48785"
     inkscape:cy="706.45061"
     inkscape:window-width="1920"
     inkscape:window-height="991"
     inkscape:window-x="-9"
     inkscape:window-y="-9"
     inkscape:window-maximized="1"
     inkscape:current-layer="svg1" /><defs
     id="defs1"><filter
       id="mask-powermask-path-effect16_inverse"
       inkscape:label="filtermask-powermask-path-effect16"
       style="color-interpolation-filters:sRGB"
       height="100"
       width="100"
       x="-50"
       y="-50"><feColorMatrix
         id="mask-powermask-path-effect16_primitive1"
         values="1"
         type="saturate"
         result="fbSourceGraphic" /><feColorMatrix
         id="mask-powermask-path-effect16_primitive2"
         values="-1 0 0 0 1 0 -1 0 0 1 0 0 -1 0 1 0 0 0 1 0 "
         in="fbSourceGraphic" /></filter><pattern
       patternUnits="userSpaceOnUse"
       width="229.96177"
       height="235.18179"
       patternTransform="translate(1865.9072,1529.9658)"
       preserveAspectRatio="xMidYMid"
       id="pattern16"><path
         style="fill:#f06338;fill-opacity:1;stroke:none;stroke-width:0.495347;stroke-linecap:round;stroke-linejoin:round;paint-order:stroke fill markers"
         id="path9216"
         sodipodi:type="arc"
         sodipodi:cx="114.98088"
         sodipodi:cy="117.59088"
         sodipodi:rx="114.98088"
         sodipodi:ry="117.59088"
         sodipodi:start="0"
         sodipodi:end="6.272498"
         sodipodi:open="true"
         sodipodi:arc-type="arc"
         d="M 229.96176,117.59088 A 114.98088,117.59088 0 0 1 115.28809,235.18134 114.98088,117.59088 0 0 1 0.00164161,118.21924 114.98088,117.59088 0 0 1 114.05926,0.00377746 114.98088,117.59088 0 0 1 229.9552,116.33418"
         mask="none" /><path
         id="path9215"
         style="fill:#222b00;fill-opacity:1;stroke:none;stroke-width:1.87218;stroke-linecap:round;stroke-linejoin:round;paint-order:stroke fill markers"
         d="m 160.96536,89.201313 c -7.30961,-0.197291 -15.70542,1.604788 -24.29296,5.794923 -9.73175,4.748409 -11.69351,5.297194 -23.00587,6.431664 -23.308835,2.33752 -34.287115,9.70204 -34.287115,22.99804 0,2.59888 -0.212031,2.8495 -3.976554,4.69138 -18.629821,9.11471 -22.044019,32.04057 -8.693367,58.38675 1.637065,3.23085 1.909039,4.74602 1.992189,11.07223 0.163276,12.44973 9.89246,25.22487 19.212888,25.23243 1.801285,0.001 3.158211,2.33912 3.158211,5.44335 0,1.62373 0.189354,2.56048 0.667956,3.26956 a 114.98089,117.59088 0 0 0 23.240242,2.66015 114.98089,117.59088 0 0 0 77.14843,-30.91601 c 0.74574,-19.99366 -3.68307,-43.6995 -11.35154,-58.96876 -1.59323,-3.17234 -1.64194,-3.07978 3.00192,-5.65039 8.55561,-4.73598 8.86349,-15.38366 0.57816,-19.97851 -1.1873,-0.65843 -1.23039,-1.07784 -0.43556,-4.23439 3.94878,-15.682055 -6.87594,-25.798036 -22.95703,-26.232417 z m -0.88283,0.150425 c 6.48631,-0.17537 11.62866,1.888366 16.36135,6.16407 5.76971,5.212722 8.78083,16.360402 5.8828,21.775412 -0.70186,1.31142 -0.56206,1.74485 0.91408,2.84375 4.92729,3.66803 5.68675,4.47145 6.12888,6.48435 1.71855,7.82456 -8.25215,16.99755 -12.69336,11.67775 l -1.99022,-2.38476 -4.76368,1.19531 c -6.00257,1.50724 -12.59388,1.51495 -23.70312,0.0265 -8.96402,-1.20027 -28.37064,-1.05634 -33.90625,0.25209 l -2.51172,0.59376 0.16781,11.30665 c 0.19804,13.22158 -0.52868,16.81946 -5.30468,26.26564 -2.70822,5.35646 -3.21986,7.11076 -3.64063,12.44727 -0.35641,4.51793 -0.82334,6.45758 -1.707027,7.12301 -2.005795,1.50754 -3.012812,1.06726 -5.031231,-2.19334 -6.864907,-11.08989 -15.959509,-13.3951 -22.443364,-5.68947 -2.589128,3.07699 -2.92388,2.90014 -5.533228,-2.93552 -11.703232,-26.17384 -7.244977,-48.26045 11.062526,-54.81445 1.507313,-0.53961 2.756485,-1.1621 2.775382,-1.38282 0.0189,-0.22072 0.191244,-2.20562 0.382829,-4.41018 1.116888,-12.85432 11.232567,-19.25953 33.484343,-21.20115 11.14848,-0.97281 10.87616,-0.89862 21.63871,-5.876972 10.1122,-4.677543 17.94334,-7.091981 24.42965,-7.267578 z M 183.0181,166.3166 c 0.26344,0.13153 0.47717,0.38453 0.7578,0.72265 1.37594,1.65792 -0.89881,3.77265 -7.6543,7.11915 -10.56922,5.23574 -18.08893,4.60929 -13.87306,-1.15627 0.86109,-1.17762 1.19543,-1.24203 2.18362,-0.42187 1.75049,1.45274 5.21178,0.50498 11.7461,-3.21876 4.81262,-2.74257 6.04905,-3.43907 6.83984,-3.0449 z m -53.24417,2.17383 c 2.34543,0.12473 6.12628,0.91624 11.86133,2.40235 11.53667,2.98949 13.08896,3.77627 11.19141,5.67382 -2.15301,2.15301 -26.30857,-3.79343 -26.30857,-6.47656 0,-1.18136 0.91045,-1.72425 3.25583,-1.59961 z m 45.31839,11.53905 c 0.86427,0.0586 1.87208,0.6127 2.95703,1.76757 2.28933,2.43686 2.96126,9.65341 1.15623,12.40823 -2.13645,3.26064 -4.66722,1.6148 -6.30663,-4.10158 -1.70876,-5.95827 -0.39946,-10.24974 2.19337,-10.07422 z m -32.49025,2.1758 c 0.48589,-0.008 0.9993,0.15383 1.52931,0.50778 2.47937,1.65551 3.42916,10.30953 1.54295,14.05667 -1.52969,3.03889 -4.68994,2.88442 -6.01757,-0.29291 -2.53947,-6.07783 -0.45581,-14.22603 2.94531,-14.27146 z m 19.34377,0.31257 c 8.1594,0 14.51354,32.70024 6.96677,35.8535 -3.26518,1.36434 -5.10702,1.33047 -6.55858,-0.12094 -1.57894,-1.57894 -0.22942,-3.21094 2.65429,-3.21094 7.05422,0 7.22158,-5.47608 0.56836,-18.55857 -5.10104,-10.03042 -6.12404,-13.9629 -3.63084,-13.9629 z m -80.109392,11.0488 c 0.869292,0.10659 2.057877,0.51096 3.531251,1.28909 3.664781,1.93546 7.245241,7.13764 7.417965,10.77929 0.187465,3.95542 -1.869052,3.51745 -3.906255,-0.83203 -1.194217,-2.54971 -2.840769,-4.50467 -5.253884,-6.2383 -4.124674,-2.96337 -4.396951,-5.31821 -1.789077,-4.99805 z m 11.429707,32.43557 c 0.401991,0 0.73047,0.98559 0.73047,2.19141 0,1.20586 -0.328441,2.19333 -0.73047,2.19333 -0.40199,0 -0.730469,-0.98747 -0.730469,-2.19333 0,-1.20582 0.328441,-2.19141 0.730469,-2.19141 z"
         mask="none" /></pattern><filter
       id="mask-powermask-path-effect12_inverse"
       inkscape:label="filtermask-powermask-path-effect12"
       style="color-interpolation-filters:sRGB"
       height="100"
       width="100"
       x="-50"
       y="-50"><feColorMatrix
         id="mask-powermask-path-effect12_primitive1"
         values="1"
         type="saturate"
         result="fbSourceGraphic" /><feColorMatrix
         id="mask-powermask-path-effect12_primitive2"
         values="-1 0 0 0 1 0 -1 0 0 1 0 0 -1 0 1 0 0 0 1 0 "
         in="fbSourceGraphic" /></filter></defs><g
     id="g101"
     transform="matrix(2.6317376,0,0,2.6317376,214.351,-775.4536)"><path
       id="path97"
       style="display:inline;fill:#397797;stroke-width:0.996885"
       d="M -108.54873 311.93961 C -108.56934 311.93973 -108.5952 311.94597 -108.6259 311.95767 C -114.73403 314.28713 -122.48292 314.60048 -128.12804 312.74625 C -128.59931 312.59162 -129.56083 314.42962 -129.98264 316.29229 C -130.10063 316.81333 -130.2514 317.24361 -130.34846 317.38208 C -130.37696 317.73879 -130.43152 318.10498 -130.51026 318.40825 C -133.357 329.36993 -131.60663 339.8808 -126.90433 343.8899 C -126.81613 343.9553 -126.72909 344.0229 -126.63905 344.08489 C -126.59105 344.12259 -126.53998 344.15249 -126.49139 344.18876 C -125.37885 344.92322 -124.1271 345.39719 -122.76391 345.60156 L -121.94333 345.68874 C -119.16185 345.87699 -115.95813 344.98604 -112.50771 342.85234 C -111.77685 342.40033 -111.38613 342.75771 -111.78943 343.51015 C -113.09575 345.94543 -117.55805 348.51871 -121.10056 348.87937 C -121.61052 348.93127 -121.94019 348.97657 -122.16659 349.10106 C -122.19799 349.3887 -122.22582 349.79063 -122.25652 350.02493 C -122.28062 350.03293 -122.30468 350.04126 -122.32878 350.05026 C -122.39148 350.07376 -122.45478 350.0947 -122.51748 350.118 C -122.54678 350.1294 -122.57527 350.14262 -122.60427 350.15472 C -122.62837 350.50054 -122.63329 350.9364 -122.63569 351.5257 C -122.64569 353.9558 -122.05741 354.81247 -119.89786 355.51669 L -119.89786 355.5161 C -116.10593 356.75262 -109.12799 353.58157 -105.39246 348.92473 L -104.67143 348.02659 L -105.04922 346.91461 C -105.39309 345.90233 -106.17334 339.56059 -106.23994 337.23668 L -106.26468 336.37251 L -104.91118 336.37055 C -102.11591 336.36555 -99.815504 334.07789 -99.085224 330.93318 L -99.085224 327.00208 C -99.999284 323.92213 -103.23795 324.01416 -105.08692 327.89826 C -105.43304 328.62534 -105.71367 328.97509 -105.95149 328.97509 C -106.41069 328.97509 -107.52111 328.58872 -107.52511 328.42745 C -107.54871 327.57461 -108.15845 324.58248 -108.49041 323.6903 C -109.42531 321.17782 -109.50327 320.70734 -109.52797 317.43019 L -109.55192 314.24486 L -108.9275 313.03961 C -108.51138 312.23633 -108.40445 311.93876 -108.54873 311.93961 z M -128.0597 318.95393 L -128.0597 318.95413 L -128.0597 318.95511 C -126.21271 318.90861 -124.12314 319.84771 -124.93171 320.81698 C -125.21518 321.15646 -125.54779 321.14194 -126.61175 320.74354 C -127.3009 320.48591 -127.59987 320.4739 -128.51957 320.665 C -130.28205 321.03241 -131.05993 320.18186 -129.7097 319.36373 C -129.2644 319.09389 -128.67546 318.96942 -128.0597 318.95393 z M -117.35443 319.55086 C -115.1479 319.44931 -112.45234 320.32184 -112.45234 321.48048 C -112.45234 322.35074 -113.01601 322.41431 -114.38608 321.69804 C -115.39055 321.1728 -115.33709 321.17686 -118.93001 321.34401 C -120.11207 321.39941 -120.32797 320.57093 -119.27992 320.00249 C -118.77104 319.72644 -118.08994 319.58469 -117.35443 319.55086 z M -123.45411 323.42286 C -123.39354 323.42138 -123.33774 323.42476 -123.28681 323.43366 L -123.28681 323.43385 C -122.57376 323.55495 -122.81789 324.76756 -124.27489 329.59225 C -125.39579 333.30404 -125.21473 333.94477 -123.01446 334.06274 C -121.5695 334.14074 -121.19049 334.59887 -122.06684 335.20889 C -122.66909 335.62802 -124.29499 335.59615 -125.02066 335.15037 C -126.82865 334.04057 -126.88975 333.23685 -125.52609 328.47241 C -124.08836 323.44858 -124.10923 323.50575 -123.65027 323.44053 C -123.58018 323.43053 -123.51468 323.42433 -123.45411 323.42286 z M -127.6768 323.65201 C -127.603 323.65121 -127.52724 323.66207 -127.44942 323.68657 C -126.21233 324.07683 -126.13193 327.6224 -127.34967 328.08677 C -127.90164 328.29729 -128.1957 328.21616 -128.48718 327.77357 C -129.39721 326.39163 -128.78309 323.66398 -127.6768 323.65201 z M -117.23445 324.47612 C -117.16145 324.47012 -117.08737 324.47605 -117.01139 324.49576 C -116.16953 324.71454 -115.81883 326.87645 -116.42526 328.10994 C -116.74554 328.76131 -117.72845 329.00653 -118.12337 328.53368 C -119.04185 327.4338 -118.32884 324.56948 -117.23445 324.47612 z M -101.87941 327.24498 C -100.92979 327.24498 -100.98898 327.75356 -102.05456 328.74732 C -102.58528 329.24222 -103.3438 330.2312 -103.7403 330.94457 C -104.46268 332.24434 -105.01978 332.60439 -105.2772 331.93775 C -105.81952 330.53324 -103.43889 327.24498 -101.87941 327.24498 z M -116.2397 335.91774 C -116.08471 335.94194 -115.96206 336.04641 -115.86564 336.22897 C -115.34595 337.21454 -117.28985 338.85414 -119.88353 339.61832 C -122.21803 340.30611 -125.27274 339.75798 -125.82573 338.55189 C -126.29025 337.53871 -125.5333 337.14245 -124.42844 337.82105 C -122.72473 338.8675 -119.32352 338.22061 -117.31457 336.46774 C -116.93999 336.14085 -116.64202 335.9594 -116.40562 335.92049 C -116.34653 335.91067 -116.29136 335.90968 -116.2397 335.91774 z M -104.0044 348.1177 C -104.16908 348.1768 -104.31621 348.2552 -104.43541 348.37395 C -104.43741 348.37295 -104.44126 348.373 -104.44326 348.371 L -104.63707 348.60094 C -104.88659 348.89732 -105.48188 349.6001 -105.95993 350.16258 C -111.95706 357.2189 -122.76376 358.47896 -122.95183 352.14384 C -123.00993 350.18896 -122.75873 350.18887 -127.69919 352.14678 C -139.86 356.96637 -142.14476 361.11728 -146.79683 386.84551 C -149.97229 404.40741 -150.05466 403.93159 -143.81866 403.99959 L -138.79463 404.05437 L -138.86296 403.11853 C -139.3162 396.89665 -137.49224 366.25299 -136.66865 366.25299 C -136.25496 366.25299 -136.2517 366.46799 -136.60523 370.66929 C -137.27245 378.59747 -137.91542 393.08208 -137.92142 400.32788 L -137.92437 403.94932 L -117.47656 404.00214 L -97.028564 404.05437 L -94.611782 405.13749 C -92.039172 406.29011 -90.190754 406.95445 -88.797604 407.22773 L -88.798193 407.22714 C -79.640173 409.02357 -76.203465 402.25441 -77.666035 385.2984 C -79.859605 359.86783 -83.546278 354.3889 -102.34615 348.62509 L -104.0044 348.1177 z M -118.71578 363.32194 L -118.71559 363.32234 C -118.36622 363.37844 -118.11399 363.7433 -117.89972 364.46907 C -118.27623 363.69924 -118.81364 363.35304 -119.37241 363.49808 C -119.21527 363.41233 -119.06738 363.34651 -118.93688 363.32489 C -118.85898 363.31209 -118.78544 363.31114 -118.71578 363.32194 z M -119.3726 363.49808 C -119.46536 363.54865 -119.55798 363.59941 -119.66125 363.67126 C -121.36608 364.85795 -121.01606 372.74798 -119.22828 373.4297 C -118.86362 373.56879 -118.83287 374.24617 -119.18528 374.38066 C -119.27668 374.41566 -120.13238 374.44688 -121.1899 374.47158 C -121.2388 374.53738 -121.3179 374.57834 -121.43221 374.5837 C -121.62298 374.5927 -123.08437 374.66143 -124.67959 374.73627 C -126.68066 374.83017 -128.18937 375.26599 -129.04483 375.86376 C -129.09463 376.0242 -129.12536 376.20217 -129.14026 376.40178 C -129.24967 377.86469 -129.16402 377.91018 -126.00088 378.0673 C -123.16345 378.20829 -122.6338 378.36272 -122.99483 378.94266 C -123.23879 379.33456 -127.70075 379.34671 -128.39155 378.95759 C -128.60661 378.83641 -128.7971 378.85822 -128.96668 378.94482 C -129.04208 379.07926 -129.14746 379.23208 -129.32013 379.43729 C -129.38973 379.51999 -129.44142 379.61284 -129.49587 379.70434 C -129.66639 380.32142 -129.60133 381.14411 -129.16402 381.69659 C -128.76682 382.19794 -128.74036 382.203 -126.18075 382.203 C -123.35422 382.203 -122.76885 382.39365 -123.19079 383.17714 C -123.46555 383.68738 -126.76384 383.79317 -127.98685 383.33108 C -128.882 382.99289 -129.11183 384.36247 -128.34914 385.48906 L -127.90733 386.14176 L -125.56673 386.26213 C -122.95796 386.3957 -122.7969 386.44526 -122.7969 387.11903 C -122.7969 387.94283 -124.43587 388.05362 -126.84424 387.39276 C -127.63302 387.17634 -127.71474 387.22554 -127.56311 387.82593 C -127.02668 389.94999 -125.17267 390.64152 -117.96314 391.40711 C -115.99571 391.61602 -114.03781 391.91559 -113.61242 392.07316 L -113.61242 392.07375 C -113.18703 392.23131 -112.70718 392.36702 -112.546 392.37398 C -111.68676 392.41398 -107.64783 384.36037 -107.52766 382.63028 C -107.72831 382.46072 -107.99706 382.26165 -108.29601 382.06908 C -109.46912 381.31342 -110.09217 380.70446 -110.9496 379.30298 C -110.16756 380.47126 -109.41238 381.03194 -107.58598 382.30668 C -107.52648 382.34818 -107.51676 382.47289 -107.52766 382.63028 C -107.3178 382.80762 -107.18293 382.9525 -107.18246 383.01789 C -107.17646 383.81367 -109.62455 389.11408 -111.08705 391.47211 C -111.85319 392.70741 -111.99393 393.05742 -111.78845 393.22029 C -109.63535 394.92686 -103.56577 399.31494 -100.75133 401.20011 C -98.757604 402.53555 -97.126646 403.70221 -97.126154 403.79322 C -97.126154 404.75442 -101.52174 402.06868 -108.16269 397.05007 C -110.10091 395.58534 -111.84766 394.26747 -112.04411 394.12157 C -112.24056 393.97566 -112.40128 393.73752 -112.40128 393.59239 C -112.40128 392.95827 -114.19409 392.53485 -118.87896 392.06177 C -125.79783 391.36309 -128.74175 389.87924 -127.70842 387.61131 C -127.53037 387.22054 -127.56077 387.10354 -127.90478 386.86259 C -128.92884 386.14531 -129.31886 384.69451 -128.79605 383.54707 C -128.60263 383.12259 -128.61285 382.99491 -128.85358 382.81269 C -129.81521 382.08462 -130.07423 380.67629 -129.49587 379.70434 C -129.39496 379.33913 -129.20552 379.06663 -128.96668 378.94463 C -128.80068 378.64861 -128.84617 378.47487 -129.10374 378.2611 C -130.13524 377.40503 -130.00145 376.53224 -129.04483 375.86376 C -128.70544 374.77147 -127.40221 374.53717 -123.00425 374.50456 C -122.31824 374.49956 -121.75946 374.48488 -121.1899 374.47158 C -121.1452 374.41138 -121.12528 374.33123 -121.14238 374.22927 C -121.18688 373.96447 -121.06272 373.89171 -120.57098 373.89271 C -119.86057 373.89471 -119.8258 373.80702 -120.2299 373.02559 C -121.08164 371.3785 -121.34084 366.102 -120.63695 364.74083 C -120.25945 364.0108 -119.81254 363.61227 -119.3726 363.49808 z M -117.89932 364.47005 C -117.74543 364.78489 -117.61058 365.14794 -117.52447 365.6054 C -117.29713 366.81313 -116.97792 367.92121 -116.57312 368.96333 C -117.07395 367.80868 -117.4367 366.67794 -117.65977 365.5027 C -117.7363 365.09929 -117.81465 364.75699 -117.89932 364.47005 z M -95.712765 365.24626 C -95.443084 365.21976 -95.392686 365.97388 -95.587881 367.40227 C -95.829401 369.16963 -95.723559 384.12581 -95.457499 385.82385 L -95.344985 386.54213 L -92.513101 387.64076 C -84.796541 390.63461 -83.687175 391.10585 -83.687175 391.38983 C -83.687175 391.86332 -84.367087 391.79632 -86.007937 391.16049 C -86.858717 390.83081 -89.425685 389.84463 -91.712155 388.96932 C -99.530485 385.97633 -106.74476 382.84888 -106.9272 382.37344 C -107.2132 381.62812 -106.3532 381.86827 -101.98897 383.75168 C -99.470561 384.83852 -97.217879 385.78852 -96.983009 385.86312 L -96.555732 385.99861 L -96.676689 377.91472 C -96.801029 369.59786 -96.636796 366.32432 -96.055018 365.53667 C -95.917421 365.35039 -95.802659 365.2551 -95.712765 365.24626 z M -116.57312 368.96352 C -116.17186 369.88855 -115.68768 370.82745 -115.07235 371.82623 C -114.45378 372.83026 -113.37618 374.77553 -112.67815 376.14946 C -112.42143 376.65475 -112.25379 376.95693 -112.04823 377.35 C -111.79969 377.81946 -111.54147 378.31181 -111.33623 378.67444 C -111.53776 378.33041 -111.80584 377.81348 -112.04823 377.35 C -112.19581 377.07124 -112.30346 376.88618 -112.47099 376.56358 C -113.47348 374.63323 -114.55204 372.67649 -114.86814 372.21542 C -115.56261 371.20246 -116.12205 370.12473 -116.57312 368.96352 z "
       transform="translate(71.580782,-1.4661534e-4)" /><path
       d="m -114.08022,294.65475 v 5.1e-4 5.2e-4 5.2e-4 5.1e-4 c -0.89954,10e-4 -1.79171,0.0502 -2.67787,0.13436 a 29.642189,30.347723 0 0 0 -1.00769,0.0816 c -7.93728,1.0332 -15.15228,5.30679 -20.01325,11.52746 a 29.642189,30.347723 0 0 0 -0.77308,1.07177 c -0.42755,0.59922 -0.83142,1.21512 -1.21491,1.84588 a 29.642189,30.347723 0 0 0 -1.55753,2.96416 c -0.0538,0.11626 -0.11308,0.22918 -0.16536,0.34624 a 29.642189,30.347723 0 0 0 -2.55127,12.24576 c 0.004,0.24501 0.01,0.49046 0.0191,0.73691 a 29.642189,30.347723 0 0 0 0.14728,1.95957 c 0.11384,1.07143 0.26549,2.15015 0.50023,3.24217 1.81441,8.4407 8.95183,17.39286 16.00574,20.07475 0.4772,0.18142 0.15717,0.42522 -0.79685,0.88057 a 29.642189,30.347723 0 0 0 0.39015,0.216 c 1.1065,-0.4441 2.24476,-0.88508 3.53519,-1.3317 0.58061,-0.20097 0.96249,-0.30965 1.22525,-0.3328 0.007,-0.003 0.0145,-0.005 0.0217,-0.008 0.0553,-0.0197 0.11007,-0.0403 0.16537,-0.06 0.0539,-0.0178 0.10558,-0.0428 0.15658,-0.0677 0.0214,-0.0119 0.0447,-0.0196 0.0672,-0.0289 0.0423,-0.60571 0.15704,-0.89938 0.4377,-1.05369 0.0591,-0.54098 0.12093,-1.03225 0.16847,-1.73787 l 0.11265,-1.66812 -0.0579,-0.006 c -0.27776,-0.0188 -0.55153,-0.047 -0.82063,-0.0873 l -0.38654,-0.0413 c -1.23068,-0.1318 -2.34128,-0.62409 -3.34088,-1.3715 -0.0501,-0.0331 -0.0982,-0.0697 -0.14779,-0.10387 -0.087,-0.0683 -0.17999,-0.12226 -0.2651,-0.19482 -3.76369,-2.79128 -5.82257,-8.66303 -5.16196,-16.82171 0.33213,-4.10185 1.2414,-9.30373 1.67897,-9.6051 0.009,-0.006 0.0275,-0.0651 0.0387,-0.0811 0.0269,-0.33689 0.0309,-0.66555 0.002,-0.91364 -0.12264,-1.03545 0.33423,-3.05947 0.91158,-4.038 0.47308,-0.80181 0.51725,-0.66525 -0.42737,-1.31878 -8.78729,-6.07952 13.33826,-13.04368 24.39541,-7.6786 2.18669,1.06102 4.19349,2.90501 4.62659,4.2509 0.15872,0.49324 0.68674,1.24608 1.365812,1.94872 3.27219,3.38575 3.53889,11.95371 0.47749,15.33653 -0.24961,0.27575 -0.243046,0.39089 0.05529,0.97255 1.82715,3.56579 -1.506902,10.38377 -5.095812,10.42107 -0.31013,0.003 -0.56224,0.31712 -1.04748,1.30277 l -0.63924,1.29863 0.30335,3.39049 c 0.18967,2.12356 0.44457,3.8087 0.68212,4.51032 0.22812,0.67375 0.33722,0.98683 0.0992,1.44383 0.0743,0.0139 0.13899,0.036 0.19637,0.0625 l 0.25994,-0.30851 0.17931,0.0548 c 0.83503,-0.29982 2.40479,0.18647 6.370153,1.80093 a 29.642189,30.347723 0 0 0 0.266133,-0.20464 c -1.38827,-0.58616 -1.115458,-0.6866 0.712102,-1.90996 7.2774,-4.87144 11.085417,-12.62425 11.734167,-20.71864 a 29.642189,30.347723 0 0 0 0.120923,-1.73322 c 0.0113,-0.48074 -0.02311,-0.96245 -0.03411,-1.44384 a 29.642189,30.347723 0 0 0 -0.286805,-3.5755 29.642189,30.347723 0 0 0 -28.958443,-25.67801 z"
       style="display:inline;fill:#6ba8c7;fill-opacity:1"
       id="path100"
       transform="translate(71.580782,-1.4661534e-4)" /><path
       id="rect96"
       style="display:inline;fill:#1c3a4b;fill-opacity:1;stroke-width:0.45721;stroke-linecap:round;stroke-linejoin:round;stroke-opacity:0.984655;paint-order:stroke fill markers"
       d="m 199.7254,301.51518 c -10.47564,-0.0197 -21.27337,5.03719 -14.68291,9.59683 0.94462,0.65353 0.90056,0.51693 0.42748,1.31874 -0.57735,0.97853 -1.03434,3.00247 -0.9117,4.03792 0.0289,0.24796 0.0215,0.57655 -0.002,0.91326 0.0971,-0.13847 0.24782,-0.56894 0.36581,-1.08998 0.42181,-1.86267 1.38354,-3.70067 1.85481,-3.54604 5.64512,1.85423 13.39401,1.54088 19.50214,-0.78858 0.24559,-0.0936 0.17377,0.16409 -0.3018,1.08213 l -0.62423,1.20506 0.0238,3.18533 c 0.0247,3.27715 0.10286,3.74762 1.03776,6.2601 0.33196,0.89218 0.94169,3.88432 0.96529,4.73716 0.004,0.16127 1.11423,0.54784 1.57343,0.54784 0.23782,0 0.51844,-0.34975 0.86456,-1.07683 1.84897,-3.8841 5.08764,-3.97614 6.0017,-0.89619 v 3.9311 c -0.73028,3.14471 -3.03069,5.43237 -5.82596,5.43737 l -1.3535,0.002 0.0249,0.86398 c 0.0666,2.32391 0.84665,8.66584 1.19052,9.67812 l 0.18812,0.55595 -0.71088,0.76094 c -3.73553,4.65684 -10.09746,7.82828 -13.88939,6.59176 v 0 c -2.15955,-0.70422 -3.18431,-0.86746 -3.17431,-3.29756 0.002,-0.58864 0.007,-1.02396 0.0314,-1.3696 0.029,-0.0121 0.0571,-0.0253 0.0864,-0.0367 0.0627,-0.0233 0.126,-0.044 0.1887,-0.0675 0.0241,-0.009 0.0485,-0.0173 0.0728,-0.0253 0.0307,-0.23417 0.0585,-0.63587 0.0899,-0.92348 -0.28037,0.15415 -0.39529,0.44766 -0.43769,1.05209 -0.0225,0.009 -0.046,0.0166 -0.0674,0.0285 -0.051,0.0249 -0.1026,0.0499 -0.1565,0.0677 -0.0553,0.0197 -0.11003,0.0408 -0.16533,0.0605 -0.007,0.003 -0.0148,0.005 -0.0218,0.008 -0.26276,0.0231 -0.64466,0.13186 -1.22527,0.33283 -0.86716,0.30011 -1.61796,0.59733 -2.37555,0.895 0.0141,0.0543 0.0257,0.10928 0.0373,0.16396 3.51963,-1.39269 3.57451,-1.31906 3.62654,0.43258 0.18807,6.33512 10.99457,5.07486 16.9917,-1.98146 0.47805,-0.56248 1.07354,-1.26526 1.32306,-1.56164 l 0.19322,-0.22935 c -0.0571,-0.0263 -0.12149,-0.0482 -0.19538,-0.062 0.23802,-0.457 0.12845,-0.77008 -0.0992,-1.44383 -0.23755,-0.70162 -0.49248,-2.3868 -0.68215,-4.51036 l -0.30337,-3.39052 0.63934,-1.29852 c 0.48524,-0.98565 0.73725,-1.29984 1.04738,-1.30284 3.58891,-0.0373 6.92305,-6.85516 5.0959,-10.42095 -0.29833,-0.58166 -0.30502,-0.69681 -0.0554,-0.97256 3.0614,-3.38282 2.79465,-11.95084 -0.47754,-15.33659 -0.67907,-0.70264 -1.20695,-1.45542 -1.36567,-1.94866 -0.4331,-1.34589 -2.43991,-3.18995 -4.6266,-4.25097 -2.76428,-1.34127 -6.22081,-1.91164 -9.71269,-1.91823 z m 10.73532,46.85626 3.9e-4,2e-4 5.9e-4,-3.9e-4 -5.9e-4,-5.9e-4 -3.9e-4,5.9e-4 z m -25.90441,-30.98852 c -4e-5,5.2e-4 4e-5,9.6e-4 0,0.002 2.1e-4,-3.2e-4 1.8e-4,-9.6e-4 3.9e-4,-0.002 z m 0,0.002 h -5.9e-4 c -4e-5,5.2e-4 4e-5,9.6e-4 0,0.002 2.1e-4,-3.5e-4 3.8e-4,-9.6e-4 5.9e-4,-0.002 z m -5.9e-4,0.002 h -3.9e-4 c -5e-5,5.3e-4 4e-5,0.001 0,0.002 2.1e-4,-3.7e-4 1.8e-4,-10e-4 3.9e-4,-0.002 z m -0.002,0.004 c -0.0114,0.0204 -0.0298,0.0689 -0.0383,0.0744 -0.43757,0.30137 -1.34674,5.50322 -1.67887,9.60507 -0.66061,8.15868 1.39819,14.03037 5.16188,16.82165 0.0851,0.0726 0.17808,0.12649 0.26508,0.19479 0.0496,0.0342 0.0978,0.0708 0.14786,0.10387 0.9996,0.74741 2.11016,1.23977 3.34084,1.37157 l 0.38663,0.0412 c -1.36319,-0.20437 -2.61493,-0.67893 -3.72747,-1.41339 -0.0486,-0.0363 -0.0999,-0.0662 -0.14786,-0.10387 -0.09,-0.062 -0.17688,-0.12939 -0.26508,-0.19479 -4.7023,-4.0091 -6.45267,-14.52036 -3.60593,-25.48204 0.0782,-0.3011 0.13253,-0.66422 0.16121,-1.01851 z m 2.2913,1.56478 c -0.61576,0.0155 -1.2047,0.13996 -1.65,0.4098 -1.35023,0.81813 -0.57235,1.66848 1.19013,1.30107 0.9197,-0.1911 1.21867,-0.17879 1.90782,0.0801 1.06396,0.3984 1.39658,0.41334 1.68005,0.074 0.80857,-0.96927 -1.28101,-1.90857 -3.128,-1.86207 z m 10.70528,0.59673 c -0.73551,0.0338 -1.41661,0.17558 -1.92549,0.45163 -1.04805,0.56844 -0.83215,1.39692 0.34991,1.34152 3.59292,-0.16715 3.53946,-0.17121 4.54393,0.35403 1.37007,0.71627 1.93374,0.6527 1.93374,-0.21756 0,-1.15864 -2.69556,-2.03117 -4.90209,-1.92962 z m -6.09988,3.8716 v 5.9e-4 c -0.0606,10e-4 -0.12568,0.009 -0.19577,0.0187 -0.45896,0.0652 -0.43808,0.008 -1.87581,5.03169 -1.36366,4.76444 -1.30276,5.56835 0.50523,6.67815 0.72567,0.44578 2.35157,0.47734 2.95382,0.0583 0.87635,-0.61002 0.49733,-1.06814 -0.94763,-1.14614 -2.20027,-0.11797 -2.38132,-0.75871 -1.26042,-4.4705 1.457,-4.82469 1.70112,-6.03729 0.98807,-6.15839 -0.0509,-0.009 -0.10692,-0.0134 -0.16749,-0.0124 z m -4.2225,0.22955 c -1.10629,0.012 -1.7202,2.73962 -0.81017,4.12156 0.29148,0.44259 0.58534,0.52372 1.13731,0.3132 1.21774,-0.46437 1.13613,-4.00994 -0.0998,-4.4002 -0.0778,-0.0245 -0.15359,-0.035 -0.22739,-0.0342 z m 10.44235,0.82411 c -1.09439,0.0934 -1.80739,2.95788 -0.88891,4.05776 0.39492,0.47285 1.37783,0.22762 1.69811,-0.42375 0.60643,-1.23349 0.25592,-3.39559 -0.58594,-3.61437 -0.076,-0.0197 -0.15026,-0.0245 -0.22326,-0.0185 z m 15.35505,2.76886 c -1.55948,0 -3.93991,3.28826 -3.39759,4.69277 0.25742,0.66664 0.81432,0.30659 1.5367,-0.99318 0.3965,-0.71337 1.15502,-1.70235 1.68574,-2.19725 1.06558,-0.99376 1.12477,-1.50234 0.17515,-1.50234 z m -43.09423,7.323 c 7e-5,3.1e-4 1.2e-4,4.7e-4 1.9e-4,7.8e-4 1e-5,-2e-4 0,-3.9e-4 0,-5.9e-4 z m 1.9e-4,7.8e-4 c -6e-4,0.0194 -0.002,0.0389 -0.003,0.0583 -0.004,0.12364 -0.0576,0.25664 -0.0102,0.37092 5.2e-4,10e-4 6.8e-4,9.6e-4 9.8e-4,0.002 0.007,-0.004 0.0136,-0.007 0.0206,-0.0108 0.006,-0.0697 -0.01,-0.26459 -0.006,-0.34932 0.007,0.009 0.0242,0.0373 0.0212,0.0263 -0.0105,-0.0439 -0.0147,-0.0591 -0.0238,-0.0974 z m 28.73375,1.34918 c -0.0517,-0.008 -0.10684,-0.007 -0.16593,0.003 -0.2364,0.0389 -0.53436,0.22036 -0.90894,0.54725 -2.00895,1.75287 -5.41017,2.39975 -7.11388,1.3533 -1.10486,-0.6786 -1.8618,-0.28233 -1.39728,0.73085 0.55299,1.20609 3.6077,1.75441 5.9422,1.06662 2.59368,-0.76418 4.53758,-2.40397 4.01789,-3.38954 -0.0964,-0.18256 -0.21907,-0.28685 -0.37406,-0.31104 z m -23.94947,2.89786 c -0.0357,0.15706 -0.0632,0.31538 -0.10544,0.47028 0.18984,0.099 0.38028,0.19695 0.56944,0.29729 -0.15635,-0.25504 -0.31486,-0.50893 -0.464,-0.76757 z m 28.15841,3.84254 v 2e-4 c -0.13311,0.0183 -0.29423,0.0802 -0.47695,0.19322 -3.45042,2.1337 -6.65414,3.02484 -9.43562,2.83659 l -0.82058,-0.0864 c 0.2691,0.0403 0.54282,0.068 0.82058,0.0868 l 0.0579,0.006 -0.11271,1.66807 c -0.0475,0.70541 -0.10919,1.19659 -0.16827,1.73738 0.2264,-0.12449 0.55607,-0.16979 1.06603,-0.22169 3.54251,-0.36066 8.00461,-2.93395 9.31093,-5.36923 0.30247,-0.56433 0.158,-0.90592 -0.24133,-0.85102 z m 8.37725,5.38435 v 5.9e-4 c -0.1306,0.0122 -0.24591,0.037 -0.3503,0.0744 l 1.65726,0.5068 c 1.04568,0.32059 1.96891,0.64478 2.91554,0.96805 -0.19453,-0.18527 -0.36191,-0.38125 -0.51407,-0.58142 -1.9178,-0.72525 -3.03455,-1.03147 -3.70843,-0.96844 z m -0.52958,0.0218 -0.25939,0.30749 c 0.002,10e-4 0.005,0.002 0.007,0.003 0.11909,-0.11864 0.26612,-0.19736 0.43062,-0.25644 z m -14.5325,15.25785 c -0.0697,-0.0108 -0.1432,-0.01 -0.2211,0.003 -0.13055,0.0216 -0.27937,0.0851 -0.43657,0.171 0.55775,-0.14477 1.09537,0.20279 1.47177,0.96964 l 0.002,0.005 c 0.0847,0.287 0.16318,0.62948 0.23975,1.03304 0.1916,1.00945 0.50734,1.98732 0.90404,2.97444 0.0661,0.18943 0.12833,0.35788 0.18281,0.48619 0.16975,0.40343 0.35249,0.80665 0.54764,1.20976 0.11879,0.24623 0.23892,0.49323 0.36974,0.73203 0.44976,0.86081 0.95808,1.72079 1.52375,2.58015 0.47753,0.85129 1.05066,1.90289 1.66099,3.07812 0.16753,0.3226 0.27499,0.50785 0.42257,0.78661 -0.0844,-0.16129 -0.17805,-0.34169 -0.25841,-0.49266 0.41512,0.76726 0.85251,1.56338 1.35664,2.44545 0.42782,0.57136 0.90794,1.0964 1.43715,1.57793 -0.58195,-0.48613 -1.0137,-0.94534 -1.43715,-1.57793 0.85743,1.40148 1.48048,2.01064 2.65359,2.7663 0.29895,0.19257 0.5677,0.39163 0.76835,0.56119 0.0109,-0.15739 0.001,-0.2821 -0.0583,-0.3236 -1.70457,-1.53074 -1.8041,-2.72255 -2.24991,-3.57549 -0.75445,-2.0633 -1.96232,-3.88884 -3.00725,-5.32275 -0.93137,-1.3122 -2.04398,-2.78956 -2.92693,-4.5859 -0.54337,-1.65069 -1.39283,-4.52007 -2.53964,-5.24788 l 0.0128,0.0279 c -0.12388,-0.15674 -0.26011,-0.25481 -0.41825,-0.2802 z m -0.69598,0.0965 c -0.43705,0.11727 -1.36364,0.39254 -1.73856,1.11761 -0.70389,1.36117 -0.59854,6.76604 0.2532,8.41313 0.4041,0.78143 1.03689,0.94615 0.32648,0.94415 -0.49174,-0.001 -0.6161,0.0717 -0.5716,0.33656 0.0171,0.10196 -0.004,0.18211 -0.0497,0.24231 h 5.9e-4 5.9e-4 c 1.05714,-0.0247 1.91267,-0.0566 2.00404,-0.0915 0.35241,-0.13449 0.32132,-0.81168 -0.0434,-0.95077 -1.78778,-0.68172 -1.84805,-8.74727 -0.14322,-9.93396 0.10085,-0.0703 -0.0384,-0.0775 -0.0384,-0.0775 z m -1.73048,10.81145 c -0.56889,0.0133 -1.22801,-0.0633 -1.91322,-0.0583 -4.39733,0.0326 -5.65062,0.59814 -5.99023,1.69003 0.85546,-0.59777 2.36518,-1.03084 4.36625,-1.12474 1.59522,-0.0748 3.05562,-0.14625 3.24639,-0.15525 0.7297,-0.12177 0.65487,-0.28671 0.70384,-0.35175 z m -8.13212,1.60388 c -0.94815,0.4953 -0.86102,1.57188 0.17097,2.42795 0.25757,0.21377 0.30286,0.38751 0.13686,0.68353 0.16958,-0.0866 0.36008,-0.10831 0.57514,0.0124 0.6908,0.38912 5.15256,0.37743 5.39652,-0.0149 0.36103,-0.57994 -0.16843,-0.73438 -3.00586,-0.87537 -3.16314,-0.15712 -3.24879,-0.2026 -3.13938,-1.66551 0.0149,-0.19943 0.0157,-0.2761 0.0654,-0.43643 0.0737,-0.14396 -0.01,-0.23096 -0.19969,-0.13167 z m 33.56115,-10.58689 c -0.0899,0.009 -0.20466,0.10413 -0.34225,0.29041 -0.58178,0.78765 -0.74601,4.0612 -0.62167,12.37806 l 0.12095,8.08388 -0.42727,-0.13548 c -0.23487,-0.0746 -2.48761,-1.02461 -5.00597,-2.11145 -4.36423,-1.88341 -5.22422,-2.12356 -4.93822,-1.37824 0.18244,0.47544 7.39691,3.60289 15.21524,6.59588 2.28647,0.87531 4.85324,1.86149 5.70402,2.19117 1.64085,0.63583 2.32076,0.70284 2.32076,0.22935 0,-0.28398 -1.10937,-0.75523 -8.82593,-3.74908 l -2.83188,-1.09862 -0.11251,-0.71828 c -0.26606,-1.69804 -0.37191,-16.65422 -0.13039,-18.42158 0.1952,-1.42839 0.1448,-2.18252 -0.12488,-2.15602 z m -40.95667,1.00673 c -0.82359,0 -2.64755,30.64347 -2.19431,36.86535 l 0.0279,0.3825 c 0.17451,0.10571 0.34626,0.21601 0.51839,0.32556 0.12993,-0.13988 0.26114,-0.26758 0.3933,-0.38132 l 0.003,-3.1172 c 0.006,-7.2458 0.64897,-21.73041 1.31619,-29.65859 0.35353,-4.2013 0.3504,-4.4163 -0.064,-4.4163 z m 19.55358,1.08979 c 0.002,0.006 0.003,0.01 0.005,0.0161 -0.002,-0.005 -0.004,-0.0106 -0.005,-0.0161 z m 3.12505,6.35691 c 0.007,0.0112 0.0145,0.0224 0.022,0.0336 0.01,0.0187 0.0199,0.0376 0.0298,0.0564 -0.0193,-0.0347 -0.0326,-0.0555 -0.0518,-0.0899 z m -14.97588,5.24494 c -0.23884,0.122 -0.48176,0.36893 -0.65627,0.70524 -0.0963,0.18555 0.29841,0.30077 0.36801,0.21807 0.068,-0.21577 0.21286,-0.78887 0.28826,-0.92331 z m -0.65627,0.70524 c -0.57836,0.97195 -0.19206,2.43476 0.76957,3.16283 0.24073,0.18222 -0.12185,0.29174 -0.31428,0.71622 -0.52281,1.14744 0.23939,2.61639 1.26345,3.33367 0.34401,0.24095 0.37441,0.35795 0.19636,0.74872 -1.03333,2.26793 1.75654,4.29097 8.67541,4.98965 4.68487,0.47308 6.98776,0.88372 6.98776,1.51784 0,0.14513 -0.19531,-0.14313 0.001,0.003 0.19645,0.1459 1.9432,1.46376 3.88142,2.92849 4.67152,3.53029 8.19084,5.87059 9.89176,6.63476 0.21108,-3.1e-4 0.47313,0.0635 0.82745,0.17869 0.078,0.0255 0.15529,0.0529 0.23347,0.0797 0.0498,-0.0315 0.0836,-0.0768 0.0836,-0.14982 -4.9e-4,-0.091 -1.63129,-1.25787 -3.62497,-2.59331 -2.81444,-1.88517 -8.46577,-5.94797 -10.61887,-7.65454 -0.20548,-0.16287 0.80052,-1.14627 1.56671,-2.38157 1.4625,-2.35803 3.1662,-7.0679 3.1602,-7.86368 -4.7e-4,-0.0654 -0.67452,-0.4927 -0.88438,-0.67004 -0.12017,1.73009 -4.15909,9.78351 -5.01833,9.74351 -0.16118,-0.007 -0.64123,-0.14267 -1.06662,-0.30023 v -4e-4 c -0.42539,-0.15757 -2.3831,-0.45733 -4.35053,-0.66624 -7.20953,-0.76559 -9.06354,-1.45713 -9.59997,-3.58119 -0.15163,-0.60039 -0.0701,-0.64939 0.71867,-0.43297 2.40837,0.66086 4.04735,0.54988 4.04735,-0.27392 0,-0.67377 -0.16107,-0.72314 -2.76984,-0.85671 l -2.34098,-0.12037 -0.44122,-0.6527 c -0.76269,-1.12659 -0.53287,-2.49617 0.36228,-2.15798 1.22301,0.46209 4.5213,0.3561 4.79606,-0.15414 0.42194,-0.78349 -0.16401,-0.97394 -2.99054,-0.97394 -2.55961,0 -2.58608,-0.005 -2.98328,-0.5066 -0.43731,-0.55248 -0.26122,-1.21158 -0.0907,-1.82866 z m 17.33654,24.36563 c 0.004,0.008 0.007,0.0165 0.0124,0.0247 0.005,-0.009 0.013,-0.016 0.0185,-0.0247 z m 15.43772,0.27549 c 0.0251,0.019 0.0512,0.0353 0.077,0.0532 -0.008,-0.007 -0.0171,-0.016 -0.0247,-0.0218 -0.0175,-0.0106 -0.0685,-0.0437 -0.0522,-0.0314 z m 2.12656,1.27633 c 0.003,-0.005 -0.008,0.0174 -0.008,0.0186 0.003,-0.007 0.005,-0.0115 0.009,-0.0186 z m -0.008,0.0186 c -0.02,0.0402 -0.0366,0.0759 -0.0532,0.11114 0.002,-7.9e-4 0.004,-0.003 0.006,-0.004 -0.005,0.008 -0.008,0.0101 -0.008,0.008 6.2e-4,-10e-4 9.7e-4,-0.003 0.002,-0.004 -6.9e-4,4e-4 -0.002,9.7e-4 -0.003,0.002 -3.9e-4,0.002 3.3e-4,9.4e-4 3.9e-4,0.003 -0.004,0.008 -0.009,0.0176 -0.0124,0.0253 0.0169,-0.0152 0.0332,-0.0304 0.0465,-0.0487 0.006,-0.008 -0.0111,0.004 -0.0243,0.0126 0.0189,-0.0343 0.0459,-0.0988 0.0471,-0.10544 z m 0.19577,0.13844 c 0.0315,-0.005 -0.002,0.001 -0.19793,0.0285 0.0296,8e-5 0.0592,3e-4 0.0889,3.9e-4 -0.003,-0.002 -0.007,-0.002 -0.008,-0.005 -0.002,-0.005 0.0838,-0.019 0.11683,-0.0238 z m -0.17555,0.009 c -0.006,0.003 -0.0257,0.0115 -0.0434,0.019 0.005,10e-6 0.0103,-1e-5 0.0153,0 0.0264,-0.0171 0.0357,-0.0226 0.0281,-0.019 z"
       transform="translate(-243.3232)"
       sodipodi:nodetypes="ccsccccccccccsccccccccccccccccccccccccccsccccccccccsssccccccccccccccccccccccscccccccccccccccccccccsccccccccccccccccccsccccscccsccccccccccccccccccccccccccccccccccccccccccccccccccccccccccccscccccsccccccccccccccccsccccccccccccccccccsccccsccccccscsscccccccscccccccssssccssccsccccccssccccccscscccccscccccccccccccccccccccccccccccccccccccccccccccccc" /></g></svg>
