<?xml version="1.0" encoding="UTF-8" standalone="no"?>
<!-- Created with Inkscape (http://www.inkscape.org/) -->

<svg
   width="210mm"
   height="297mm"
   viewBox="0 0 210 297"
   version="1.1"
   id="svg1"
   xml:space="preserve"
   inkscape:version="1.4 (86a8ad7, 2024-10-11)"
   sodipodi:docname="sanguine.svg"
   xmlns:inkscape="http://www.inkscape.org/namespaces/inkscape"
   xmlns:sodipodi="http://sodipodi.sourceforge.net/DTD/sodipodi-0.dtd"
   xmlns="http://www.w3.org/2000/svg"
   xmlns:svg="http://www.w3.org/2000/svg"><sodipodi:namedview
     id="namedview1"
     pagecolor="#505050"
     bordercolor="#eeeeee"
     borderopacity="1"
     inkscape:showpageshadow="0"
     inkscape:pageopacity="0"
     inkscape:pagecheckerboard="0"
     inkscape:deskcolor="#505050"
     inkscape:document-units="px"
     inkscape:zoom="0.69219276"
     inkscape:cx="351.05828"
     inkscape:cy="530.92147"
     inkscape:window-width="1920"
     inkscape:window-height="991"
     inkscape:window-x="-9"
     inkscape:window-y="-9"
     inkscape:window-maximized="1"
     inkscape:current-layer="g282" /><defs
     id="defs1"><filter
       id="mask-powermask-path-effect16_inverse"
       inkscape:label="filtermask-powermask-path-effect16"
       style="color-interpolation-filters:sRGB"
       height="100"
       width="100"
       x="-50"
       y="-50"><feColorMatrix
         id="mask-powermask-path-effect16_primitive1"
         values="1"
         type="saturate"
         result="fbSourceGraphic" /><feColorMatrix
         id="mask-powermask-path-effect16_primitive2"
         values="-1 0 0 0 1 0 -1 0 0 1 0 0 -1 0 1 0 0 0 1 0 "
         in="fbSourceGraphic" /></filter><pattern
       patternUnits="userSpaceOnUse"
       width="229.96177"
       height="235.18179"
       patternTransform="translate(1865.9072,1529.9658)"
       preserveAspectRatio="xMidYMid"
       id="pattern16"><path
         style="fill:#f06338;fill-opacity:1;stroke:none;stroke-width:0.495347;stroke-linecap:round;stroke-linejoin:round;paint-order:stroke fill markers"
         id="path9216"
         sodipodi:type="arc"
         sodipodi:cx="114.98088"
         sodipodi:cy="117.59088"
         sodipodi:rx="114.98088"
         sodipodi:ry="117.59088"
         sodipodi:start="0"
         sodipodi:end="6.272498"
         sodipodi:open="true"
         sodipodi:arc-type="arc"
         d="M 229.96176,117.59088 A 114.98088,117.59088 0 0 1 115.28809,235.18134 114.98088,117.59088 0 0 1 0.00164161,118.21924 114.98088,117.59088 0 0 1 114.05926,0.00377746 114.98088,117.59088 0 0 1 229.9552,116.33418"
         mask="none" /><path
         id="path9215"
         style="fill:#222b00;fill-opacity:1;stroke:none;stroke-width:1.87218;stroke-linecap:round;stroke-linejoin:round;paint-order:stroke fill markers"
         d="m 160.96536,89.201313 c -7.30961,-0.197291 -15.70542,1.604788 -24.29296,5.794923 -9.73175,4.748409 -11.69351,5.297194 -23.00587,6.431664 -23.308835,2.33752 -34.287115,9.70204 -34.287115,22.99804 0,2.59888 -0.212031,2.8495 -3.976554,4.69138 -18.629821,9.11471 -22.044019,32.04057 -8.693367,58.38675 1.637065,3.23085 1.909039,4.74602 1.992189,11.07223 0.163276,12.44973 9.89246,25.22487 19.212888,25.23243 1.801285,0.001 3.158211,2.33912 3.158211,5.44335 0,1.62373 0.189354,2.56048 0.667956,3.26956 a 114.98089,117.59088 0 0 0 23.240242,2.66015 114.98089,117.59088 0 0 0 77.14843,-30.91601 c 0.74574,-19.99366 -3.68307,-43.6995 -11.35154,-58.96876 -1.59323,-3.17234 -1.64194,-3.07978 3.00192,-5.65039 8.55561,-4.73598 8.86349,-15.38366 0.57816,-19.97851 -1.1873,-0.65843 -1.23039,-1.07784 -0.43556,-4.23439 3.94878,-15.682055 -6.87594,-25.798036 -22.95703,-26.232417 z m -0.88283,0.150425 c 6.48631,-0.17537 11.62866,1.888366 16.36135,6.16407 5.76971,5.212722 8.78083,16.360402 5.8828,21.775412 -0.70186,1.31142 -0.56206,1.74485 0.91408,2.84375 4.92729,3.66803 5.68675,4.47145 6.12888,6.48435 1.71855,7.82456 -8.25215,16.99755 -12.69336,11.67775 l -1.99022,-2.38476 -4.76368,1.19531 c -6.00257,1.50724 -12.59388,1.51495 -23.70312,0.0265 -8.96402,-1.20027 -28.37064,-1.05634 -33.90625,0.25209 l -2.51172,0.59376 0.16781,11.30665 c 0.19804,13.22158 -0.52868,16.81946 -5.30468,26.26564 -2.70822,5.35646 -3.21986,7.11076 -3.64063,12.44727 -0.35641,4.51793 -0.82334,6.45758 -1.707027,7.12301 -2.005795,1.50754 -3.012812,1.06726 -5.031231,-2.19334 -6.864907,-11.08989 -15.959509,-13.3951 -22.443364,-5.68947 -2.589128,3.07699 -2.92388,2.90014 -5.533228,-2.93552 -11.703232,-26.17384 -7.244977,-48.26045 11.062526,-54.81445 1.507313,-0.53961 2.756485,-1.1621 2.775382,-1.38282 0.0189,-0.22072 0.191244,-2.20562 0.382829,-4.41018 1.116888,-12.85432 11.232567,-19.25953 33.484343,-21.20115 11.14848,-0.97281 10.87616,-0.89862 21.63871,-5.876972 10.1122,-4.677543 17.94334,-7.091981 24.42965,-7.267578 z M 183.0181,166.3166 c 0.26344,0.13153 0.47717,0.38453 0.7578,0.72265 1.37594,1.65792 -0.89881,3.77265 -7.6543,7.11915 -10.56922,5.23574 -18.08893,4.60929 -13.87306,-1.15627 0.86109,-1.17762 1.19543,-1.24203 2.18362,-0.42187 1.75049,1.45274 5.21178,0.50498 11.7461,-3.21876 4.81262,-2.74257 6.04905,-3.43907 6.83984,-3.0449 z m -53.24417,2.17383 c 2.34543,0.12473 6.12628,0.91624 11.86133,2.40235 11.53667,2.98949 13.08896,3.77627 11.19141,5.67382 -2.15301,2.15301 -26.30857,-3.79343 -26.30857,-6.47656 0,-1.18136 0.91045,-1.72425 3.25583,-1.59961 z m 45.31839,11.53905 c 0.86427,0.0586 1.87208,0.6127 2.95703,1.76757 2.28933,2.43686 2.96126,9.65341 1.15623,12.40823 -2.13645,3.26064 -4.66722,1.6148 -6.30663,-4.10158 -1.70876,-5.95827 -0.39946,-10.24974 2.19337,-10.07422 z m -32.49025,2.1758 c 0.48589,-0.008 0.9993,0.15383 1.52931,0.50778 2.47937,1.65551 3.42916,10.30953 1.54295,14.05667 -1.52969,3.03889 -4.68994,2.88442 -6.01757,-0.29291 -2.53947,-6.07783 -0.45581,-14.22603 2.94531,-14.27146 z m 19.34377,0.31257 c 8.1594,0 14.51354,32.70024 6.96677,35.8535 -3.26518,1.36434 -5.10702,1.33047 -6.55858,-0.12094 -1.57894,-1.57894 -0.22942,-3.21094 2.65429,-3.21094 7.05422,0 7.22158,-5.47608 0.56836,-18.55857 -5.10104,-10.03042 -6.12404,-13.9629 -3.63084,-13.9629 z m -80.109392,11.0488 c 0.869292,0.10659 2.057877,0.51096 3.531251,1.28909 3.664781,1.93546 7.245241,7.13764 7.417965,10.77929 0.187465,3.95542 -1.869052,3.51745 -3.906255,-0.83203 -1.194217,-2.54971 -2.840769,-4.50467 -5.253884,-6.2383 -4.124674,-2.96337 -4.396951,-5.31821 -1.789077,-4.99805 z m 11.429707,32.43557 c 0.401991,0 0.73047,0.98559 0.73047,2.19141 0,1.20586 -0.328441,2.19333 -0.73047,2.19333 -0.40199,0 -0.730469,-0.98747 -0.730469,-2.19333 0,-1.20582 0.328441,-2.19141 0.730469,-2.19141 z"
         mask="none" /></pattern><filter
       id="mask-powermask-path-effect12_inverse"
       inkscape:label="filtermask-powermask-path-effect12"
       style="color-interpolation-filters:sRGB"
       height="100"
       width="100"
       x="-50"
       y="-50"><feColorMatrix
         id="mask-powermask-path-effect12_primitive1"
         values="1"
         type="saturate"
         result="fbSourceGraphic" /><feColorMatrix
         id="mask-powermask-path-effect12_primitive2"
         values="-1 0 0 0 1 0 -1 0 0 1 0 0 -1 0 1 0 0 0 1 0 "
         in="fbSourceGraphic" /></filter></defs><g
     id="g282"
     transform="matrix(2.5344398,0,0,2.5344398,-290.35521,-571.3295)"><path
       style="display:none;fill:#fbb937;fill-opacity:1;stroke-width:0.639199;stroke-linecap:round;stroke-linejoin:round;stroke-opacity:0.984655;paint-order:stroke fill markers"
       id="path1"
       sodipodi:type="arc"
       sodipodi:cx="160.31052"
       sodipodi:cy="256.03253"
       sodipodi:rx="28.973093"
       sodipodi:ry="30.598364"
       sodipodi:start="0"
       sodipodi:end="6.272498"
       sodipodi:open="true"
       sodipodi:arc-type="arc"
       d="m 189.28361,256.03253 a 28.973093,30.598364 0 0 1 -28.89568,30.59826 28.973093,30.598364 0 0 1 -29.05009,-30.43475 28.973093,30.598364 0 0 1 28.74045,-30.76089 28.973093,30.598364 0 0 1 29.20366,30.27037"
       transform="translate(-4.9423965e-6)" /><path
       id="path6"
       style="display:none;fill:#faad14;fill-opacity:1;stroke-width:0.529167;stroke-linecap:round;stroke-linejoin:round;stroke-opacity:0.984655;paint-order:stroke fill markers"
       d="m 171.99158,23.7634 c -5.3e-4,0.06716 -0.003,0.134639 -0.003,0.202055 0.0253,-0.06666 0.0472,-0.133849 0.0718,-0.200505 -0.0228,5.83e-4 -0.0462,-0.002 -0.0693,-0.0015 z m -28.18897,42.307495 -0.95964,2.238623 c -3.21691,7.504781 -11.51803,15.766762 -22.59655,22.492684 -3.21098,1.949441 -3.88748,2.617574 -5.15886,5.081861 -5.47601,10.614137 -7.90823,12.812747 -10.20144,9.227857 -4.25545,-6.652344 -12.200621,-7.414431 -15.226464,-1.46037 -4.125459,8.11781 2.10647,19.27267 12.185304,21.81055 l 2.27118,0.57258 -0.002,0.69401 c 0.29197,4.11504 -0.10646,9.37391 -0.89194,14.18157 -0.0127,0.0732 -0.0229,0.13683 -0.0341,0.21083 -0.53895,3.24214 -1.24941,6.26986 -2.05052,8.57364 -0.001,0.003 -0.003,0.01 -0.005,0.0124 -0.001,0.003 -0.003,0.008 -0.005,0.0103 -0.35011,1.00402 -0.71597,1.86577 -1.09089,2.55385 0.005,0.0228 -9.6e-4,0.0369 0.005,0.0605 0.059,0.22582 -0.216388,0.575 -0.689365,0.98082 -0.01014,0.0101 -0.0175,0.0291 -0.02739,0.0393 7.35e-4,-0.005 3.75e-4,-0.0125 0.001,-0.0176 -1.351363,1.15016 -4.41186,2.78283 -7.128247,3.65921 -3.74831,1.20936 11.754452,15.26278 20.076292,18.19941 h 0.001 c 14.08895,4.97176 28.91837,-4.12721 23.49624,-14.41721 -0.53563,-1.01654 -0.80507,-2.37139 -0.6966,-3.50831 0.17209,-1.80425 0.12994,-1.86081 -1.66708,-2.14819 -5.74443,-0.91856 -13.54521,-6.36706 -17.06821,-11.92227 -2.49531,-3.9347 -1.56388,-4.68393 2.3549,-1.89653 4.04103,2.87439 13.72438,6.67453 17.00774,6.67453 1.77155,0.30314 3.54238,0.41774 5.31596,0.35192 0.42551,-0.0228 0.78112,-0.0592 1.23765,-0.0718 2.07277,-0.17716 4.14577,-0.60811 6.22133,-1.28881 0.27676,-0.12571 0.55188,-0.29406 0.82527,-0.44235 2.77855,-1.95994 6.15338,-5.3636 8.60722,-7.4812 2.2312,-4.56579 5.36016,-14.19584 6.19498,-19.98069 0.40632,-2.81587 0.86607,-11.65902 1.02422,-17.22686 -0.0127,-0.0697 -0.0289,-0.1396 -0.0393,-0.20981 -0.0304,-0.24229 -0.0445,-0.48577 -0.0853,-0.72657 0.0127,-0.0479 0.005,-0.0103 -0.0289,-0.11679 -0.0499,-0.16245 -0.10559,-0.32292 -0.15451,-0.48575 -0.0309,-0.11684 -0.0273,-0.2393 -0.0512,-0.357605 -0.2357,-0.318528 -0.44881,-0.653414 -0.59996,-1.021643 -0.10341,-0.245587 -0.19883,-0.493915 -0.31316,-0.734838 -0.13534,-0.322052 -0.26801,-0.648707 -0.34572,-0.990121 -0.0748,-0.339666 -0.12922,-0.683867 -0.11782,-1.033012 v -0.612882 h 0.002 c 0,-0.144717 0.008,-0.280517 0.0227,-0.411345 -0.0634,-0.513046 -0.1261,-0.725477 -0.19275,-1.404048 -0.7966,-8.108028 -10.43022,-22.546563 -17.86041,-26.767876 z m 10.14511,20.645252 c 3.31023,0.01014 7.87681,2.86899 7.23884,4.531506 -0.42396,1.104712 -1.98543,1.049117 -4.13618,-0.151929 -2.00685,-1.118879 -3.70173,-1.181984 -5.39864,-0.216007 -2.35683,1.347308 -4.38326,0.550461 -3.6251,-1.425236 0.29729,-0.774778 4.55193,-2.743403 5.92108,-2.738334 z m -23.01048,1.301729 c 2.06699,-0.03548 4.05413,0.594403 5.89008,1.892391 2.52962,1.788402 0.739,3.882689 -2.14406,2.507857 -0.92801,-0.442538 -2.69995,-0.804085 -3.93826,-0.804085 -1.57216,0 -3.00934,0.426086 -4.76198,1.410767 -4.35399,2.446216 -5.6516,-0.216762 -1.4149,-2.903699 2.15506,-1.366748 4.30213,-2.067622 6.36912,-2.103231 z m 23.46523,10.955404 c 2.35019,-0.26011 5.82549,0.890178 5.82549,2.44171 0,1.38664 -0.75728,1.54819 -4.85138,1.0356 -2.71809,-0.3403 -3.83879,-1.43262 -2.77916,-2.709399 0.36311,-0.437495 1.02166,-0.681208 1.80505,-0.767911 z m -21.86171,1.68052 v 0.002 c 1.70395,0.0431 3.33457,0.65199 4.19199,1.9606 1.40568,2.14533 -0.34979,3.55712 -2.44894,1.96939 -1.24398,-0.94091 -3.41943,-0.91466 -4.21732,0.0419 -1.57518,1.89796 -3.40806,1.85229 -3.40806,-0.0915 0,-2.45354 3.04241,-3.95373 5.88233,-3.88193 z m 14.36346,0.85369 c 0.721,0.10391 1.28211,0.78357 1.79576,2.17455 0.41086,1.11262 1.42967,3.09795 2.26446,4.4111 2.19513,3.45304 2.25027,3.56344 2.66651,5.40897 0.48519,2.15126 -0.19212,4.59607 -1.65417,5.96966 -1.24441,1.16906 -3.51429,1.95551 -4.81572,1.66863 -1.81357,-0.39981 -1.36075,-3.06493 0.52089,-3.06493 3.43835,0 3.9175,-3.65184 1.05472,-8.05067 -3.56502,-5.47786 -4.29541,-8.87218 -1.83245,-8.51731 z m -51.311592,3.51813 c 3.182445,-0.10011 9.434162,6.16863 8.924002,9.74308 -0.27055,1.89568 -1.71932,1.60423 -2.82773,-0.56844 -1.34419,-2.63486 -3.717077,-5.28041 -6.0663,-6.76341 -1.713231,-1.08153 -1.839702,-1.29089 -1.177706,-1.95286 0.300661,-0.30066 0.693106,-0.44407 1.147734,-0.45837 z m 35.440212,19.07481 c 0.92687,-0.0254 2.13223,0.23144 3.58996,0.81287 4.19247,1.6722 9.7879,2.5443 13.72061,2.13785 4.06157,-0.41975 3.20102,3.52169 -1.46812,6.72104 -4.28057,2.93308 -12.66903,1.34586 -15.92358,-3.01325 -2.97011,-3.97814 -2.69436,-6.58476 0.0811,-6.65851 z m -92.192821,5.66322 v 10e-4 0.002 0.001 0.002 10e-4 0.002 l -10e-4,0.003 c -0.493126,-0.0269 -0.922504,0.36868 -1.42782,0.99271 -0.507395,0.62661 -0.923458,1.87381 -0.923458,2.77141 0,0.89759 -0.206523,1.75899 -0.45837,1.91461 -0.251923,0.15561 0.05527,0.83727 0.682646,1.51412 3.434698,3.70611 10.455674,20.31349 8.587589,20.31349 -1.116547,0 -10.281026,-17.89967 -10.281026,-20.08043 0,-0.63523 -0.14056,-1.01444 -0.311609,-0.84336 -0.171075,0.17107 -0.939241,-0.63841 -1.706873,-1.79731 -3.061223,-4.6216 -7.141445,-3.84302 -6.138643,1.17099 0.307504,1.53747 0.505451,1.40531 -3.301607,2.18746 -1.554245,0.31932 -1.775213,1.47109 -0.901237,4.68344 0.400061,1.4704 0.744585,3.05939 0.767395,3.53105 0.02281,0.47168 0.329674,0.85783 0.682645,0.85783 1.687126,0 8.426859,16.01799 7.08794,16.84548 -0.993146,0.61379 -7.930799,-12.33383 -8.117334,-15.14946 -0.05677,-0.85712 -0.224247,-0.9266 -1.182874,-0.48989 -4.768675,2.17244 4.657693,27.33074 15.671912,41.82535 3.420784,4.50175 3.495917,3.77561 -2.569352,25.33127 -4.834317,17.18084 -5.211768,18.55109 -8.163326,29.6478 l -2.80293,10.53683 -0.02015,7.35097 c -0.02788,10.10106 2.261394,14.86669 8.71058,18.13946 11.305173,5.73701 25.427054,-7.02787 33.874418,-30.61932 0.720465,-2.01209 1.545041,-3.9418 1.832446,-4.28811 0.392256,-0.47252 0.306189,-0.62993 -0.347265,-0.62993 -0.478781,0 -2.254528,-0.77387 -3.946013,-1.7198 -3.538585,-1.97889 -3.348617,-2.14787 -3.890202,3.43545 -0.879273,9.06496 -2.276116,13.59219 -3.742924,12.12536 -0.439243,-0.43927 -0.390528,-1.93355 0.224276,-6.34948 0.439295,-3.17639 0.949508,-7.72506 1.132748,-10.10688 0.119879,-1.55853 0.283229,-2.50169 0.500227,-3.21272 -2.78e-4,-0.003 -0.0016,-0.005 -0.0016,-0.0103 -0.01014,-0.0101 -0.01757,-0.0284 -0.01757,-0.0537 0,-0.0203 0.0016,-0.0422 0.0026,-0.0625 0.0025,-0.0276 0.0074,-0.0548 0.01499,-0.0811 0.0014,-0.005 -0.0024,-0.0105 0.0052,-0.0181 v -0.001 c 0.0025,-0.0294 0.0079,-0.0584 0.0155,-0.0868 l 0.0072,-0.0393 c 0.0025,-0.0177 0.0026,-0.0381 0.0052,-0.0558 0.0051,-0.0393 0.01297,-0.0788 0.0155,-0.11834 v -0.0351 -0.076 -0.0692 -0.0734 -0.0693 -0.0827 -0.0853 -0.0641 -0.0692 -0.0682 c 0,-0.0203 -2.5e-5,-0.0428 0,-0.063 7.6e-5,-0.0203 -3.04e-4,-0.0428 0,-0.0631 3.29e-4,-0.0203 0.0021,-0.0422 0.0026,-0.0625 0.0025,-0.0228 0.0048,-0.0469 0.0124,-0.0698 0.0051,-0.0101 0.0078,-0.0201 0.01033,-0.03 4.31e-4,-0.003 0.0026,-0.008 0.0026,-0.0103 3.04e-4,-0.003 0,-0.007 0,-0.01 v -0.0605 -0.0615 -0.0605 -0.0605 -0.06 -0.0589 -0.0615 -0.0641 -0.0734 -0.0641 -0.0708 -0.0672 c 2.6e-5,-0.0203 0,-0.0397 0,-0.0599 2.6e-5,-0.0228 -1.01e-4,-0.0454 0,-0.0656 1.02e-4,-0.0254 5.78e-4,-0.048 10e-4,-0.0734 0,-0.0228 0.0015,-0.0449 0.0026,-0.0677 0.0023,-0.0203 0.0053,-0.0394 0.01033,-0.0579 v -0.007 -0.002 l 0.280086,-3.73001 c 0.154854,-2.0648 0.403933,-6.50982 0.553972,-9.87898 0.687264,-15.42937 2.200202,-28.02218 4.641577,-38.62762 2.163144,-9.39684 2.561341,-12.41171 2.693892,-20.42459 0.09808,-5.93127 0.322305,-7.9666 1.161686,-10.53682 1.641633,-5.02681 1.288786,-6.37016 -1.669665,-6.37016 -3.062541,0 -5.920781,4.30944 -7.305497,11.01328 -1.3522,6.54646 -0.755561,7.24362 -10.093958,-11.80961 C 42.36858,133.7328 40.32098,129.84744 38.841602,129.76533 Z m -11.988932,8.05067 c 0.203515,0.0502 0.456728,0.16121 0.757059,0.32194 1.285291,0.68788 10.949805,19.84543 10.74198,21.29328 -0.435137,3.03299 -1.75776,1.23028 -7.195426,-9.80302 -4.026541,-8.17 -5.359508,-11.2718 -4.76095,-11.76931 0.09986,-0.0829 0.253847,-0.0923 0.457337,-0.0419 z m 29.990934,26.69036 c 0.158909,-0.0286 0.296075,-0.0252 0.40721,0.005 0.444592,0.12672 0.475853,0.72623 -0.163814,1.72754 -4.336477,6.79831 -5.559873,10.02943 -5.387785,14.22859 0.05601,1.39878 0.07714,2.81949 0.04444,3.1564 -0.11557,1.16503 -1.415174,0.60698 -2.027266,-0.87075 -1.70839,-4.12442 1.170092,-13.57701 5.215185,-17.12867 0.763145,-0.67006 1.435249,-1.03135 1.912028,-1.11725 z m 2.565735,70.44945 -0.674377,6.85746 z m 111.739434,11.51402 0.002,5.2e-4 c -0.32502,0.19414 -0.64917,0.3901 -0.99012,0.55707 -0.43441,0.23089 -0.87073,0.46863 -1.26091,0.76843 -0.72939,0.50945 -1.47932,0.99857 -2.28048,1.38855 -0.8373,0.42492 -1.65228,0.89636 -2.53421,1.22835 -0.75172,0.27896 -1.5131,0.50615 -2.30115,0.65112 -0.69926,0.1916 -1.36537,0.49969 -2.07843,0.6444 -0.27276,-0.0253 -0.98976,0.49119 -1.22318,0.58395 -0.19313,0.0996 -0.38568,0.20182 -0.58033,0.29869 -0.11709,0.058 -0.24306,0.0983 -0.35863,0.15968 -0.34854,0.18501 -0.69207,0.38173 -1.04955,0.5488 -0.005,0.005 -0.01,0.008 -0.015,0.0129 -0.008,0.005 -0.0125,0.01 -0.0176,0.015 -0.003,0.005 -0.003,0.003 -0.003,0.005 -0.005,0.0101 -0.013,0.0178 -0.0181,0.0289 -0.005,0.008 -0.007,0.0175 -0.0124,0.0258 l -0.002,0.002 c -0.56982,2.78317 -1.29857,6.90608 -2.10168,12.13311 -0.0203,0.12926 -0.008,0.16629 -0.0232,0.28267 -3e-5,0.0651 -3e-5,0.13046 0,0.19534 5e-5,0.0689 -2.1e-4,0.13699 0,0.20567 2e-4,0.0553 2.8e-4,0.10985 0.002,0.16485 0,0.0525 0.003,0.10488 0.008,0.15709 0.005,0.0433 0.008,0.0874 0.0227,0.12816 0.0203,0.0588 0.0369,0.11876 0.047,0.17984 0.0123,0.0526 0.0373,0.10116 0.0481,0.15451 -4.6e-4,-8.2e-4 -6.9e-4,-0.002 -0.002,-0.003 5.1e-4,0.003 0.003,0.008 0.002,0.005 3.9e-4,6.3e-4 9.9e-4,0.001 0.002,0.002 v 5.2e-4 c 0.0101,0.0152 0.0203,0.0321 0.0289,0.0475 0.0385,0.0588 0.0769,0.11826 0.11007,0.18035 0.0127,0.0228 0.0251,0.0451 0.0377,0.0672 0.0302,0.0292 0.0573,0.0609 0.0827,0.094 0.23063,0.15232 0.47582,0.72064 0.62115,1.50895 0.56115,3.04295 4.04346,13.36129 6.68073,19.79466 1.36449,3.32853 2.59851,6.43849 2.74246,6.91017 0.20147,0.66073 0.83956,0.87001 2.77761,0.91313 2.4e-4,0 2.8e-4,-10e-6 5.2e-4,0 h 0.001 c 2.64994,0.0588 4.44233,0.23782 5.19968,0.49092 0.0722,-0.11176 0.17121,-0.21592 0.27389,-0.31884 l 10.13427,0.31884 c -5.06018,-31.30623 -7.02096,-39.92954 -11.58689,-50.39227 -0.005,-0.0101 -0.008,-0.0201 -0.0129,-0.03 -0.008,-0.0177 -0.005,-0.0131 -0.01,-0.0207 -0.0101,-0.0177 -0.0205,-0.0344 -0.0357,-0.0496 -0.002,-0.002 -0.005,-0.003 -0.008,-0.005 -0.0127,-0.008 -0.0253,-0.0177 -0.0393,-0.0227 -0.0127,-0.005 -0.0266,-0.005 -0.0393,-0.007 -0.0253,-0.002 -0.0516,-0.002 -0.077,-0.003 -0.0352,-6.8e-4 -0.0722,-0.001 -0.10748,-0.002 -0.0203,-5e-5 -0.0378,-2e-5 -0.0563,0 z"
       transform="matrix(0.39456451,0,0,0.39456451,114.56385,225.42635)" /><path
       id="path304"
       style="display:none;fill:#faad14;fill-opacity:1"
       d="m 150.14161,287.56208 c -0.2526,0.0431 -3.95407,1.4474 -6.50696,2.47021 l -1.52963,0.6123 c -0.003,0.18501 -9.5e-4,0.37007 -0.008,0.55501 -0.0295,0.75396 -0.0902,1.50507 -0.21083,2.24429 -0.0599,0.43545 -0.1139,0.87069 -0.157,1.30963 -0.033,0.33618 -0.0511,0.60434 -0.0987,0.93793 -0.0206,0.14489 -0.0495,0.28758 -0.074,0.43144 -0.16494,0.83931 -0.37553,1.66077 -0.586,2.48204 -0.23695,0.99258 -0.44899,1.99275 -0.64595,3.00034 -0.17414,0.91313 -0.29698,1.83949 -0.41452,2.7677 -0.18085,1.02119 -0.33945,2.04893 -0.50016,3.07578 -0.17355,1.36581 -0.30204,2.74605 -0.34724,4.12993 -0.011,1.07968 0.0299,2.16978 -0.10745,3.2387 -0.11649,0.97837 -0.20263,1.95969 -0.20063,2.95222 -0.0287,0.57888 -0.0474,1.16072 -0.0826,1.73884 -0.006,0.10202 -0.009,0.1006 -0.0135,0.1623 0.32781,0.18149 0.6949,0.39056 1.10125,0.63922 0.95295,0.58313 1.78483,0.99593 1.84893,0.91733 0.36973,-0.45341 1.82576,-6.68817 2.5167,-10.77758 0.43572,-2.57889 0.6802,-3.14585 1.26131,-2.92286 0.93896,0.36031 -1.39952,12.4373 -2.70979,13.99446 -0.38929,0.46264 -0.48219,0.88405 -0.67123,3.04683 -0.12065,1.38048 -0.52477,5.89773 -0.89776,10.03825 -0.37298,4.14052 -0.63357,7.6434 -0.57967,7.78397 0.0805,0.20917 3.05614,0.24663 16.55499,0.20613 l 16.45693,-0.0495 -0.0228,-3.77291 c -0.0396,-6.58538 0.58258,-11.45991 2.38641,-18.69286 1.50705,-6.04291 1.64666,-8.19093 0.879,-13.49899 -0.64307,-4.44653 -0.62884,-4.25205 -0.31828,-4.50979 0.43962,-0.36485 0.88782,-0.0645 1.1043,0.73954 0.67071,2.4908 1.21228,8.67091 0.97422,11.11808 -0.18338,1.88503 -0.23321,2.13435 -1.371,6.80628 -0.41958,1.72288 -0.76319,3.33024 -0.76319,3.57187 v 0.4394 l 0.30116,-0.43002 c 0.18764,-0.2679 0.50225,-0.42941 0.83557,-0.42941 0.88872,0 2.2526,-0.56213 3.0768,-1.26762 0.42811,-0.36645 0.86272,-0.66614 0.96545,-0.66614 0.35745,0 0.50552,-0.65478 0.51138,-1.52963 1.01709,-5.97542 0.99713,-12.29844 -0.0628,-18.97016 -5.7e-4,0.006 -10e-4,0.0131 -0.002,0.0192 -0.10757,-0.86106 -0.37221,-1.60586 -0.80886,-2.73813 -1.76025,-4.56448 -4.86418,-7.21865 -10.70112,-9.1513 -0.96751,-0.32035 -1.50834,-0.48428 -1.89298,-0.57315 0.70573,3.05952 -0.76501,5.32362 -4.41518,6.7918 -5.88994,0.20528 -10.58063,-2.54318 -14.0746,-8.2409 z" /><path
       id="rect304"
       style="fill:#644302;fill-opacity:1;stroke-width:0.53006;stroke-linecap:round;stroke-linejoin:round;stroke-opacity:0.984655;paint-order:stroke fill markers"
       d="M -210.22056 458.03961 C -210.14226 458.05481 -210.06414 458.07033 -209.98648 458.08813 C -209.95788 458.07443 -209.93331 458.05251 -209.90431 458.03961 L -210.22056 458.03961 z M -243.75446 474.04633 L -243.75507 474.04694 C -245.82384 474.14723 -248.02229 475.02094 -249.71681 476.78772 C -254.18384 481.44523 -252.03078 489.79226 -246.36209 489.79226 C -245.62002 489.79226 -245.52082 489.83875 -245.63867 490.13073 C -248.60866 497.48939 -244.02783 508.38754 -236.6986 511.40064 C -236.32654 511.55359 -236.11191 511.68197 -236.00087 511.90406 C -235.83464 511.90906 -235.67738 511.92273 -235.52905 511.94423 C -235.3751 510.56751 -235.28645 509.19107 -235.36797 508.04225 L -235.36797 507.76842 L -236.26349 507.5425 C -240.24024 506.54114 -242.70016 502.13983 -241.0724 498.93683 C -239.87851 496.58757 -236.74301 496.88826 -235.06396 499.51304 C -234.15914 500.92751 -233.20009 500.05981 -231.03945 495.87185 C -230.53781 494.89953 -230.27048 494.63612 -229.00354 493.86694 C -224.63235 491.21313 -221.35743 487.95304 -220.08815 484.99192 L -219.70992 484.10884 L -219.09354 484.46077 C -216.16185 486.12635 -212.35954 491.82328 -212.04523 495.02242 C -212.01893 495.29016 -211.99336 495.37398 -211.96836 495.57641 C -211.97436 495.62801 -211.97733 495.6814 -211.97733 495.7385 L -211.97774 495.7385 L -211.97774 495.98053 C -211.98274 496.11829 -211.96136 496.2541 -211.93186 496.38812 C -211.90116 496.52283 -211.84889 496.65172 -211.79546 496.77879 C -211.75036 496.87389 -211.7127 496.97183 -211.6719 497.06873 C -211.6274 497.17716 -211.56039 497.27293 -211.49512 497.36948 C -211.41282 496.30699 -211.30012 495.40992 -211.14523 494.70454 C -209.34877 486.5232 -211.82152 482.44155 -220.74368 478.86115 C -225.90493 476.78998 -232.80202 476.87851 -236.2586 479.06056 C -237.20795 479.6598 -237.41856 479.66853 -237.41856 479.09522 C -237.41856 476.03187 -239.90842 474.22476 -242.87464 474.05101 C -243.16302 474.03411 -243.45606 474.03834 -243.7516 474.04694 L -243.75446 474.04633 z M -215.70865 492.2535 C -216.24887 492.2515 -217.9276 493.02845 -218.0449 493.33415 C -218.34404 494.11369 -217.54448 494.4279 -216.61456 493.8963 C -215.94502 493.51516 -215.27628 493.53765 -214.48445 493.98173 C -213.63584 494.45562 -213.01974 494.48083 -212.85246 494.04147 C -212.60074 493.3855 -214.40255 492.2575 -215.70865 492.2535 z M -224.78777 492.76712 C -225.60333 492.78112 -226.45048 493.05791 -227.30079 493.59718 C -228.97244 494.65735 -228.46045 495.70807 -226.74252 494.74288 C -226.05099 494.35436 -225.48394 494.18624 -224.86362 494.18624 C -224.37503 494.18624 -223.67588 494.32889 -223.30972 494.5035 C -222.17217 495.04596 -221.46565 494.21963 -222.46375 493.51399 C -223.18815 493.00185 -223.97221 492.75312 -224.78777 492.76712 z M -215.52942 497.08993 C -215.83852 497.12413 -216.09816 497.2201 -216.24143 497.39272 C -216.65952 497.89649 -216.21734 498.32769 -215.14487 498.46196 C -213.52948 498.66421 -213.23069 498.60026 -213.23069 498.05314 C -213.23069 497.44096 -214.60212 496.9873 -215.52942 497.08993 z M -211.50062 497.37009 C -211.55352 498.05331 -211.59683 498.79101 -211.62113 499.63599 C -211.67293 501.43517 -211.85309 503.26682 -212.10783 504.99807 C -212.17154 506.60286 -212.16446 506.58223 -212.57638 508.68269 C -212.85394 509.59287 -213.12995 510.41155 -213.40461 511.13863 C -213.49331 511.34942 -213.58153 511.5432 -213.66907 511.72341 C -213.69264 511.67076 -213.71535 511.61779 -213.73696 511.56355 L -213.73717 511.56355 C -213.78727 511.68161 -213.83897 511.77493 -213.88968 511.88551 C -213.8265 511.84294 -213.76316 511.81303 -213.70026 511.78662 C -214.33221 513.06546 -214.92565 513.59999 -215.38567 514.02336 C -216.29071 514.84171 -216.77612 515.27493 -217.54168 515.8511 C -218.48327 516.25091 -219.41005 516.47859 -220.32202 516.53415 C -220.95738 516.61333 -221.8191 516.57713 -222.90743 516.42568 C -224.20293 516.42568 -228.02384 514.92648 -229.61829 513.79235 C -230.19785 513.38013 -230.61142 513.16405 -230.85064 513.13662 L -230.85145 513.13641 C -231.24937 513.09151 -231.16208 513.57083 -230.54704 514.54065 C -229.15699 516.73254 -226.07908 518.88212 -223.81253 519.24455 C -223.54828 519.28685 -223.39395 519.32593 -223.29218 519.38891 C -223.27248 519.27166 -223.25126 519.15464 -223.22816 519.038 C -223.19166 518.88516 -223.16567 518.72988 -223.13457 518.57597 C -223.11537 518.46062 -223.07366 518.34982 -223.05546 518.23445 C -223.03696 518.12812 -223.03353 518.01971 -223.02283 517.91249 C -223.00293 517.76316 -222.97513 517.61448 -222.94433 517.46698 C -222.91053 517.33458 -222.88233 517.20123 -222.84973 517.06856 C -221.93369 517.10486 -221.09295 517.11597 -220.32773 517.102 C -219.25315 517.03288 -218.17869 516.78799 -217.10412 516.36695 C -215.53309 515.38663 -214.31382 514.15478 -213.44661 512.67173 C -213.057 511.90507 -212.69266 510.98762 -212.35332 509.91933 C -211.63906 507.51603 -211.40223 505.64057 -211.64315 504.293 C -211.44308 501.67749 -210.88612 499.84518 -211.29693 498.22054 C -211.30193 498.19304 -211.30833 498.16566 -211.31243 498.13796 C -211.32443 498.04236 -211.33058 497.94609 -211.34668 497.85108 C -211.34168 497.83218 -211.34451 497.847 -211.35891 497.805 C -211.37861 497.7409 -211.40119 497.67759 -211.42049 497.61334 C -211.43269 497.56724 -211.43128 497.51892 -211.44068 497.47224 C -211.46424 497.44039 -211.47858 497.40287 -211.50062 497.37009 z M -224.15507 497.75301 C -225.2756 497.72471 -226.47603 498.3166 -226.47603 499.28468 C -226.47603 500.05162 -225.75284 500.06775 -225.13133 499.32077 C -224.81651 498.94336 -223.95816 498.92952 -223.46733 499.30425 C -222.63908 499.93071 -221.94643 499.37371 -222.50106 498.5272 C -222.83937 498.01087 -223.48275 497.77062 -224.15507 497.75362 L -224.15507 497.75301 z M -218.48776 498.08984 C -219.45956 497.94982 -219.17158 499.2891 -217.76495 501.45047 C -216.6354 503.18609 -216.82425 504.62698 -218.1809 504.62698 C -218.92333 504.62698 -219.10199 505.67834 -218.38642 505.83609 C -217.87292 505.94928 -216.97731 505.63918 -216.48631 505.17791 C -215.90944 504.63594 -215.64219 503.6713 -215.83363 502.82249 C -215.99786 502.09431 -216.01962 502.05055 -216.88574 500.6881 C -217.21512 500.16998 -217.61711 499.38664 -217.77922 498.94764 C -217.98189 498.39881 -218.20328 498.13084 -218.48776 498.08984 z M -238.7335 499.47797 C -238.91288 499.48397 -239.06772 499.54016 -239.18635 499.65883 C -239.44755 499.92002 -239.39765 500.00263 -238.72167 500.42936 C -237.79475 501.0145 -236.85849 502.05813 -236.32812 503.09775 C -235.89078 503.95501 -235.31915 504.07001 -235.2124 503.32204 C -235.01111 501.91169 -237.47782 499.43847 -238.7335 499.47797 z M -224.75004 507.00401 C -225.84515 507.03311 -225.95723 508.06159 -224.78185 509.63122 C -223.49772 511.35117 -220.18814 511.97764 -218.49918 510.82035 C -216.6569 509.558 -216.31736 508.00264 -217.91991 508.16826 C -219.47162 508.32863 -221.67917 507.98473 -223.33337 507.32494 C -223.90854 507.09553 -224.38413 506.99401 -224.74984 507.00401 L -224.75004 507.00401 z M -262.22629 511.68181 C -262.31079 511.74331 -262.39822 511.80033 -262.49074 511.84982 C -262.54804 511.88002 -262.60598 511.90806 -262.66446 511.93546 C -262.64856 511.99636 -262.63449 512.06823 -262.63449 512.17178 C -262.63449 513.03223 -259.01831 520.0948 -258.57776 520.0948 C -257.84068 520.0948 -260.61111 513.54212 -261.96632 512.07982 C -262.10358 511.93174 -262.18288 511.79513 -262.22608 511.68181 L -262.22629 511.68181 z M -265.85647 512.41503 L -265.85647 512.41564 C -265.93677 512.39574 -265.99752 512.39945 -266.03692 512.43215 C -266.27309 512.62845 -265.74714 513.85211 -264.15841 517.0757 C -262.0129 521.42905 -261.49104 522.14054 -261.31935 520.94383 C -261.23735 520.37256 -265.05063 512.81367 -265.55776 512.54226 C -265.67626 512.47886 -265.77617 512.43483 -265.85647 512.41503 z M -267.08902 515.95386 C -267.13632 516.01336 -267.20246 516.0725 -267.26315 516.13166 C -267.26415 516.19376 -267.26605 516.25554 -267.26805 516.31761 C -267.27305 516.43246 -267.28051 516.54757 -267.29761 516.66138 L -267.297 516.66138 C -267.304 516.70888 -267.31309 516.75445 -267.32249 516.79881 C -267.14714 518.04157 -264.52627 522.91894 -264.14231 522.68164 C -263.61402 522.35514 -266.27328 516.03501 -266.93896 516.03501 C -266.99586 516.03501 -267.04441 515.99656 -267.08882 515.95386 L -267.08902 515.95386 z M -248.76237 517.18744 C -248.76236 517.18762 -248.76235 517.1876 -248.76237 517.18886 C -248.75837 517.18984 -248.73637 517.19885 -248.74177 517.19885 C -248.74877 517.19485 -248.75547 517.19184 -248.76237 517.18744 z M -240.65563 520.43816 L -240.65543 520.43837 L -240.65543 520.43898 C -240.65343 520.46428 -240.65151 520.48943 -240.64951 520.51483 C -237.1792 525.9766 -232.56437 528.61669 -226.79554 528.41563 C -223.17533 526.9595 -221.70445 524.71828 -222.36894 521.69682 C -222.41714 521.68042 -222.4653 521.66382 -222.51411 521.64972 C -222.53871 521.64272 -222.52005 521.64777 -222.55285 521.64177 C -222.58435 521.63577 -222.61555 521.62807 -222.64685 521.62097 C -222.69595 521.61027 -222.74421 521.59742 -222.79202 521.58182 C -222.80872 521.57682 -222.82538 521.57267 -222.84218 521.56877 C -220.841 525.59006 -226.63452 529.11088 -232.15068 527.16431 L -232.1513 527.16431 C -234.98997 526.16259 -239.9365 521.88841 -240.27169 520.43877 C -240.37231 520.43862 -240.47277 520.43923 -240.57346 520.43877 C -240.60076 520.43867 -240.62823 520.43825 -240.65563 520.43816 z M -254.02311 522.9463 L -254.02311 522.94671 C -254.21123 522.98061 -254.47642 523.12315 -254.77753 523.38753 C -256.37358 524.78889 -257.50932 528.51855 -256.83525 530.1459 C -256.59374 530.72896 -256.08097 530.94914 -256.03537 530.48946 C -256.02247 530.35653 -256.0303 529.79597 -256.0529 529.24406 C -256.1208 527.58722 -255.63809 526.31233 -253.92707 523.62996 C -253.67468 523.23488 -253.68702 522.99834 -253.86244 522.94834 C -253.90624 522.93634 -253.96039 522.9263 -254.02311 522.9463 z M -248.90774 523.27804 C -248.91474 523.27904 -248.92206 523.28093 -248.92936 523.28293 C -249.00536 523.29383 -249.07988 523.3112 -249.15568 523.3233 C -249.23508 523.3353 -249.31537 523.34216 -249.39547 523.34716 C -249.43297 523.34756 -249.46949 523.35608 -249.50598 523.36408 C -249.56278 523.37998 -249.6219 523.38202 -249.6797 523.39202 C -249.7334 523.40202 -249.78687 523.41222 -249.84037 523.42342 C -249.92457 523.44302 -250.00903 523.45995 -250.09463 523.47215 C -250.12443 523.47615 -250.15455 523.47914 -250.18455 523.48214 C -250.24965 526.18149 -250.4354 527.50931 -251.2285 530.95455 C -252.19178 535.13908 -252.78873 540.10755 -253.0599 546.19543 C -253.1191 547.52478 -253.21738 549.27863 -253.27848 550.09333 L -253.38899 551.56506 L -253.38899 551.56567 L -253.38899 551.56873 C -253.39099 551.57573 -253.39207 551.58336 -253.39307 551.59136 C -253.39348 551.60036 -253.39348 551.60927 -253.39348 551.61827 C -253.39366 551.62827 -253.39405 551.63723 -253.39409 551.64723 C -253.39413 551.65523 -253.39408 551.66392 -253.39409 551.67292 C -253.39409 551.68092 -253.39408 551.68878 -253.39409 551.69678 L -253.39409 551.72247 L -253.39409 551.7504 L -253.39409 551.77528 L -253.39409 551.80321 L -253.39409 551.82788 L -253.39409 551.85276 L -253.39409 551.87702 L -253.39409 551.90128 L -253.39409 551.92575 L -253.39409 551.9494 L -253.39409 551.97367 L -253.39409 551.99752 C -253.39409 551.99852 -253.39397 552.0006 -253.39409 552.0016 C -253.39409 552.0026 -253.3945 552.00448 -253.3945 552.00548 C -253.3955 552.00948 -253.39657 552.01361 -253.39857 552.01751 C -253.40157 552.02651 -253.40267 552.03644 -253.40367 552.04544 C -253.40387 552.05344 -253.40449 552.06211 -253.40449 552.07011 C -253.40461 552.07811 -253.40446 552.08637 -253.40449 552.09437 C -253.4045 552.10237 -253.40449 552.11125 -253.40449 552.11925 L -253.40449 552.14657 L -253.40449 552.1741 L -253.40449 552.19938 L -253.40449 552.23302 L -253.40449 552.26565 L -253.40449 552.29338 L -253.40449 552.32192 L -253.40449 552.34925 L -253.40449 552.37983 L -253.40449 552.39471 C -253.40549 552.41031 -253.4086 552.4257 -253.4106 552.4412 C -253.4116 552.4482 -253.41153 552.45602 -253.41264 552.46302 L -253.4155 552.47852 C -253.4185 552.48972 -253.42061 552.50056 -253.42161 552.51216 L -253.42161 552.51257 C -253.42461 552.51557 -253.42265 552.5175 -253.42365 552.5195 C -253.42665 552.5299 -253.42857 552.54061 -253.42957 552.55151 C -253.42994 552.55951 -253.43018 552.56839 -253.43018 552.57639 C -253.43018 552.58639 -253.42704 552.59359 -253.42304 552.59759 C -253.42304 552.59959 -253.42274 552.60067 -253.42263 552.60167 C -253.50823 552.88222 -253.57271 553.25436 -253.62001 553.8693 C -253.69231 554.80908 -253.89362 556.60382 -254.06695 557.85711 C -254.30953 559.59948 -254.3256 560.18907 -254.15544 560.36239 C -253.57669 560.94115 -253.02534 559.15487 -252.67841 555.57816 C -252.46472 553.37518 -252.53988 553.44185 -251.14368 554.22265 C -250.47628 554.59588 -249.77563 554.90122 -249.58672 554.90122 C -249.56052 554.90122 -249.5591 554.91012 -249.5386 554.91202 L -249.48844 554.91202 C -249.43184 554.91202 -249.37499 554.90811 -249.31839 554.90611 C -249.30839 554.90585 -249.29842 554.90559 -249.28842 554.9055 C -249.28819 554.9045 -249.2874 554.90367 -249.2874 554.90367 C -249.2834 554.90167 -249.27936 554.90161 -249.27496 554.90061 C -249.24246 554.89461 -249.21051 554.88805 -249.17791 554.88205 C -249.14861 554.87905 -249.12068 554.86925 -249.09268 554.86125 C -249.06858 554.85425 -249.06582 554.8623 -249.06882 554.8533 C -249.02512 554.8337 -248.98344 554.81109 -248.94078 554.78969 C -248.89298 554.76559 -248.84499 554.74162 -248.79703 554.71792 C -248.74683 554.69372 -248.69693 554.66831 -248.64655 554.64451 C -248.62375 554.63351 -248.60126 554.62185 -248.57886 554.60985 C -248.51336 554.42579 -248.4394 554.25892 -248.33459 554.13436 C -247.02432 552.5772 -244.68564 540.50021 -245.6246 540.1399 C -246.20571 539.91691 -246.45039 540.48387 -246.88611 543.06276 C -247.57705 547.15217 -249.03287 553.38693 -249.4026 553.84034 C -249.4667 553.91894 -250.2992 553.50634 -251.25215 552.92321 C -251.6585 552.67455 -252.02498 552.46549 -252.35279 552.284 C -252.34879 552.2223 -252.34595 552.22376 -252.34055 552.1217 C -252.30535 551.54358 -252.28606 550.96154 -252.25736 550.38266 C -252.25936 549.39013 -252.17382 548.40881 -252.05734 547.43044 C -251.91995 546.36152 -251.96028 545.27162 -251.94927 544.19194 C -251.90407 542.80806 -251.77559 541.42782 -251.60204 540.06201 C -251.44133 539.03516 -251.28314 538.00742 -251.10229 536.98623 C -250.98475 536.05802 -250.8615 535.13146 -250.68736 534.21833 C -250.4904 533.21074 -250.27877 532.21057 -250.04182 531.21799 C -249.83135 530.39672 -249.62035 529.57526 -249.45541 528.73595 C -249.43091 528.59209 -249.40159 528.44939 -249.38099 528.3045 C -249.33339 527.97091 -249.3153 527.70276 -249.2823 527.36658 C -249.2392 526.92764 -249.18559 526.4926 -249.12571 526.05715 C -249.00507 525.31793 -248.94438 524.56682 -248.91488 523.81286 C -248.90788 523.63481 -248.90995 523.45657 -248.90795 523.27845 L -248.90774 523.27804 z M -209.6945 531.62068 C -209.6589 531.7287 -209.62018 531.84277 -209.57665 531.96058 C -209.54605 531.91178 -209.50866 531.86756 -209.47756 531.81907 C -209.55156 531.75467 -209.62203 531.68676 -209.6945 531.62068 z M -214.22183 534.53355 C -214.32905 534.54415 -214.43958 534.59383 -214.54949 534.68505 C -214.86005 534.94279 -214.87428 534.74834 -214.23121 539.19484 C -213.46355 544.5029 -213.60316 546.65092 -215.11021 552.69383 C -215.89969 555.85948 -216.42983 558.57059 -216.79807 561.18002 C -216.73267 561.24452 -216.66614 561.3094 -216.59274 561.36455 C -216.50204 561.43005 -216.42279 561.50973 -216.34419 561.58883 C -216.31979 561.61213 -216.29719 561.63848 -216.27079 561.65958 C -216.26779 561.66158 -216.27889 561.65165 -216.27589 561.65265 C -216.27089 561.65365 -216.2668 561.65862 -216.2608 561.66162 C -216.2528 561.66662 -216.24413 561.67273 -216.23613 561.67773 C -216.20093 561.70113 -216.16291 561.71875 -216.12439 561.73605 C -216.09029 561.75085 -216.10178 561.75381 -216.08728 561.75011 C -216.04748 561.76081 -216.00335 561.76363 -215.96209 561.76663 C -215.92879 561.77063 -215.8969 561.76561 -215.8634 561.76561 C -215.8501 561.76461 -215.81004 561.76457 -215.82324 561.76357 C -215.83774 561.76257 -215.85207 561.76459 -215.86667 561.76459 C -215.84727 561.75459 -215.87464 561.76957 -215.87564 561.76357 C -215.87664 561.75857 -215.86666 561.75862 -215.86116 561.75562 C -215.81636 561.73202 -215.77184 561.70834 -215.72781 561.68324 C -215.64771 561.63544 -215.56789 561.58234 -215.50149 561.51624 C -215.49149 561.50624 -215.48031 561.49717 -215.47131 561.48627 C -215.47031 561.48527 -215.47537 561.48442 -215.47437 561.48342 C -215.46837 561.47252 -215.45977 561.46333 -215.45377 561.45283 C -215.43567 561.42343 -215.41842 561.39166 -215.40402 561.36026 C -215.36992 561.27706 -215.34518 561.18986 -215.31778 561.10396 C -215.28768 561.00308 -215.26329 560.90049 -215.23459 560.79914 C -215.22099 560.74414 -215.20298 560.69144 -215.18198 560.63949 C -215.02172 559.68132 -214.85081 558.61933 -214.7277 558.01799 L -214.72709 558.01737 C -214.72509 558.01437 -214.72419 558.01028 -214.72219 558.00698 C -214.72019 558.00298 -214.71706 558.00016 -214.71506 557.99576 C -214.71506 557.99476 -214.71465 557.99472 -214.71465 557.99372 C -214.71265 557.99172 -214.71072 557.98961 -214.70772 557.98761 C -214.70572 557.98561 -214.7036 557.98471 -214.7016 557.98271 C -214.56055 557.91681 -214.42521 557.83917 -214.28769 557.76617 C -214.24209 557.74197 -214.19238 557.72607 -214.14618 557.70317 C -214.06938 557.66497 -213.99341 557.62464 -213.91721 557.58532 C -213.82511 557.54872 -213.5422 557.34491 -213.43458 557.35491 C -213.15323 557.29781 -212.89041 557.17625 -212.61451 557.10065 C -212.30357 557.04345 -212.00316 556.95381 -211.70656 556.84374 C -211.35858 556.71275 -211.03681 556.52674 -210.70644 556.35908 C -210.39033 556.20521 -210.09464 556.01222 -209.80685 555.81121 C -209.6529 555.69292 -209.48054 555.59912 -209.30914 555.50802 C -209.18899 555.44922 -209.075 555.3799 -208.96048 555.31146 C -208.96082 555.29936 -208.96129 555.28747 -208.96129 555.27537 C -208.96329 555.18177 -208.96435 555.08841 -208.96435 554.99481 C -208.9645 554.94131 -208.96426 554.88751 -208.96435 554.83393 C -209.01235 554.75923 -209.05719 554.673 -209.09668 554.57417 C -209.12298 554.50837 -209.14258 554.44061 -209.15968 554.37211 C -209.22918 554.49183 -209.31295 554.57213 -209.42373 554.57213 C -209.52646 554.57213 -209.96107 554.87161 -210.38918 555.23806 C -211.21338 555.94355 -212.57726 556.50466 -213.46598 556.50466 C -213.7993 556.50466 -214.11391 556.66617 -214.30155 556.93407 L -214.60291 557.3647 L -214.60291 556.92632 C -214.60291 556.68469 -214.2591 555.07632 -213.83952 553.35344 C -212.70173 548.68151 -212.6519 548.43178 -212.46852 546.54675 C -212.23046 544.09958 -212.77203 537.92028 -213.44274 535.42948 C -213.6051 534.82649 -213.8977 534.50628 -214.21938 534.53804 L -214.22183 534.53355 z "
       transform="translate(391.01481,-232.61163)" /></g><g
     inkscape:label="Camada 1"
     inkscape:groupmode="layer"
     id="layer1" /></svg>
