<?xml version="1.0" encoding="UTF-8" standalone="no"?>
<!-- Created with Inkscape (http://www.inkscape.org/) -->

<svg
   width="210mm"
   height="297mm"
   viewBox="0 0 210 297"
   version="1.1"
   id="svg1"
   xml:space="preserve"
   inkscape:version="1.4 (86a8ad7, 2024-10-11)"
   sodipodi:docname="sanguine.svg"
   xmlns:inkscape="http://www.inkscape.org/namespaces/inkscape"
   xmlns:sodipodi="http://sodipodi.sourceforge.net/DTD/sodipodi-0.dtd"
   xmlns="http://www.w3.org/2000/svg"
   xmlns:svg="http://www.w3.org/2000/svg"><sodipodi:namedview
     id="namedview1"
     pagecolor="#505050"
     bordercolor="#eeeeee"
     borderopacity="1"
     inkscape:showpageshadow="0"
     inkscape:pageopacity="0"
     inkscape:pagecheckerboard="0"
     inkscape:deskcolor="#505050"
     inkscape:document-units="px"
     inkscape:zoom="0.48945419"
     inkscape:cx="514.85921"
     inkscape:cy="509.75148"
     inkscape:window-width="1920"
     inkscape:window-height="991"
     inkscape:window-x="-9"
     inkscape:window-y="-9"
     inkscape:window-maximized="1"
     inkscape:current-layer="g4" /><defs
     id="defs1"><filter
       id="mask-powermask-path-effect16_inverse"
       inkscape:label="filtermask-powermask-path-effect16"
       style="color-interpolation-filters:sRGB"
       height="100"
       width="100"
       x="-50"
       y="-50"><feColorMatrix
         id="mask-powermask-path-effect16_primitive1"
         values="1"
         type="saturate"
         result="fbSourceGraphic" /><feColorMatrix
         id="mask-powermask-path-effect16_primitive2"
         values="-1 0 0 0 1 0 -1 0 0 1 0 0 -1 0 1 0 0 0 1 0 "
         in="fbSourceGraphic" /></filter><pattern
       patternUnits="userSpaceOnUse"
       width="229.96177"
       height="235.18179"
       patternTransform="translate(1865.9072,1529.9658)"
       preserveAspectRatio="xMidYMid"
       id="pattern16"><path
         style="fill:#f06338;fill-opacity:1;stroke:none;stroke-width:0.495347;stroke-linecap:round;stroke-linejoin:round;paint-order:stroke fill markers"
         id="path9216"
         sodipodi:type="arc"
         sodipodi:cx="114.98088"
         sodipodi:cy="117.59088"
         sodipodi:rx="114.98088"
         sodipodi:ry="117.59088"
         sodipodi:start="0"
         sodipodi:end="6.272498"
         sodipodi:open="true"
         sodipodi:arc-type="arc"
         d="M 229.96176,117.59088 A 114.98088,117.59088 0 0 1 115.28809,235.18134 114.98088,117.59088 0 0 1 0.00164161,118.21924 114.98088,117.59088 0 0 1 114.05926,0.00377746 114.98088,117.59088 0 0 1 229.9552,116.33418"
         mask="none" /><path
         id="path9215"
         style="fill:#222b00;fill-opacity:1;stroke:none;stroke-width:1.87218;stroke-linecap:round;stroke-linejoin:round;paint-order:stroke fill markers"
         d="m 160.96536,89.201313 c -7.30961,-0.197291 -15.70542,1.604788 -24.29296,5.794923 -9.73175,4.748409 -11.69351,5.297194 -23.00587,6.431664 -23.308835,2.33752 -34.287115,9.70204 -34.287115,22.99804 0,2.59888 -0.212031,2.8495 -3.976554,4.69138 -18.629821,9.11471 -22.044019,32.04057 -8.693367,58.38675 1.637065,3.23085 1.909039,4.74602 1.992189,11.07223 0.163276,12.44973 9.89246,25.22487 19.212888,25.23243 1.801285,0.001 3.158211,2.33912 3.158211,5.44335 0,1.62373 0.189354,2.56048 0.667956,3.26956 a 114.98089,117.59088 0 0 0 23.240242,2.66015 114.98089,117.59088 0 0 0 77.14843,-30.91601 c 0.74574,-19.99366 -3.68307,-43.6995 -11.35154,-58.96876 -1.59323,-3.17234 -1.64194,-3.07978 3.00192,-5.65039 8.55561,-4.73598 8.86349,-15.38366 0.57816,-19.97851 -1.1873,-0.65843 -1.23039,-1.07784 -0.43556,-4.23439 3.94878,-15.682055 -6.87594,-25.798036 -22.95703,-26.232417 z m -0.88283,0.150425 c 6.48631,-0.17537 11.62866,1.888366 16.36135,6.16407 5.76971,5.212722 8.78083,16.360402 5.8828,21.775412 -0.70186,1.31142 -0.56206,1.74485 0.91408,2.84375 4.92729,3.66803 5.68675,4.47145 6.12888,6.48435 1.71855,7.82456 -8.25215,16.99755 -12.69336,11.67775 l -1.99022,-2.38476 -4.76368,1.19531 c -6.00257,1.50724 -12.59388,1.51495 -23.70312,0.0265 -8.96402,-1.20027 -28.37064,-1.05634 -33.90625,0.25209 l -2.51172,0.59376 0.16781,11.30665 c 0.19804,13.22158 -0.52868,16.81946 -5.30468,26.26564 -2.70822,5.35646 -3.21986,7.11076 -3.64063,12.44727 -0.35641,4.51793 -0.82334,6.45758 -1.707027,7.12301 -2.005795,1.50754 -3.012812,1.06726 -5.031231,-2.19334 -6.864907,-11.08989 -15.959509,-13.3951 -22.443364,-5.68947 -2.589128,3.07699 -2.92388,2.90014 -5.533228,-2.93552 -11.703232,-26.17384 -7.244977,-48.26045 11.062526,-54.81445 1.507313,-0.53961 2.756485,-1.1621 2.775382,-1.38282 0.0189,-0.22072 0.191244,-2.20562 0.382829,-4.41018 1.116888,-12.85432 11.232567,-19.25953 33.484343,-21.20115 11.14848,-0.97281 10.87616,-0.89862 21.63871,-5.876972 10.1122,-4.677543 17.94334,-7.091981 24.42965,-7.267578 z M 183.0181,166.3166 c 0.26344,0.13153 0.47717,0.38453 0.7578,0.72265 1.37594,1.65792 -0.89881,3.77265 -7.6543,7.11915 -10.56922,5.23574 -18.08893,4.60929 -13.87306,-1.15627 0.86109,-1.17762 1.19543,-1.24203 2.18362,-0.42187 1.75049,1.45274 5.21178,0.50498 11.7461,-3.21876 4.81262,-2.74257 6.04905,-3.43907 6.83984,-3.0449 z m -53.24417,2.17383 c 2.34543,0.12473 6.12628,0.91624 11.86133,2.40235 11.53667,2.98949 13.08896,3.77627 11.19141,5.67382 -2.15301,2.15301 -26.30857,-3.79343 -26.30857,-6.47656 0,-1.18136 0.91045,-1.72425 3.25583,-1.59961 z m 45.31839,11.53905 c 0.86427,0.0586 1.87208,0.6127 2.95703,1.76757 2.28933,2.43686 2.96126,9.65341 1.15623,12.40823 -2.13645,3.26064 -4.66722,1.6148 -6.30663,-4.10158 -1.70876,-5.95827 -0.39946,-10.24974 2.19337,-10.07422 z m -32.49025,2.1758 c 0.48589,-0.008 0.9993,0.15383 1.52931,0.50778 2.47937,1.65551 3.42916,10.30953 1.54295,14.05667 -1.52969,3.03889 -4.68994,2.88442 -6.01757,-0.29291 -2.53947,-6.07783 -0.45581,-14.22603 2.94531,-14.27146 z m 19.34377,0.31257 c 8.1594,0 14.51354,32.70024 6.96677,35.8535 -3.26518,1.36434 -5.10702,1.33047 -6.55858,-0.12094 -1.57894,-1.57894 -0.22942,-3.21094 2.65429,-3.21094 7.05422,0 7.22158,-5.47608 0.56836,-18.55857 -5.10104,-10.03042 -6.12404,-13.9629 -3.63084,-13.9629 z m -80.109392,11.0488 c 0.869292,0.10659 2.057877,0.51096 3.531251,1.28909 3.664781,1.93546 7.245241,7.13764 7.417965,10.77929 0.187465,3.95542 -1.869052,3.51745 -3.906255,-0.83203 -1.194217,-2.54971 -2.840769,-4.50467 -5.253884,-6.2383 -4.124674,-2.96337 -4.396951,-5.31821 -1.789077,-4.99805 z m 11.429707,32.43557 c 0.401991,0 0.73047,0.98559 0.73047,2.19141 0,1.20586 -0.328441,2.19333 -0.73047,2.19333 -0.40199,0 -0.730469,-0.98747 -0.730469,-2.19333 0,-1.20582 0.328441,-2.19141 0.730469,-2.19141 z"
         mask="none" /></pattern><filter
       id="mask-powermask-path-effect12_inverse"
       inkscape:label="filtermask-powermask-path-effect12"
       style="color-interpolation-filters:sRGB"
       height="100"
       width="100"
       x="-50"
       y="-50"><feColorMatrix
         id="mask-powermask-path-effect12_primitive1"
         values="1"
         type="saturate"
         result="fbSourceGraphic" /><feColorMatrix
         id="mask-powermask-path-effect12_primitive2"
         values="-1 0 0 0 1 0 -1 0 0 1 0 0 -1 0 1 0 0 0 1 0 "
         in="fbSourceGraphic" /></filter></defs><g
     id="g4"
     transform="matrix(2.5344398,0,0,2.5344398,-290.35517,-571.33159)"
     inkscape:label="g282"><path
       id="path1"
       style="display:inline;fill:#fbb937;fill-opacity:1;stroke-width:0.639199;stroke-linecap:round;stroke-linejoin:round;stroke-opacity:0.984655;paint-order:stroke fill markers"
       d="m 160.07826,225.40823 a 28.973093,30.598364 0 0 0 -28.74049,30.7609 28.973093,30.598364 0 0 0 22.54937,29.59645 c 0.0984,-0.1038 0.16609,-0.19772 0.14945,-0.2614 -0.002,-0.009 1.4e-4,-0.0149 -0.002,-0.0239 0.14793,-0.2715 0.29228,-0.61151 0.43042,-1.00766 7.9e-4,-9.1e-4 0.001,-0.003 0.002,-0.004 7.9e-4,-9.5e-4 0.002,-0.004 0.002,-0.005 0.31609,-0.90899 0.59641,-2.10362 0.80906,-3.38286 0.004,-0.0292 0.008,-0.0543 0.0135,-0.0832 0.30197,-1.8483 0.45451,-3.85884 0.3558,-5.46301 0.0673,1.12366 -0.0131,2.44266 -0.16169,3.77108 -0.14833,-0.0215 -0.30559,-0.0352 -0.47182,-0.0402 -0.11104,-0.22209 -0.32568,-0.35047 -0.69774,-0.50342 -7.32923,-3.0131 -11.91005,-13.91125 -8.94006,-21.26991 0.11785,-0.29198 0.0187,-0.33847 -0.72342,-0.33847 -5.66869,0 -7.82175,-8.34703 -3.35472,-13.00454 1.69452,-1.76678 3.89297,-2.64049 5.96174,-2.74078 l 6.1e-4,-6.1e-4 0.003,6.1e-4 c 0.29554,-0.009 0.58858,-0.0128 0.87696,0.004 2.96622,0.17375 5.45607,1.98086 5.45607,5.04421 0,0.57331 0.21062,0.56458 1.15997,-0.0347 3.45658,-2.18205 10.35367,-2.27058 15.51492,-0.19941 8.92216,3.5804 11.39491,7.66205 9.59845,15.84339 -0.15489,0.70538 -0.26759,1.60245 -0.34989,2.66494 -0.0653,-0.0966 -0.13228,-0.19232 -0.17678,-0.30075 -0.0408,-0.0969 -0.0785,-0.19484 -0.12356,-0.28994 -0.0534,-0.12707 -0.10571,-0.25596 -0.13641,-0.39067 -0.0295,-0.13402 -0.0509,-0.26983 -0.0459,-0.40759 v -0.24203 h 4.1e-4 c 0,-0.0571 0.003,-0.11049 0.009,-0.16209 -0.025,-0.20243 -0.0506,-0.28625 -0.0769,-0.55399 -0.27502,-2.79925 -3.22059,-7.51077 -5.91668,-9.76075 2.69537,2.25056 5.63866,6.96048 5.91362,9.75912 0.0263,0.26774 0.051,0.35156 0.076,0.55399 -0.006,0.0516 -0.009,0.1052 -0.009,0.1623 h -8.1e-4 v 0.24182 c -0.005,0.13776 0.017,0.27357 0.0465,0.40759 0.0307,0.13471 0.083,0.26359 0.13641,0.39067 0.0451,0.0951 0.0828,0.19304 0.12356,0.28994 0.0596,0.14529 0.14373,0.27742 0.23673,0.4031 0.009,0.0467 0.008,0.095 0.0202,0.1411 0.0193,0.0642 0.0413,0.12756 0.061,0.19166 0.0134,0.042 0.0164,0.0272 0.0114,0.0461 0.0161,0.095 0.0216,0.19108 0.0336,0.28668 0.004,0.0277 0.0105,0.0553 0.0155,0.0828 -10e-6,2.4e-4 0,5.8e-4 0,8.2e-4 7e-5,4e-4 1.3e-4,8.2e-4 2e-4,10e-4 0.41081,1.62464 -0.14615,3.45695 -0.34622,6.07246 0.24092,1.34757 0.004,3.22303 -0.71017,5.62633 -0.33934,1.06829 -0.70369,1.98574 -1.0933,2.7524 -0.17854,0.30533 -0.38169,0.59313 -0.59007,0.87717 a 28.973093,30.598364 0 0 0 12.30558,-24.90478 l -0.002,-0.32705 a 28.973093,30.598364 0 0 0 -29.20354,-30.27033 z m 15.22783,34.20635 c -0.54022,-0.002 -2.21895,0.77475 -2.33625,1.08045 -0.0375,0.0976 -0.0577,0.18788 -0.0626,0.27016 0.005,-0.0821 0.0252,-0.17217 0.0626,-0.26955 0.1173,-0.3057 1.79603,-1.08265 2.33625,-1.08065 1.14284,0.004 2.66515,0.8675 2.85925,1.52291 -0.19356,-0.65547 -1.71616,-1.51982 -2.85925,-1.52332 z m -9.07912,0.51362 c -0.81556,0.014 -1.66272,0.29059 -2.51303,0.82986 -0.62737,0.39789 -0.947,0.79435 -1.01092,1.08351 0.0643,-0.2891 0.38406,-0.68534 1.01092,-1.0829 0.85031,-0.53927 1.69747,-0.81606 2.51303,-0.83006 0.81556,-0.014 1.59962,0.23473 2.32402,0.74687 0.24952,0.17641 0.39243,0.36028 0.44878,0.5285 -0.0562,-0.1684 -0.19894,-0.35248 -0.44878,-0.52911 -0.7244,-0.51214 -1.50846,-0.76067 -2.32402,-0.74667 z m 9.19249,0.86289 c -0.11664,-0.005 -0.22975,0.0196 -0.34357,0.0379 0.35281,-0.0565 0.7193,-0.002 1.11083,0.16169 -0.26522,-0.11132 -0.52234,-0.19017 -0.76726,-0.19961 z m 2.742,0.41269 c -0.0409,0.10659 -0.10966,0.18398 -0.20043,0.23591 0.0913,-0.0517 0.1594,-0.12988 0.20043,-0.23591 z m -2.67594,3.04703 c -0.3091,0.0342 -0.56894,0.13037 -0.71221,0.30299 -0.0524,0.0631 -0.091,0.12516 -0.11683,0.18555 0.0258,-0.0603 0.0646,-0.12217 0.11683,-0.18514 0.14327,-0.17262 0.40291,-0.26859 0.71201,-0.30279 0.81139,-0.0898 1.96279,0.24624 2.23797,0.74178 -0.27478,-0.49578 -1.42618,-0.83221 -2.23777,-0.74239 z m -8.62585,0.66328 c -0.98064,-0.0248 -2.02227,0.42541 -2.26713,1.18709 0.24509,-0.76145 1.28666,-1.21145 2.26713,-1.18668 z m 0,6.1e-4 v 4.1e-4 c 0.67232,0.017 1.3157,0.25725 1.65401,0.77358 0.0693,0.10582 0.11917,0.20716 0.1517,0.30218 -0.0325,-0.0951 -0.0823,-0.19662 -0.1517,-0.30259 -0.33831,-0.51633 -0.9817,-0.75657 -1.65401,-0.77358 z m -12.38959,0.23142 c 0.002,0.001 0.003,0.003 0.005,0.004 -0.002,-10e-4 -0.003,-0.003 -0.005,-0.004 z m 18.0569,0.1046 c -0.36455,-0.0525 -0.55188,0.10314 -0.56928,0.43226 0.0176,-0.32873 0.20494,-0.48414 0.56928,-0.43165 0.28448,0.041 0.50587,0.30897 0.70854,0.8578 0.16211,0.439 0.5641,1.22234 0.89348,1.74046 0.64959,1.02184 0.82416,1.30184 0.94016,1.68521 -0.116,-0.38349 -0.29039,-0.66349 -0.94016,-1.68562 -0.32938,-0.51812 -0.73137,-1.30146 -0.89348,-1.74046 -0.20267,-0.54883 -0.42406,-0.817 -0.70854,-0.858 z m 2.54218,4.28408 c 0.0387,0.12779 0.0709,0.26714 0.11194,0.44918 -4e-5,-1.9e-4 5e-5,-4.1e-4 0,-6.1e-4 -0.041,-0.18189 -0.0733,-0.32089 -0.11194,-0.44857 z m -19.81836,-3.74212 c 0.007,0.007 0.013,0.0142 0.0196,0.021 -0.007,-0.007 -0.0129,-0.0142 -0.0196,-0.021 z m 11.39865,0.39923 c -0.15765,0.002 -0.30984,0.0273 -0.44225,0.0759 0.35938,-0.13094 0.85377,-0.0765 1.2193,0.13845 -0.23086,-0.13685 -0.50682,-0.21755 -0.77705,-0.2143 z m -14.36821,0.44694 c -0.17938,0.006 -0.33422,0.0622 -0.45285,0.18086 -0.0656,0.0656 -0.11136,0.11995 -0.13274,0.17127 0.0215,-0.0511 0.0674,-0.10536 0.13274,-0.17066 0.11863,-0.11867 0.27347,-0.17486 0.45285,-0.18086 1.09872,-0.0346 3.12463,1.85467 3.4791,3.27234 -0.35418,-1.41775 -2.38027,-3.30751 -3.4791,-3.27295 z m 3.4791,3.27295 c 0.0506,0.20239 0.0671,0.39513 0.042,0.57132 0.0251,-0.17617 0.009,-0.36893 -0.042,-0.57132 z m 0.17535,-3.25643 c 0.004,0.006 0.008,0.0113 0.0124,0.0175 0.11386,0.17798 0.22876,0.31903 0.34663,0.42268 -0.11694,-0.10344 -0.23096,-0.24438 -0.34397,-0.42105 -0.005,-0.007 -0.0105,-0.012 -0.0151,-0.0192 z m 9.7116,0.0355 c -0.31703,0.27823 -0.63377,0.4018 -0.84698,0.30074 0.21321,0.10137 0.52995,-0.022 0.84698,-0.30074 z m -10.61487,4.07141 c 0.11536,0.11766 0.22966,0.18825 0.33399,0.20981 -0.10433,-0.0216 -0.21863,-0.0922 -0.33399,-0.20981 z m 18.94182,0.0883 c -0.0756,0.57717 -0.46207,0.93731 -1.1404,0.93731 -0.37121,0 -0.60138,0.26281 -0.64941,0.54542 0.0483,-0.28232 0.27848,-0.54481 0.64941,-0.54481 0.67855,0 1.06498,-0.36042 1.1404,-0.93792 z m -7.70955,3.31454 c -0.27398,0.007 -0.48618,0.0772 -0.63208,0.20247 0.14614,-0.12497 0.35839,-0.19479 0.63208,-0.20206 h 2.1e-4 c 0.36571,-0.01 0.8413,0.0915 1.41647,0.32093 1.6542,0.65979 3.86175,1.00369 5.41346,0.84332 0.60096,-0.0621 0.92873,0.11777 1.00664,0.43349 -0.0778,-0.3159 -0.40545,-0.49602 -1.00664,-0.4339 -1.55171,0.16037 -3.75946,-0.18373 -5.41366,-0.84352 -0.57517,-0.22941 -1.05077,-0.33075 -1.41648,-0.32073 z m -12.93154,0.0114 c 0.44553,0.22313 0.9199,0.40203 1.4181,0.52748 l 0.89307,0.22531 v -10e-4 l -0.89613,-0.22592 c -0.49709,-0.12517 -0.9704,-0.30341 -1.41504,-0.52585 z m 25.12498,1.55798 c -0.0325,0.10849 -0.0582,0.21387 -0.0916,0.32215 0.024,-0.0774 0.0478,-0.1337 0.0718,-0.21246 0.0111,-0.0568 0.009,-0.0559 0.0198,-0.10969 z m -0.71873,2.18251 c -0.0482,0.13281 -0.0941,0.28395 -0.14232,0.41187 0.004,-0.0103 0.009,-0.0184 0.013,-0.0288 0.0429,-0.11343 0.0864,-0.26523 0.12927,-0.38312 z m -17.57632,2.37866 c -0.19981,-0.0228 -0.27701,0.0867 -0.22734,0.32338 -0.0487,-0.23506 0.0287,-0.34357 0.22754,-0.32114 l 8.2e-4,2.1e-4 c 0.23922,0.0274 0.65279,0.24351 1.23235,0.65573 1.59445,1.13413 5.41536,2.63333 6.71086,2.63333 0.0336,0.005 0.0571,0.004 0.0903,0.009 -0.0302,-0.005 -0.0605,-0.006 -0.0907,-0.0108 -1.29549,0 -5.1162,-1.4994 -6.71065,-2.63353 -0.57983,-0.41243 -0.99399,-0.62867 -1.23317,-0.65594 z m 0.33643,1.45011 c 0.14816,0.22966 0.31699,0.4578 0.49894,0.68408 -0.18169,-0.22627 -0.35103,-0.45462 -0.49894,-0.68408 z m 0.71405,0.93732 c 0.1356,0.15724 0.27654,0.31191 0.42533,0.46509 -0.14836,-0.15303 -0.2901,-0.30808 -0.42533,-0.46509 z m 0.69631,0.73851 c 0.1563,0.15065 0.31951,0.29627 0.48588,0.44062 -0.16604,-0.14436 -0.32989,-0.29 -0.48588,-0.44062 z m 10.29577,0.0167 c -0.0908,0.0215 -0.18164,0.0536 -0.27241,0.0726 0.0905,-0.0206 0.18165,-0.0487 0.27241,-0.0726 z m -0.32909,0.084 c -0.39466,0.0805 -0.78931,0.13959 -1.18383,0.17331 0.39167,-0.0239 0.7867,-0.086 1.18383,-0.17331 z m -2.46369,0.19044 c 0.16607,0.009 0.30719,0.006 0.45734,0.007 -0.15247,7e-4 -0.30493,-3.8e-4 -0.45734,-0.007 z m -1.24785,0.51728 c -0.0326,0.13267 -0.0608,0.26602 -0.0946,0.39842 -0.0308,0.1475 -0.0586,0.29618 -0.0785,0.44551 -0.004,0.0367 -0.008,0.0734 -0.0112,0.11031 a 28.973093,30.598364 0 0 0 2.66636,-0.92141 c -0.75545,0.013 -1.58051,0.003 -2.48204,-0.0328 z m -4.22943,0.78378 c 0.0829,0.0532 0.16385,0.10675 0.24733,0.15762 -0.083,-0.0507 -0.16488,-0.10466 -0.24733,-0.15762 z m 0.71996,0.43308 c 0.11375,0.0625 0.22675,0.11854 0.34051,0.17617 -0.11362,-0.0576 -0.22688,-0.11362 -0.34051,-0.17617 z"
       transform="translate(-3.7530397e-6)" /><path
       id="path2"
       style="display:inline;fill:#faad14;fill-opacity:1;stroke-width:0.529167;stroke-linecap:round;stroke-linejoin:round;stroke-opacity:0.984655;paint-order:stroke fill markers"
       d="m 171.9916,23.763394 c -5.3e-4,0.06716 -0.003,0.134639 -0.003,0.202055 0.0253,-0.06666 0.0472,-0.133849 0.0718,-0.200505 -0.0226,5.79e-4 -0.0458,-0.002 -0.0687,-0.0015 z m -28.18898,42.307495 -0.95963,2.238623 c -3.21691,7.504781 -11.51803,15.766763 -22.59655,22.492685 -3.21098,1.949441 -3.88748,2.617573 -5.15886,5.08186 -5.47601,10.614133 -7.90824,12.812753 -10.20145,9.227863 -4.25545,-6.652347 -12.200614,-7.41444 -15.226457,-1.46038 -4.125459,8.11781 2.106469,19.27268 12.185307,21.81056 l 2.27117,0.57257 -0.002,0.69402 c 0.29197,4.11504 -0.10646,9.3739 -0.89194,14.18156 -0.0127,0.0732 -0.0229,0.13684 -0.0341,0.21084 -0.53895,3.24214 -1.24941,6.26986 -2.05052,8.57364 -0.001,0.003 -0.003,0.01 -0.005,0.0124 -10e-4,0.003 -0.003,0.008 -0.005,0.0103 -0.35011,1.00402 -0.71597,1.86577 -1.09089,2.55385 0.005,0.0228 -10e-4,0.0369 0.005,0.0605 0.059,0.22582 -0.216388,0.575 -0.689365,0.98082 -0.01014,0.0101 -0.0175,0.0291 -0.02739,0.0393 7.35e-4,-0.005 4.09e-4,-0.0125 0.001,-0.0176 -1.351363,1.15016 -4.41186,2.78283 -7.128247,3.65921 -3.74831,1.20936 11.754452,15.26277 20.076292,18.1994 h 0.001 c 14.08895,4.97176 28.91837,-4.12721 23.49624,-14.41721 -0.53563,-1.01654 -0.80507,-2.37139 -0.6966,-3.50831 0.17209,-1.80425 0.12994,-1.86081 -1.66708,-2.14819 -5.74442,-0.91856 -13.5452,-6.36706 -17.0682,-11.92227 -2.49531,-3.9347 -1.56388,-4.68392 2.3549,-1.89652 4.04103,2.87439 13.72438,6.67452 17.00773,6.67452 1.77155,0.30314 3.54239,0.41774 5.31596,0.35192 0.42551,-0.0228 0.78112,-0.0592 1.23765,-0.0718 2.07277,-0.17716 4.14576,-0.60811 6.22132,-1.28881 0.27676,-0.12571 0.55189,-0.29406 0.82528,-0.44235 2.77855,-1.95994 6.15338,-5.3636 8.60722,-7.4812 2.2312,-4.56579 5.36015,-14.19584 6.19497,-19.98069 0.40632,-2.81587 0.86609,-11.65902 1.02423,-17.22686 -0.0127,-0.0697 -0.0289,-0.13959 -0.0393,-0.2098 -0.0304,-0.24229 -0.0445,-0.48577 -0.0853,-0.72657 0.0127,-0.0479 0.005,-0.0103 -0.0289,-0.11679 -0.0499,-0.16245 -0.1056,-0.32293 -0.15451,-0.48576 -0.0309,-0.11684 -0.0273,-0.2393 -0.0512,-0.3576 -0.2357,-0.318528 -0.44881,-0.653414 -0.59996,-1.021643 -0.10341,-0.245587 -0.19883,-0.493916 -0.31316,-0.734839 -0.13535,-0.322052 -0.26802,-0.648707 -0.34572,-0.990121 -0.0748,-0.339666 -0.12923,-0.683867 -0.11782,-1.033012 v -0.612882 h 0.002 c 0,-0.144717 0.008,-0.280516 0.0227,-0.411344 -0.0634,-0.513046 -0.12612,-0.725478 -0.19276,-1.404049 -0.79661,-8.108028 -10.43022,-22.546562 -17.86041,-26.767875 z m 10.14512,20.645252 c 3.31023,0.01014 7.8768,2.86899 7.23883,4.531506 -0.42396,1.104712 -1.98543,1.049118 -4.13618,-0.151928 -2.00685,-1.118879 -3.70173,-1.181985 -5.39864,-0.216008 -2.35683,1.347308 -4.38326,0.550461 -3.6251,-1.425236 0.29729,-0.774778 4.55194,-2.743403 5.92109,-2.738334 z m -23.01048,1.301729 c 2.06699,-0.03548 4.05413,0.594403 5.89008,1.892391 2.52962,1.788402 0.739,3.88269 -2.14406,2.507858 -0.92801,-0.442538 -2.69995,-0.804086 -3.93826,-0.804086 -1.57216,0 -3.00934,0.426086 -4.76198,1.410767 -4.35399,2.446216 -5.6516,-0.216762 -1.4149,-2.903699 2.15506,-1.366748 4.30213,-2.067622 6.36912,-2.103231 z m 23.46523,10.955404 c 2.35019,-0.26011 5.82549,0.890179 5.82549,2.441716 0,1.38664 -0.75729,1.54818 -4.85139,1.03559 -2.71809,-0.3403 -3.83879,-1.43262 -2.77916,-2.709394 0.36311,-0.437495 1.02167,-0.681209 1.80506,-0.767912 z m -21.86171,1.681036 v 0.002 c 1.70395,0.0431 3.33457,0.65199 4.19199,1.9606 1.40568,2.14533 -0.3498,3.55712 -2.44895,1.96939 -1.24398,-0.94091 -3.41942,-0.9147 -4.21731,0.0419 -1.57518,1.89796 -3.40806,1.85232 -3.40806,-0.0915 0,-2.45354 3.04241,-3.95373 5.88233,-3.88193 z m 14.36346,0.85318 c 0.721,0.10391 1.28211,0.78356 1.79576,2.17454 0.41086,1.11262 1.42967,3.09795 2.26446,4.4111 2.19513,3.45304 2.25026,3.56344 2.6665,5.40897 0.48519,2.15126 -0.19211,4.59607 -1.65416,5.96966 -1.24441,1.16906 -3.5143,1.95552 -4.81573,1.66864 -1.81357,-0.39981 -1.36074,-3.06493 0.5209,-3.06493 3.43835,0 3.9175,-3.65184 1.05472,-8.05067 -3.56502,-5.47786 -4.29541,-8.87218 -1.83245,-8.51731 z m -51.311596,3.51813 c 3.182445,-0.10011 9.434166,6.16862 8.924006,9.74307 -0.27055,1.89568 -1.71933,1.60423 -2.82774,-0.56844 -1.34419,-2.63486 -3.717071,-5.28041 -6.066294,-6.76341 -1.713231,-1.08153 -1.839701,-1.29088 -1.177705,-1.95285 0.300661,-0.30066 0.693105,-0.44407 1.147733,-0.45837 z m 35.440216,19.0748 c 0.92687,-0.0254 2.13223,0.23144 3.58996,0.81287 4.19247,1.6722 9.7879,2.54431 13.72061,2.13786 4.06157,-0.41975 3.20101,3.52168 -1.46813,6.72103 -4.28057,2.93308 -12.66902,1.34586 -15.92357,-3.01325 -2.97011,-3.97814 -2.69433,-6.58476 0.0811,-6.65851 z m -92.192824,5.66322 v 0.001 0.002 0.001 0.002 10e-4 0.002 l -10e-4,0.003 c -0.493126,-0.0269 -0.922504,0.36867 -1.42782,0.9927 -0.507395,0.62661 -0.923458,1.87381 -0.923458,2.77141 0,0.89759 -0.206523,1.75899 -0.45837,1.91461 -0.251923,0.15561 0.05527,0.83727 0.682646,1.51412 3.434698,3.70611 10.455675,20.31349 8.58759,20.31349 -1.116547,0 -10.281027,-17.89967 -10.281027,-20.08043 0,-0.63523 -0.140559,-1.01444 -0.311608,-0.84336 -0.171075,0.17107 -0.939241,-0.6384 -1.706873,-1.7973 -3.061223,-4.6216 -7.141445,-3.84303 -6.138643,1.17098 0.307504,1.53747 0.50545,1.40532 -3.301608,2.18747 -1.554245,0.31932 -1.775213,1.47108 -0.901237,4.68343 0.400061,1.4704 0.744585,3.05939 0.767395,3.53105 0.02281,0.47168 0.329675,0.85783 0.682646,0.85783 1.687126,0 8.426858,16.018 7.087939,16.84549 -0.993146,0.61379 -7.930799,-12.33384 -8.117334,-15.14947 -0.05677,-0.85712 -0.224246,-0.9266 -1.182873,-0.48989 -4.768675,2.17244 4.657693,27.33074 15.671912,41.82535 3.420784,4.50175 3.495916,3.77561 -2.569353,25.33127 -4.834317,17.18084 -5.211768,18.5511 -8.163326,29.64781 l -2.802929,10.53682 -0.02015,7.35097 c -0.02788,10.10106 2.261393,14.8667 8.710579,18.13947 11.305173,5.73701 25.427055,-7.02787 33.874419,-30.61932 0.720465,-2.01209 1.545041,-3.9418 1.832446,-4.28811 0.392256,-0.47252 0.306188,-0.62994 -0.347266,-0.62994 -0.478781,0 -2.254527,-0.77386 -3.946012,-1.71979 -3.538585,-1.97889 -3.348617,-2.14787 -3.890202,3.43545 -0.879273,9.06496 -2.276116,13.59219 -3.742924,12.12536 -0.439243,-0.43927 -0.390528,-1.93356 0.224276,-6.34949 0.439295,-3.17639 0.949507,-7.72505 1.132747,-10.10687 0.119879,-1.55853 0.28323,-2.5017 0.500228,-3.21273 -2.78e-4,-0.003 -0.0016,-0.005 -0.0016,-0.0103 -0.01014,-0.0101 -0.01757,-0.0284 -0.01757,-0.0538 0,-0.0203 0.0016,-0.0422 0.0026,-0.0625 0.0025,-0.0276 0.0074,-0.0543 0.01499,-0.0806 0.0014,-0.005 -0.0024,-0.011 0.0052,-0.0186 v -5.2e-4 c 0.0025,-0.0294 0.0079,-0.0584 0.0155,-0.0868 l 0.0072,-0.0393 c 0.0025,-0.0177 0.0026,-0.0381 0.0052,-0.0558 0.0051,-0.0393 0.01297,-0.0788 0.0155,-0.11834 v -0.0351 -0.076 -0.0692 -0.0734 -0.0693 -0.0832 -0.0853 -0.0641 -0.0692 -0.0682 c 0,-0.0203 -2.5e-5,-0.0423 0,-0.0625 7.6e-5,-0.0203 -3.04e-4,-0.0433 0,-0.0636 3.29e-4,-0.0203 0.0021,-0.0417 0.0026,-0.062 0.0025,-0.0228 0.0048,-0.0474 0.0124,-0.0703 0.0051,-0.0101 0.0078,-0.0201 0.01033,-0.03 4.31e-4,-0.003 0.0026,-0.008 0.0026,-0.0103 3.04e-4,-0.003 0,-0.007 0,-0.01 v -0.0605 -0.0615 -0.0605 -0.0605 -0.0599 -0.0589 -0.0615 -0.0641 -0.0734 -0.0641 -0.0708 -0.0672 c 2.6e-5,-0.0203 0,-0.0397 0,-0.0599 2.6e-5,-0.0228 -1.01e-4,-0.0454 0,-0.0656 1.02e-4,-0.0254 6.11e-4,-0.048 10e-4,-0.0734 0,-0.0228 0.0015,-0.0449 0.0026,-0.0677 0.0023,-0.0203 0.0053,-0.0394 0.01034,-0.0579 v -0.007 -0.002 l 0.280087,-3.73001 c 0.154854,-2.0648 0.403932,-6.50982 0.553971,-9.87898 0.687264,-15.42937 2.200202,-28.02218 4.641577,-38.62762 2.163144,-9.39684 2.561342,-12.41171 2.693893,-20.42459 0.09808,-5.93127 0.322305,-7.96661 1.161686,-10.53683 1.641633,-5.02681 1.288785,-6.37015 -1.669666,-6.37015 -3.062541,0 -5.920781,4.30944 -7.305497,11.01328 -1.3522,6.54646 -0.75556,7.24362 -10.093957,-11.80961 -6.343221,-12.94209 -8.390821,-16.82746 -9.870199,-16.90957 z m -11.988933,8.05067 c 0.203515,0.0502 0.456729,0.16122 0.75706,0.32195 1.285291,0.68788 10.949805,19.84542 10.74198,21.29327 -0.435137,3.03299 -1.75776,1.23028 -7.195426,-9.80302 -4.026541,-8.17 -5.359508,-11.27179 -4.76095,-11.7693 0.09986,-0.0829 0.253846,-0.0923 0.457336,-0.0419 z m 63.318616,19.66495 c -0.640199,0.10924 -10.021354,3.66835 -16.4915,6.2606 l -3.876766,1.55185 c -0.0076,0.46889 -0.0023,0.93791 -0.02015,1.40663 -0.07477,1.91087 -0.228605,3.81452 -0.534335,5.68802 -0.151813,1.10363 -0.288674,2.20671 -0.397908,3.31918 -0.08364,0.85203 -0.129475,1.53165 -0.250114,2.37712 -0.05221,0.36721 -0.125492,0.72887 -0.187586,1.09347 -0.41803,2.12718 -0.951757,4.20911 -1.48518,6.29057 -0.600536,2.51564 -1.137926,5.05051 -1.63711,7.60419 -0.441347,2.31427 -0.752683,4.66207 -1.050582,7.01456 -0.458353,2.58814 -0.860313,5.1929 -1.267622,7.79539 -0.439852,3.46156 -0.765493,6.9597 -0.88005,10.46706 -0.02788,2.73638 0.07577,5.49917 -0.272335,8.20828 -0.295237,2.47962 -0.513565,4.96673 -0.508496,7.48224 -0.07274,1.46713 -0.120077,2.94175 -0.20929,4.40696 -0.01521,0.25857 -0.02322,0.25497 -0.03462,0.41135 0.830815,0.45997 1.761175,0.98984 2.791044,1.62005 2.415195,1.47791 4.523562,2.52413 4.686019,2.32492 0.937059,-1.14914 4.627277,-16.95076 6.378422,-27.31512 1.104306,-6.53605 1.723916,-7.97298 3.196704,-7.40782 2.379738,0.91318 -3.546997,31.52159 -6.867797,35.46812 -0.986632,1.17253 -1.222078,2.24057 -1.701189,7.72201 -0.30578,3.49874 -1.329992,14.94744 -2.275313,25.44134 -0.945295,10.4939 -1.605767,19.37173 -1.469161,19.72799 0.204023,0.53013 7.745623,0.6251 41.957646,0.52245 l 41.70909,-0.12557 -0.0574,-9.56221 c -0.10037,-16.69025 1.47651,-29.04444 6.04821,-47.37592 3.81952,-15.31539 4.17335,-20.75942 2.22777,-34.21238 -1.62983,-11.26946 -1.59377,-10.77657 -0.80667,-11.42979 1.11419,-0.92469 2.25014,-0.16349 2.79879,1.8743 1.69988,6.31278 3.07245,21.97592 2.4691,28.17813 -0.46476,4.77749 -0.59106,5.40938 -3.47472,17.25011 -1.0634,4.36653 -1.93425,8.44028 -1.93425,9.05267 v 1.11363 l 0.76326,-1.08986 c 0.47556,-0.67897 1.27292,-1.0883 2.1177,-1.0883 2.25241,0 5.70909,-1.4247 7.79798,-3.21272 1.08501,-0.92875 2.18651,-1.68827 2.44687,-1.68827 0.90594,0 1.2812,-1.65951 1.29605,-3.87677 2.57775,-15.14434 2.52716,-31.16965 -0.15916,-48.07872 -10e-4,0.0152 -0.003,0.0331 -0.005,0.0486 -0.27263,-2.18231 -0.94334,-4.06996 -2.05001,-6.93963 -4.46124,-11.5684 -12.32797,-18.29523 -27.12134,-23.19342 -2.45209,-0.81191 -3.82279,-1.22739 -4.79764,-1.45262 1.78863,7.75417 -1.93888,13.4924 -11.19001,17.21342 -14.9277,0.52027 -26.815958,-6.44554 -35.671215,-20.88607 z m -33.327681,7.02541 c 0.158909,-0.0286 0.296075,-0.025 0.40721,0.005 0.444592,0.12672 0.475853,0.72624 -0.163814,1.72755 -4.336477,6.79831 -5.559873,10.02942 -5.387785,14.22858 0.05601,1.39878 0.07714,2.81949 0.04444,3.1564 -0.11557,1.16503 -1.415175,0.60698 -2.027267,-0.87075 -1.70839,-4.12442 1.170093,-13.57701 5.215186,-17.12867 0.763145,-0.67006 1.435249,-1.03134 1.912028,-1.11724 z m 2.565735,70.44945 -0.674378,6.85746 z m 111.738917,11.51351 5.2e-4,5.2e-4 0.002,5.1e-4 c -0.32502,0.19414 -0.64917,0.39011 -0.99012,0.55708 -0.43441,0.23089 -0.87072,0.46863 -1.2609,0.76843 -0.72939,0.50945 -1.47932,0.99856 -2.28048,1.38854 -0.8373,0.42492 -1.65229,0.89636 -2.53422,1.22835 -0.75172,0.27896 -1.5131,0.50615 -2.30115,0.65112 -0.69926,0.1916 -1.36536,0.4997 -2.07842,0.64441 -0.27276,-0.0253 -0.98976,0.49118 -1.22318,0.58394 -0.19313,0.0996 -0.38568,0.20182 -0.58033,0.29869 -0.11709,0.058 -0.24307,0.0983 -0.35864,0.15968 -0.34854,0.18501 -0.69206,0.38174 -1.04954,0.54881 -0.005,0.005 -0.01,0.008 -0.015,0.0129 -0.008,0.005 -0.0125,0.01 -0.0176,0.015 -0.003,0.005 -0.003,0.003 -0.003,0.005 -0.005,0.0101 -0.013,0.0178 -0.0181,0.0289 -0.005,0.008 -0.007,0.0175 -0.0124,0.0258 l -0.002,0.002 c -0.56982,2.78317 -1.29857,6.90607 -2.10168,12.1331 -0.0203,0.12926 -0.008,0.1663 -0.0233,0.28268 -3e-5,0.0651 -3e-5,0.13045 0,0.19533 5e-5,0.0689 -2.1e-4,0.13699 0,0.20567 2e-4,0.0553 3.5e-4,0.10985 0.002,0.16485 0,0.0525 0.003,0.10489 0.008,0.1571 0.005,0.0433 0.008,0.0874 0.0222,0.12816 0.0203,0.0588 0.0369,0.11875 0.047,0.17983 0.0123,0.0526 0.0373,0.10116 0.0481,0.15451 -4.6e-4,-8.2e-4 -2.4e-4,-0.002 -0.002,-0.003 5.1e-4,0.003 0.003,0.008 0.002,0.005 3.9e-4,6.3e-4 0.001,10e-4 0.002,0.002 v 5.1e-4 c 0.0101,0.0152 0.0203,0.0322 0.0289,0.0476 0.0385,0.0588 0.0769,0.11826 0.11007,0.18035 0.0127,0.0228 0.0251,0.0451 0.0377,0.0672 0.0302,0.0292 0.0573,0.0609 0.0827,0.094 0.23063,0.15232 0.47582,0.72064 0.62115,1.50895 0.56115,3.04295 4.04346,13.36129 6.68073,19.79466 1.36449,3.32853 2.59852,6.43849 2.74247,6.91017 0.20147,0.66073 0.83956,0.87 2.77761,0.91312 h 5.2e-4 0.001 c 2.64994,0.0588 4.44233,0.23783 5.19968,0.49093 0.0722,-0.11176 0.17121,-0.21593 0.27389,-0.31885 l 10.13426,0.31885 c -5.06018,-31.30623 -7.02096,-39.92955 -11.58689,-50.39228 -0.005,-0.0101 -0.008,-0.0201 -0.0129,-0.03 -0.008,-0.0177 -0.005,-0.0131 -0.01,-0.0207 -0.0101,-0.0177 -0.0205,-0.0344 -0.0357,-0.0496 -0.002,-0.002 -0.005,-0.003 -0.008,-0.005 -0.0127,-0.008 -0.0253,-0.0177 -0.0393,-0.0227 -0.0127,-0.005 -0.0266,-0.005 -0.0393,-0.007 -0.0253,-0.002 -0.0516,-0.002 -0.077,-0.003 -0.0352,-6.8e-4 -0.0722,-0.001 -0.10748,-0.002 -0.0203,-5e-5 -0.0378,-2e-5 -0.0563,0 z"
       transform="matrix(0.39456451,0,0,0.39456451,114.56385,225.42635)" /><path
       id="path4"
       style="fill:#644302;fill-opacity:1;stroke-width:0.53006;stroke-linecap:round;stroke-linejoin:round;stroke-opacity:0.984655;paint-order:stroke fill markers"
       d="m -210.22056,458.03961 c 0.0783,0.0152 0.15642,0.0307 0.23408,0.0485 0.0286,-0.0137 0.0532,-0.0356 0.0822,-0.0485 z m -33.5339,16.00672 -6.1e-4,6.1e-4 c -2.06877,0.10029 -4.26722,0.974 -5.96174,2.74078 -4.46703,4.65751 -2.31397,13.00454 3.35472,13.00454 0.74207,0 0.84127,0.0465 0.72342,0.33847 -2.96999,7.35866 1.61084,18.25681 8.94007,21.26991 0.37206,0.15295 0.58669,0.28133 0.69773,0.50342 0.16623,0.005 0.32349,0.0187 0.47182,0.0402 0.15395,-1.37672 0.2426,-2.75316 0.16108,-3.90198 v -0.27383 l -0.89552,-0.22592 c -3.97675,-1.00136 -6.43667,-5.40267 -4.80891,-8.60567 1.19389,-2.34926 4.32939,-2.04857 6.00844,0.57621 0.90482,1.41447 1.86387,0.54677 4.02451,-3.64119 0.50164,-0.97232 0.76897,-1.23573 2.03591,-2.00491 4.37119,-2.65381 7.64611,-5.9139 8.91539,-8.87502 l 0.37823,-0.88308 0.61638,0.35193 c 2.93169,1.66558 6.734,7.36251 7.04831,10.56165 0.0263,0.26774 0.0519,0.35156 0.0769,0.55399 -0.006,0.0516 -0.009,0.10499 -0.009,0.16209 h -4.1e-4 v 0.24203 c -0.005,0.13776 0.0164,0.27357 0.0459,0.40759 0.0307,0.13471 0.083,0.2636 0.1364,0.39067 0.0451,0.0951 0.0828,0.19304 0.12356,0.28994 0.0445,0.10843 0.11151,0.2042 0.17678,0.30075 0.0823,-1.06249 0.195,-1.95956 0.34989,-2.66494 1.79646,-8.18134 -0.67629,-12.26299 -9.59845,-15.84339 -5.16125,-2.07117 -12.05834,-1.98264 -15.51492,0.19941 -0.94935,0.59924 -1.15996,0.60797 -1.15996,0.0347 0,-3.06335 -2.48986,-4.87046 -5.45608,-5.04421 -0.28838,-0.0169 -0.58142,-0.0127 -0.87696,-0.004 z m 28.04581,18.20717 c -0.54022,-0.002 -2.21895,0.77495 -2.33625,1.08065 -0.29914,0.77954 0.50042,1.09375 1.43034,0.56215 0.66954,-0.38114 1.33828,-0.35865 2.13011,0.0854 0.84861,0.47389 1.46471,0.4991 1.63199,0.0597 0.25172,-0.65597 -1.55009,-1.78397 -2.85619,-1.78797 z m -9.07912,0.51362 c -0.81556,0.014 -1.66271,0.29079 -2.51302,0.83006 -1.67165,1.06017 -1.15966,2.11089 0.55827,1.1457 0.69153,-0.38852 1.25858,-0.55664 1.8789,-0.55664 0.48859,0 1.18774,0.14265 1.5539,0.31726 1.13755,0.54246 1.84407,-0.28387 0.84597,-0.98951 -0.7244,-0.51214 -1.50846,-0.76087 -2.32402,-0.74687 z m 9.25835,4.32281 c -0.3091,0.0342 -0.56874,0.13017 -0.71201,0.30279 -0.41809,0.50377 0.0241,0.93497 1.09656,1.06924 1.61539,0.20225 1.91418,0.1383 1.91418,-0.40882 0,-0.61218 -1.37143,-1.06584 -2.29873,-0.96321 z m 4.0288,0.28016 c -0.0529,0.68322 -0.0962,1.42092 -0.12051,2.2659 -0.0518,1.79918 -0.23196,3.63083 -0.4867,5.36208 -0.0637,1.60479 -0.0566,1.58416 -0.46855,3.68462 -0.27756,0.91018 -0.55357,1.72886 -0.82823,2.45594 -0.0887,0.21079 -0.17692,0.40457 -0.26446,0.58478 -0.0236,-0.0527 -0.0463,-0.10562 -0.0679,-0.15986 h -2.1e-4 c -0.0501,0.11806 -0.1018,0.21138 -0.15251,0.32196 0.0632,-0.0426 0.12652,-0.0725 0.18942,-0.0989 -0.63195,1.27884 -1.22539,1.81337 -1.68541,2.23674 -0.90504,0.81835 -1.39045,1.25157 -2.15601,1.82774 -0.94159,0.39981 -1.86837,0.62749 -2.78034,0.68305 -0.63536,0.0792 -1.49708,0.043 -2.58541,-0.10847 -1.2955,0 -5.11641,-1.4992 -6.71086,-2.63333 -0.57956,-0.41222 -0.99313,-0.6283 -1.23235,-0.65573 l -8.1e-4,-2.1e-4 c -0.39792,-0.0449 -0.31063,0.43442 0.30441,1.40424 1.39005,2.19189 4.46796,4.34147 6.73451,4.7039 0.26425,0.0423 0.41858,0.0814 0.52035,0.14436 0.0197,-0.11725 0.0409,-0.23427 0.064,-0.35091 0.0365,-0.15284 0.0625,-0.30812 0.0936,-0.46203 0.0192,-0.11535 0.0609,-0.22615 0.0791,-0.34152 0.0185,-0.10633 0.0219,-0.21474 0.0326,-0.32196 0.0199,-0.14933 0.0477,-0.29801 0.0785,-0.44551 0.0338,-0.1324 0.062,-0.26575 0.0946,-0.39842 0.91604,0.0363 1.75678,0.0474 2.522,0.0334 1.07458,-0.0691 2.14904,-0.31401 3.22361,-0.73505 1.57103,-0.98032 2.7903,-2.21217 3.65751,-3.69522 0.38961,-0.76666 0.75395,-1.68411 1.09329,-2.7524 0.71426,-2.4033 0.95109,-4.27876 0.71017,-5.62633 0.20007,-2.61551 0.75703,-4.44782 0.34622,-6.07246 -0.005,-0.0275 -0.0114,-0.0549 -0.0155,-0.0826 -0.012,-0.0956 -0.0181,-0.19187 -0.0342,-0.28688 0.005,-0.0189 0.002,-0.004 -0.0122,-0.0461 -0.0197,-0.0641 -0.0423,-0.12741 -0.0616,-0.19166 -0.0122,-0.0461 -0.0108,-0.0944 -0.0202,-0.1411 -0.0236,-0.0319 -0.0379,-0.0694 -0.0599,-0.10215 z m -12.65445,0.38292 c -1.12053,-0.0283 -2.32096,0.56359 -2.32096,1.53167 0,0.76694 0.72319,0.78307 1.3447,0.0361 0.31482,-0.37741 1.17317,-0.39125 1.664,-0.0165 0.82825,0.62646 1.5209,0.0695 0.96627,-0.77705 -0.33831,-0.51633 -0.98169,-0.75658 -1.65401,-0.77358 z m 5.66731,0.33683 c -0.9718,-0.14002 -0.68382,1.19926 0.72281,3.36063 1.12955,1.73562 0.9407,3.17651 -0.41595,3.17651 -0.74243,0 -0.92109,1.05136 -0.20552,1.20911 0.5135,0.11319 1.40911,-0.19691 1.90011,-0.65818 0.57687,-0.54197 0.84412,-1.50661 0.65268,-2.35542 -0.16423,-0.72818 -0.18599,-0.77194 -1.05211,-2.13439 -0.32938,-0.51812 -0.73137,-1.30146 -0.89348,-1.74046 -0.20267,-0.54883 -0.42406,-0.8168 -0.70854,-0.8578 z m -20.24574,1.38813 c -0.17938,0.006 -0.33422,0.0622 -0.45285,0.18086 -0.2612,0.26119 -0.2113,0.3438 0.46468,0.77053 0.92692,0.58514 1.86318,1.62877 2.39355,2.66839 0.43734,0.85726 1.00897,0.97226 1.11572,0.22429 0.20129,-1.41035 -2.26542,-3.88357 -3.5211,-3.84407 z m 13.98346,7.52604 c -1.09511,0.0291 -1.20719,1.05758 -0.0318,2.62721 1.28413,1.71995 4.59371,2.34642 6.28267,1.18913 1.84228,-1.26235 2.18182,-2.81771 0.57927,-2.65209 -1.55171,0.16037 -3.75926,-0.18353 -5.41346,-0.84332 -0.57517,-0.22941 -1.05076,-0.33093 -1.41647,-0.32093 z m -37.47625,4.6778 c -0.0845,0.0615 -0.17193,0.11852 -0.26445,0.16801 -0.0573,0.0302 -0.11524,0.0582 -0.17372,0.0856 0.0159,0.0609 0.03,0.13277 0.03,0.23632 0,0.86045 3.61618,7.92302 4.05673,7.92302 0.73708,0 -2.03335,-6.55268 -3.38856,-8.01498 -0.13726,-0.14808 -0.21656,-0.28469 -0.25976,-0.39801 z m -3.63018,0.73322 v 6.1e-4 c -0.0803,-0.0199 -0.14105,-0.0162 -0.18045,0.0165 -0.23617,0.1963 0.28978,1.41996 1.87851,4.64355 2.14551,4.35335 2.66737,5.06484 2.83906,3.86813 0.082,-0.57127 -3.73128,-8.13016 -4.23841,-8.40157 -0.1185,-0.0634 -0.21841,-0.10743 -0.29871,-0.12723 z m -1.23255,3.53883 c -0.0473,0.0595 -0.11344,0.11864 -0.17413,0.1778 -10e-4,0.0621 -0.003,0.12388 -0.005,0.18595 -0.005,0.11485 -0.0125,0.22996 -0.0296,0.34377 h 6.1e-4 c -0.007,0.0475 -0.0161,0.0931 -0.0255,0.13743 0.17535,1.24276 2.79622,6.12013 3.18018,5.88283 0.52829,-0.3265 -2.13097,-6.64663 -2.79665,-6.64663 -0.0569,0 -0.10545,-0.0385 -0.14986,-0.0812 z m 18.32665,1.23358 c 1e-5,1.8e-4 2e-5,1.6e-4 0,10e-4 0.004,9.8e-4 0.026,0.01 0.0206,0.01 -0.007,-0.004 -0.0137,-0.007 -0.0206,-0.0114 z m 8.10674,3.25072 2e-4,2.1e-4 v 6.1e-4 c 0.002,0.0253 0.004,0.0504 0.006,0.0758 3.47031,5.46177 8.08514,8.10186 13.85397,7.9008 3.62021,-1.45613 5.09109,-3.69735 4.4266,-6.71881 -0.0482,-0.0164 -0.0964,-0.033 -0.14517,-0.0471 -0.0246,-0.007 -0.006,-0.002 -0.0387,-0.008 -0.0315,-0.006 -0.0627,-0.0137 -0.094,-0.0208 -0.0491,-0.0107 -0.0974,-0.0236 -0.14517,-0.0392 -0.0167,-0.005 -0.0334,-0.009 -0.0502,-0.0131 2.00118,4.02129 -3.79234,7.54211 -9.3085,5.59554 h -6.2e-4 c -2.83867,-1.00172 -7.7852,-5.2759 -8.12039,-6.72554 -0.10062,-1.5e-4 -0.20108,4.6e-4 -0.30177,0 -0.0273,-10e-5 -0.0548,-5.2e-4 -0.0822,-6.1e-4 z m -13.36748,2.50814 v 4.1e-4 c -0.18812,0.0339 -0.45331,0.17644 -0.75442,0.44082 -1.59605,1.40136 -2.73179,5.13102 -2.05772,6.75837 0.24151,0.58306 0.75428,0.80324 0.79988,0.34356 0.0129,-0.13293 0.005,-0.69349 -0.0175,-1.2454 -0.0679,-1.65684 0.41481,-2.93173 2.12583,-5.6141 0.25239,-0.39508 0.24005,-0.63162 0.0646,-0.68162 -0.0438,-0.012 -0.0979,-0.022 -0.16067,-0.002 z m 5.11537,0.33174 c -0.007,10e-4 -0.0143,0.003 -0.0216,0.005 -0.076,0.0109 -0.15052,0.0283 -0.22632,0.0404 -0.0794,0.012 -0.15969,0.0189 -0.23979,0.0239 -0.0375,4e-4 -0.074,0.009 -0.11051,0.0169 -0.0568,0.0159 -0.11592,0.0179 -0.17372,0.0279 -0.0537,0.01 -0.10717,0.0202 -0.16067,0.0314 -0.0842,0.0196 -0.16866,0.0365 -0.25426,0.0487 -0.0298,0.004 -0.0599,0.007 -0.0899,0.01 -0.0651,2.69935 -0.25085,4.02717 -1.04395,7.47241 -0.96328,4.18453 -1.56023,9.153 -1.8314,15.24088 -0.0592,1.32935 -0.15748,3.0832 -0.21858,3.8979 l -0.11051,1.47173 v 6.1e-4 0.003 c -0.002,0.007 -0.003,0.0146 -0.004,0.0226 -4.1e-4,0.009 -4.1e-4,0.0179 -4.1e-4,0.0269 -1.8e-4,0.01 -5.7e-4,0.019 -6.1e-4,0.029 -4e-5,0.008 1e-5,0.0167 0,0.0257 0,0.008 1e-5,0.0159 0,0.0239 v 0.0257 0.0279 0.0249 0.0279 0.0247 0.0249 0.0243 0.0243 0.0245 0.0236 0.0243 0.0239 c 0,0.001 1.2e-4,0.003 0,0.004 0,0.001 -4.1e-4,0.003 -4.1e-4,0.004 -10e-4,0.004 -0.002,0.008 -0.004,0.012 -0.003,0.009 -0.004,0.0189 -0.005,0.0279 -2e-4,0.008 -8.2e-4,0.0167 -8.2e-4,0.0247 -1.2e-4,0.008 3e-5,0.0163 0,0.0243 -1e-5,0.008 0,0.0169 0,0.0249 v 0.0273 0.0275 0.0253 0.0336 0.0326 0.0277 0.0285 0.0273 0.0306 0.0149 c -0.001,0.0156 -0.004,0.031 -0.006,0.0465 -0.001,0.007 -9.3e-4,0.0148 -0.002,0.0218 l -0.003,0.0155 c -0.003,0.0112 -0.005,0.022 -0.006,0.0336 v 4.1e-4 c -0.003,0.003 -0.001,0.005 -0.002,0.007 -0.003,0.0104 -0.005,0.0211 -0.006,0.032 -3.7e-4,0.008 -6.1e-4,0.0169 -6.1e-4,0.0249 0,0.01 0.003,0.0172 0.007,0.0212 0,0.002 3e-4,0.003 4.1e-4,0.004 -0.0856,0.28055 -0.15008,0.65269 -0.19738,1.26763 -0.0723,0.93978 -0.27361,2.73452 -0.44694,3.98781 -0.24258,1.74237 -0.25865,2.33196 -0.0885,2.50528 0.57875,0.57876 1.1301,-1.20752 1.47703,-4.78423 0.21369,-2.20298 0.13853,-2.13631 1.53473,-1.35551 0.6674,0.37323 1.36805,0.67857 1.55696,0.67857 0.0262,0 0.0276,0.009 0.0481,0.0108 h 0.0502 c 0.0566,0 0.11345,-0.004 0.17005,-0.006 0.01,-2.6e-4 0.02,-5.2e-4 0.03,-6.1e-4 2.3e-4,-10e-4 0.001,-0.002 0.001,-0.002 0.004,-0.002 0.008,-0.002 0.0124,-0.003 0.0325,-0.006 0.0644,-0.0126 0.097,-0.0186 0.0293,-0.003 0.0572,-0.0128 0.0852,-0.0208 0.0241,-0.007 0.0269,10e-4 0.0239,-0.008 0.0437,-0.0196 0.0854,-0.0422 0.12804,-0.0636 0.0478,-0.0241 0.0958,-0.0481 0.14375,-0.0718 0.0502,-0.0242 0.1001,-0.0496 0.15048,-0.0734 0.0228,-0.011 0.0453,-0.0227 0.0677,-0.0347 0.0655,-0.18406 0.13946,-0.35093 0.24427,-0.47549 1.31027,-1.55716 3.64895,-13.63415 2.70999,-13.99446 -0.58111,-0.22299 -0.82579,0.34397 -1.26151,2.92286 -0.69094,4.08941 -2.14676,10.32417 -2.51649,10.77758 -0.0641,0.0786 -0.8966,-0.334 -1.84955,-0.91713 -0.40635,-0.24866 -0.77283,-0.45772 -1.10064,-0.63921 0.004,-0.0617 0.007,-0.0602 0.0122,-0.1623 0.0352,-0.57812 0.0545,-1.16016 0.0832,-1.73904 -0.002,-0.99253 0.0835,-1.97385 0.20002,-2.95222 0.13739,-1.06892 0.0971,-2.15882 0.10807,-3.2385 0.0452,-1.38388 0.17368,-2.76412 0.34723,-4.12993 0.16071,-1.02685 0.3189,-2.05459 0.49975,-3.07578 0.11754,-0.92821 0.24079,-1.85477 0.41493,-2.7679 0.19696,-1.00759 0.40859,-2.00776 0.64554,-3.00034 0.21047,-0.82127 0.42147,-1.64273 0.58641,-2.48204 0.0245,-0.14386 0.0538,-0.28656 0.0744,-0.43145 0.0476,-0.33359 0.0657,-0.60174 0.0987,-0.93792 0.0431,-0.43894 0.0967,-0.87398 0.15659,-1.30943 0.12064,-0.73922 0.18133,-1.49033 0.21083,-2.24429 0.007,-0.17805 0.005,-0.35629 0.007,-0.53441 z m 39.21324,8.34264 c 0.0356,0.10802 0.0743,0.22209 0.11785,0.3399 0.0306,-0.0488 0.068,-0.093 0.0991,-0.14151 -0.074,-0.0644 -0.14447,-0.13231 -0.21694,-0.19839 z m -4.52733,2.91287 c -0.10722,0.0106 -0.21775,0.0603 -0.32766,0.1515 -0.31056,0.25774 -0.32479,0.0633 0.31828,4.50979 0.76766,5.30806 0.62805,7.45608 -0.879,13.49899 -0.78948,3.16565 -1.31962,5.87676 -1.68786,8.48619 0.0654,0.0645 0.13193,0.12938 0.20533,0.18453 0.0907,0.0655 0.16995,0.14518 0.24855,0.22428 0.0244,0.0233 0.047,0.0496 0.0734,0.0707 0.003,0.002 -0.008,-0.008 -0.005,-0.007 0.005,0.001 0.009,0.006 0.0151,0.009 0.008,0.005 0.0167,0.0111 0.0247,0.0161 0.0352,0.0234 0.0732,0.041 0.11174,0.0583 0.0341,0.0148 0.0226,0.0178 0.0371,0.0141 0.0398,0.0107 0.0839,0.0135 0.12519,0.0165 0.0333,0.004 0.0652,-10e-4 0.0987,-10e-4 0.0133,-10e-4 0.0534,-10e-4 0.0402,-0.002 -0.0145,-10e-4 -0.0288,0.001 -0.0434,0.001 0.0194,-0.01 -0.008,0.005 -0.009,-0.001 -0.001,-0.005 0.009,-0.005 0.0145,-0.008 0.0448,-0.0236 0.0893,-0.0473 0.13335,-0.0724 0.0801,-0.0478 0.15992,-0.1009 0.22632,-0.167 0.01,-0.01 0.0212,-0.0191 0.0302,-0.03 0.001,-10e-4 -0.004,-0.002 -0.003,-0.003 0.006,-0.0109 0.0146,-0.0201 0.0206,-0.0306 0.0181,-0.0294 0.0353,-0.0612 0.0497,-0.0926 0.0341,-0.0832 0.0588,-0.1704 0.0862,-0.2563 0.0301,-0.10088 0.0545,-0.20347 0.0832,-0.30482 0.0136,-0.055 0.0316,-0.1077 0.0526,-0.15965 0.16026,-0.95817 0.33117,-2.02016 0.45428,-2.6215 l 6.1e-4,-6.2e-4 c 0.002,-0.003 0.003,-0.007 0.005,-0.0104 0.002,-0.004 0.005,-0.007 0.007,-0.0112 0,-10e-4 4.1e-4,-10e-4 4.1e-4,-0.002 0.002,-0.002 0.004,-0.004 0.007,-0.006 0.002,-0.002 0.004,-0.003 0.006,-0.005 0.14105,-0.0659 0.27639,-0.14354 0.41391,-0.21654 0.0456,-0.0242 0.0953,-0.0401 0.14151,-0.063 0.0768,-0.0382 0.15277,-0.0785 0.22897,-0.11785 0.0921,-0.0366 0.37501,-0.24041 0.48263,-0.23041 0.28135,-0.0571 0.54417,-0.17866 0.82007,-0.25426 0.31094,-0.0572 0.61135,-0.14684 0.90795,-0.25691 0.34798,-0.13099 0.66975,-0.317 1.00012,-0.48466 0.31611,-0.15387 0.6118,-0.34686 0.89959,-0.54787 0.15395,-0.11829 0.32631,-0.21209 0.49771,-0.30319 0.12015,-0.0588 0.23414,-0.12812 0.34866,-0.19656 -3.4e-4,-0.0121 -8.1e-4,-0.024 -8.1e-4,-0.0361 -0.002,-0.0936 -0.003,-0.18696 -0.003,-0.28056 -1.5e-4,-0.0535 9e-5,-0.1073 0,-0.16088 -0.048,-0.0747 -0.0928,-0.16093 -0.13233,-0.25976 -0.0263,-0.0658 -0.0459,-0.13356 -0.063,-0.20206 -0.0695,0.11972 -0.15327,0.20002 -0.26405,0.20002 -0.10273,0 -0.53734,0.29948 -0.96545,0.66593 -0.8242,0.70549 -2.18808,1.2666 -3.0768,1.2666 -0.33332,0 -0.64793,0.16151 -0.83557,0.42941 l -0.30136,0.43063 v -0.43838 c 0,-0.24163 0.34381,-1.85 0.76339,-3.57288 1.13779,-4.67193 1.18762,-4.92166 1.371,-6.80669 0.23806,-2.44717 -0.30351,-8.62647 -0.97422,-11.11727 -0.16236,-0.60299 -0.45496,-0.9232 -0.77664,-0.89144 z"
       transform="translate(391.01481,-232.61163)" /></g></svg>
